<svg width="789" height="368" viewBox="0 0 789 368" fill="none" xmlns="http://www.w3.org/2000/svg">
<rect opacity="0.5" x="34" y="26" width="200" height="313" rx="30" fill="#FDFCFB"/>
<rect opacity="0.5" x="294" y="26" width="200" height="313" rx="30" fill="#FDFCFB"/>
<rect opacity="0.5" x="554" y="26" width="200" height="313" rx="30" fill="#FDFCFB"/>
<path opacity="0.45" d="M234 97H294" stroke="#171613" stroke-linecap="round" stroke-dasharray="1 6"/>
<path opacity="0.45" d="M494 98H554" stroke="#171613" stroke-linecap="round" stroke-dasharray="1 6"/>
<path d="M76 91C86.4934 91 95 82.4934 95 72C95 61.5066 86.4934 53 76 53C65.5066 53 57 61.5066 57 72C57 82.4934 65.5066 91 76 91Z" fill="#E8E6DC"/>
<path d="M336 91C346.493 91 355 82.4934 355 72C355 61.5066 346.493 53 336 53C325.507 53 317 61.5066 317 72C317 82.4934 325.507 91 336 91Z" fill="#E8E6DC"/>
<path d="M596 91C606.493 91 615 82.4934 615 72C615 61.5066 606.493 53 596 53C585.507 53 577 61.5066 577 72C577 82.4934 585.507 91 596 91Z" fill="#DFFF37"/>
<path d="M76.032 76.1193C75.4695 76.1193 74.968 76.0227 74.5277 75.8295C74.0902 75.6364 73.7422 75.3679 73.4837 75.0241C73.228 74.6776 73.0888 74.2756 73.0661 73.8182H74.1399C74.1626 74.0994 74.2592 74.3423 74.4297 74.5469C74.6001 74.7486 74.8232 74.9048 75.0987 75.0156C75.3743 75.1264 75.6797 75.1818 76.0149 75.1818C76.3899 75.1818 76.7223 75.1165 77.0121 74.9858C77.3018 74.8551 77.5291 74.6733 77.6939 74.4403C77.8587 74.2074 77.9411 73.9375 77.9411 73.6307C77.9411 73.3097 77.8615 73.027 77.7024 72.7827C77.5433 72.5355 77.3104 72.3423 77.0036 72.2031C76.6967 72.0639 76.3217 71.9943 75.8786 71.9943H75.1797V71.0568H75.8786C76.2251 71.0568 76.5291 70.9943 76.7905 70.8693C77.0547 70.7443 77.2607 70.5682 77.4084 70.3409C77.5589 70.1136 77.6342 69.8466 77.6342 69.5398C77.6342 69.2443 77.5689 68.9872 77.4382 68.7685C77.3075 68.5497 77.1229 68.3793 76.8842 68.2571C76.6484 68.1349 76.37 68.0739 76.049 68.0739C75.7479 68.0739 75.4638 68.1293 75.1967 68.2401C74.9325 68.348 74.7166 68.5057 74.549 68.7131C74.3814 68.9176 74.2905 69.1648 74.2763 69.4545H73.2536C73.2706 68.9972 73.4084 68.5966 73.6669 68.2528C73.9254 67.9062 74.2635 67.6364 74.6811 67.4432C75.1016 67.25 75.5632 67.1534 76.0661 67.1534C76.6058 67.1534 77.0689 67.2628 77.4553 67.4815C77.8416 67.6974 78.1385 67.983 78.3459 68.3381C78.5533 68.6932 78.657 69.0767 78.657 69.4886C78.657 69.9801 78.5277 70.3991 78.2692 70.7457C78.0135 71.0923 77.6655 71.3324 77.2251 71.4659V71.5341C77.7763 71.625 78.2067 71.8594 78.5163 72.2372C78.826 72.6122 78.9808 73.0767 78.9808 73.6307C78.9808 74.1051 78.8516 74.5312 78.593 74.9091C78.3374 75.2841 77.9879 75.5795 77.5447 75.7955C77.1016 76.0114 76.5973 76.1193 76.032 76.1193Z" fill="#171613"/>
<path d="M333.271 76V75.233L336.151 72.0795C336.489 71.7102 336.768 71.3892 336.987 71.1165C337.205 70.8409 337.367 70.5824 337.472 70.3409C337.58 70.0966 337.634 69.8409 337.634 69.5739C337.634 69.267 337.56 69.0014 337.413 68.777C337.268 68.5526 337.069 68.3793 336.816 68.2571C336.563 68.1349 336.279 68.0739 335.964 68.0739C335.629 68.0739 335.336 68.1435 335.086 68.2827C334.839 68.419 334.647 68.6108 334.511 68.858C334.377 69.1051 334.31 69.3949 334.31 69.7273H333.305C333.305 69.2159 333.423 68.767 333.658 68.3807C333.894 67.9943 334.215 67.6932 334.621 67.4773C335.031 67.2614 335.489 67.1534 335.998 67.1534C336.509 67.1534 336.962 67.2614 337.357 67.4773C337.752 67.6932 338.062 67.9844 338.286 68.3509C338.511 68.7173 338.623 69.125 338.623 69.5739C338.623 69.8949 338.565 70.2088 338.448 70.5156C338.335 70.8196 338.136 71.1591 337.852 71.5341C337.57 71.9062 337.18 72.3608 336.68 72.8977L334.719 74.9943V75.0625H338.776V76H333.271Z" fill="#171613"/>
<path d="M597.183 67.2727V76H596.126V68.3807H596.075L593.944 69.7955V68.7216L596.126 67.2727H597.183Z" fill="#171613"/>
<path d="M64.0568 110V101.273H69.2898V102.21H65.1136V105.159H68.8977V106.097H65.1136V110H64.0568ZM71.0998 110V101.273H72.1566V109.062H76.2134V110H71.0998ZM84.8736 105.636C84.8736 106.557 84.7074 107.352 84.375 108.023C84.0426 108.693 83.5866 109.21 83.0071 109.574C82.4276 109.938 81.7656 110.119 81.0213 110.119C80.277 110.119 79.6151 109.938 79.0355 109.574C78.456 109.21 78 108.693 77.6676 108.023C77.3352 107.352 77.169 106.557 77.169 105.636C77.169 104.716 77.3352 103.92 77.6676 103.25C78 102.58 78.456 102.062 79.0355 101.699C79.6151 101.335 80.277 101.153 81.0213 101.153C81.7656 101.153 82.4276 101.335 83.0071 101.699C83.5866 102.062 84.0426 102.58 84.375 103.25C84.7074 103.92 84.8736 104.716 84.8736 105.636ZM83.8509 105.636C83.8509 104.881 83.7244 104.243 83.4716 103.723C83.2216 103.203 82.8821 102.81 82.4531 102.543C82.027 102.276 81.5497 102.142 81.0213 102.142C80.4929 102.142 80.0142 102.276 79.5852 102.543C79.1591 102.81 78.8196 103.203 78.5668 103.723C78.3168 104.243 78.1918 104.881 78.1918 105.636C78.1918 106.392 78.3168 107.03 78.5668 107.55C78.8196 108.07 79.1591 108.463 79.5852 108.73C80.0142 108.997 80.4929 109.131 81.0213 109.131C81.5497 109.131 82.027 108.997 82.4531 108.73C82.8821 108.463 83.2216 108.07 83.4716 107.55C83.7244 107.03 83.8509 106.392 83.8509 105.636ZM88.2358 110L85.8494 101.273H86.9233L88.7472 108.381H88.8324L90.6903 101.273H91.8835L93.7415 108.381H93.8267L95.6506 101.273H96.7244L94.3381 110H93.2472L91.321 103.045H91.2528L89.3267 110H88.2358ZM100.734 110H98.0412V101.273H100.854C101.7 101.273 102.425 101.447 103.027 101.797C103.629 102.143 104.091 102.642 104.412 103.293C104.733 103.94 104.893 104.716 104.893 105.619C104.893 106.528 104.732 107.311 104.408 107.967C104.084 108.621 103.612 109.124 102.993 109.476C102.374 109.825 101.621 110 100.734 110ZM99.098 109.062H100.666C101.388 109.062 101.986 108.923 102.46 108.645C102.935 108.366 103.288 107.97 103.521 107.456C103.754 106.942 103.871 106.33 103.871 105.619C103.871 104.915 103.756 104.308 103.526 103.8C103.295 103.288 102.952 102.896 102.494 102.624C102.037 102.348 101.467 102.21 100.786 102.21H99.098V109.062ZM110.399 101.273L112.99 108.619H113.092L115.683 101.273H116.791L113.587 110H112.496L109.291 101.273H110.399ZM121.065 101.273V110H120.009V102.381H119.957L117.827 103.795V102.722L120.009 101.273H121.065Z" fill="#979186"/>
<path d="M324.057 110V101.273H329.29V102.21H325.114V105.159H328.898V106.097H325.114V110H324.057ZM331.1 110V101.273H332.157V109.062H336.213V110H331.1ZM344.874 105.636C344.874 106.557 344.707 107.352 344.375 108.023C344.043 108.693 343.587 109.21 343.007 109.574C342.428 109.938 341.766 110.119 341.021 110.119C340.277 110.119 339.615 109.938 339.036 109.574C338.456 109.21 338 108.693 337.668 108.023C337.335 107.352 337.169 106.557 337.169 105.636C337.169 104.716 337.335 103.92 337.668 103.25C338 102.58 338.456 102.062 339.036 101.699C339.615 101.335 340.277 101.153 341.021 101.153C341.766 101.153 342.428 101.335 343.007 101.699C343.587 102.062 344.043 102.58 344.375 103.25C344.707 103.92 344.874 104.716 344.874 105.636ZM343.851 105.636C343.851 104.881 343.724 104.243 343.472 103.723C343.222 103.203 342.882 102.81 342.453 102.543C342.027 102.276 341.55 102.142 341.021 102.142C340.493 102.142 340.014 102.276 339.585 102.543C339.159 102.81 338.82 103.203 338.567 103.723C338.317 104.243 338.192 104.881 338.192 105.636C338.192 106.392 338.317 107.03 338.567 107.55C338.82 108.07 339.159 108.463 339.585 108.73C340.014 108.997 340.493 109.131 341.021 109.131C341.55 109.131 342.027 108.997 342.453 108.73C342.882 108.463 343.222 108.07 343.472 107.55C343.724 107.03 343.851 106.392 343.851 105.636ZM348.236 110L345.849 101.273H346.923L348.747 108.381H348.832L350.69 101.273H351.884L353.741 108.381H353.827L355.651 101.273H356.724L354.338 110H353.247L351.321 103.045H351.253L349.327 110H348.236ZM360.734 110H358.041V101.273H360.854C361.7 101.273 362.425 101.447 363.027 101.797C363.629 102.143 364.091 102.642 364.412 103.293C364.733 103.94 364.893 104.716 364.893 105.619C364.893 106.528 364.732 107.311 364.408 107.967C364.084 108.621 363.612 109.124 362.993 109.476C362.374 109.825 361.621 110 360.734 110ZM359.098 109.062H360.666C361.388 109.062 361.986 108.923 362.46 108.645C362.935 108.366 363.288 107.97 363.521 107.456C363.754 106.942 363.871 106.33 363.871 105.619C363.871 104.915 363.756 104.308 363.526 103.8C363.295 103.288 362.952 102.896 362.494 102.624C362.037 102.348 361.467 102.21 360.786 102.21H359.098V109.062ZM370.399 101.273L372.99 108.619H373.092L375.683 101.273H376.791L373.587 110H372.496L369.291 101.273H370.399ZM377.997 110V109.233L380.878 106.08C381.216 105.71 381.494 105.389 381.713 105.116C381.932 104.841 382.094 104.582 382.199 104.341C382.307 104.097 382.361 103.841 382.361 103.574C382.361 103.267 382.287 103.001 382.139 102.777C381.994 102.553 381.795 102.379 381.543 102.257C381.29 102.135 381.006 102.074 380.69 102.074C380.355 102.074 380.062 102.143 379.812 102.283C379.565 102.419 379.374 102.611 379.237 102.858C379.104 103.105 379.037 103.395 379.037 103.727H378.031C378.031 103.216 378.149 102.767 378.385 102.381C378.621 101.994 378.942 101.693 379.348 101.477C379.757 101.261 380.216 101.153 380.724 101.153C381.236 101.153 381.689 101.261 382.084 101.477C382.479 101.693 382.788 101.984 383.013 102.351C383.237 102.717 383.349 103.125 383.349 103.574C383.349 103.895 383.291 104.209 383.175 104.516C383.061 104.82 382.862 105.159 382.578 105.534C382.297 105.906 381.906 106.361 381.406 106.898L379.446 108.994V109.062H383.503V110H377.997Z" fill="#979186"/>
<path d="M584.057 110V101.273H589.29V102.21H585.114V105.159H588.898V106.097H585.114V110H584.057ZM591.1 110V101.273H592.157V109.062H596.213V110H591.1ZM604.874 105.636C604.874 106.557 604.707 107.352 604.375 108.023C604.043 108.693 603.587 109.21 603.007 109.574C602.428 109.938 601.766 110.119 601.021 110.119C600.277 110.119 599.615 109.938 599.036 109.574C598.456 109.21 598 108.693 597.668 108.023C597.335 107.352 597.169 106.557 597.169 105.636C597.169 104.716 597.335 103.92 597.668 103.25C598 102.58 598.456 102.062 599.036 101.699C599.615 101.335 600.277 101.153 601.021 101.153C601.766 101.153 602.428 101.335 603.007 101.699C603.587 102.062 604.043 102.58 604.375 103.25C604.707 103.92 604.874 104.716 604.874 105.636ZM603.851 105.636C603.851 104.881 603.724 104.243 603.472 103.723C603.222 103.203 602.882 102.81 602.453 102.543C602.027 102.276 601.55 102.142 601.021 102.142C600.493 102.142 600.014 102.276 599.585 102.543C599.159 102.81 598.82 103.203 598.567 103.723C598.317 104.243 598.192 104.881 598.192 105.636C598.192 106.392 598.317 107.03 598.567 107.55C598.82 108.07 599.159 108.463 599.585 108.73C600.014 108.997 600.493 109.131 601.021 109.131C601.55 109.131 602.027 108.997 602.453 108.73C602.882 108.463 603.222 108.07 603.472 107.55C603.724 107.03 603.851 106.392 603.851 105.636ZM608.236 110L605.849 101.273H606.923L608.747 108.381H608.832L610.69 101.273H611.884L613.741 108.381H613.827L615.651 101.273H616.724L614.338 110H613.247L611.321 103.045H611.253L609.327 110H608.236ZM620.734 110H618.041V101.273H620.854C621.7 101.273 622.425 101.447 623.027 101.797C623.629 102.143 624.091 102.642 624.412 103.293C624.733 103.94 624.893 104.716 624.893 105.619C624.893 106.528 624.732 107.311 624.408 107.967C624.084 108.621 623.612 109.124 622.993 109.476C622.374 109.825 621.621 110 620.734 110ZM619.098 109.062H620.666C621.388 109.062 621.986 108.923 622.46 108.645C622.935 108.366 623.288 107.97 623.521 107.456C623.754 106.942 623.871 106.33 623.871 105.619C623.871 104.915 623.756 104.308 623.526 103.8C623.295 103.288 622.952 102.896 622.494 102.624C622.037 102.348 621.467 102.21 620.786 102.21H619.098V109.062ZM636.962 101.273V110H635.939L631.183 103.148H631.098V110H630.041V101.273H631.064L635.837 108.142H635.922V101.273H636.962ZM646.44 105.636C646.44 106.557 646.274 107.352 645.941 108.023C645.609 108.693 645.153 109.21 644.574 109.574C643.994 109.938 643.332 110.119 642.588 110.119C641.843 110.119 641.181 109.938 640.602 109.574C640.022 109.21 639.566 108.693 639.234 108.023C638.902 107.352 638.735 106.557 638.735 105.636C638.735 104.716 638.902 103.92 639.234 103.25C639.566 102.58 640.022 102.062 640.602 101.699C641.181 101.335 641.843 101.153 642.588 101.153C643.332 101.153 643.994 101.335 644.574 101.699C645.153 102.062 645.609 102.58 645.941 103.25C646.274 103.92 646.44 104.716 646.44 105.636ZM645.417 105.636C645.417 104.881 645.291 104.243 645.038 103.723C644.788 103.203 644.449 102.81 644.02 102.543C643.593 102.276 643.116 102.142 642.588 102.142C642.059 102.142 641.581 102.276 641.152 102.543C640.725 102.81 640.386 103.203 640.133 103.723C639.883 104.243 639.758 104.881 639.758 105.636C639.758 106.392 639.883 107.03 640.133 107.55C640.386 108.07 640.725 108.463 641.152 108.73C641.581 108.997 642.059 109.131 642.588 109.131C643.116 109.131 643.593 108.997 644.02 108.73C644.449 108.463 644.788 108.07 645.038 107.55C645.291 107.03 645.417 106.392 645.417 105.636ZM649.802 110L647.416 101.273H648.49L650.314 108.381H650.399L652.257 101.273H653.45L655.308 108.381H655.393L657.217 101.273H658.291L655.904 110H654.814L652.887 103.045H652.819L650.893 110H649.802Z" fill="#979186"/>
<g filter="url(#filter0_d_1236_337)">
<rect x="63" y="130" width="130" height="44" rx="22" fill="white"/>
<path d="M88.306 157.168C87.354 157.168 86.528 156.958 85.828 156.538C85.1373 156.109 84.6053 155.516 84.232 154.76C83.8587 153.995 83.672 153.108 83.672 152.1C83.672 151.092 83.8587 150.21 84.232 149.454C84.6053 148.689 85.1373 148.096 85.828 147.676C86.528 147.247 87.354 147.032 88.306 147.032C89.426 147.032 90.336 147.298 91.036 147.83C91.736 148.362 92.184 149.113 92.38 150.084H91.078C90.9287 149.477 90.6253 148.992 90.168 148.628C89.7107 148.255 89.09 148.068 88.306 148.068C87.606 148.068 86.9993 148.231 86.486 148.558C85.9727 148.875 85.576 149.337 85.296 149.944C85.016 150.541 84.876 151.26 84.876 152.1C84.876 152.94 85.016 153.663 85.296 154.27C85.576 154.867 85.9727 155.329 86.486 155.656C86.9993 155.973 87.606 156.132 88.306 156.132C89.09 156.132 89.7107 155.955 90.168 155.6C90.6253 155.236 90.9287 154.755 91.078 154.158H92.38C92.184 155.101 91.736 155.838 91.036 156.37C90.336 156.902 89.426 157.168 88.306 157.168ZM94.0152 157V146.92H95.1912V151.134C95.4245 150.714 95.7512 150.383 96.1712 150.14C96.6005 149.897 97.0672 149.776 97.5712 149.776C98.1125 149.776 98.5838 149.888 98.9852 150.112C99.3865 150.327 99.6945 150.658 99.9092 151.106C100.124 151.554 100.231 152.119 100.231 152.8V157H99.0692V152.926C99.0692 152.217 98.9198 151.685 98.6212 151.33C98.3225 150.966 97.8885 150.784 97.3192 150.784C96.9178 150.784 96.5538 150.882 96.2272 151.078C95.9098 151.274 95.6578 151.554 95.4712 151.918C95.2845 152.282 95.1912 152.73 95.1912 153.262V157H94.0152ZM104.364 157.168C103.795 157.168 103.319 157.07 102.936 156.874C102.553 156.669 102.269 156.403 102.082 156.076C101.895 155.74 101.802 155.376 101.802 154.984C101.802 154.508 101.923 154.107 102.166 153.78C102.418 153.444 102.768 153.192 103.216 153.024C103.673 152.847 104.21 152.758 104.826 152.758H106.688C106.688 152.319 106.618 151.955 106.478 151.666C106.347 151.367 106.151 151.143 105.89 150.994C105.638 150.845 105.321 150.77 104.938 150.77C104.49 150.77 104.103 150.882 103.776 151.106C103.449 151.33 103.249 151.661 103.174 152.1H101.97C102.026 151.596 102.194 151.176 102.474 150.84C102.763 150.495 103.127 150.233 103.566 150.056C104.005 149.869 104.462 149.776 104.938 149.776C105.591 149.776 106.133 149.897 106.562 150.14C107.001 150.373 107.327 150.705 107.542 151.134C107.757 151.554 107.864 152.053 107.864 152.632V157H106.814L106.744 155.754C106.651 155.95 106.529 156.137 106.38 156.314C106.24 156.482 106.072 156.631 105.876 156.762C105.68 156.883 105.456 156.981 105.204 157.056C104.961 157.131 104.681 157.168 104.364 157.168ZM104.546 156.174C104.873 156.174 105.167 156.109 105.428 155.978C105.699 155.838 105.927 155.651 106.114 155.418C106.301 155.175 106.441 154.909 106.534 154.62C106.637 154.331 106.688 154.027 106.688 153.71V153.668H104.924C104.467 153.668 104.098 153.724 103.818 153.836C103.538 153.939 103.337 154.088 103.216 154.284C103.095 154.471 103.034 154.685 103.034 154.928C103.034 155.18 103.09 155.399 103.202 155.586C103.323 155.773 103.496 155.917 103.72 156.02C103.953 156.123 104.229 156.174 104.546 156.174ZM112.264 157C111.844 157 111.48 156.935 111.172 156.804C110.864 156.673 110.626 156.454 110.458 156.146C110.299 155.829 110.22 155.404 110.22 154.872V150.938H108.988V149.944H110.22L110.374 148.236H111.396V149.944H113.44V150.938H111.396V154.872C111.396 155.311 111.484 155.609 111.662 155.768C111.839 155.917 112.152 155.992 112.6 155.992H113.356V157H112.264ZM121.199 159.03C120.695 158.545 120.228 157.966 119.799 157.294C119.37 156.631 119.024 155.885 118.763 155.054C118.511 154.223 118.385 153.318 118.385 152.338C118.385 151.358 118.511 150.453 118.763 149.622C119.024 148.791 119.37 148.04 119.799 147.368C120.228 146.696 120.695 146.122 121.199 145.646H122.403V145.758C121.834 146.318 121.334 146.943 120.905 147.634C120.485 148.325 120.154 149.067 119.911 149.86C119.678 150.644 119.561 151.47 119.561 152.338C119.561 153.206 119.678 154.037 119.911 154.83C120.154 155.614 120.49 156.351 120.919 157.042C121.348 157.733 121.843 158.358 122.403 158.918V159.03H121.199ZM126.449 157.168C125.768 157.168 125.171 157.009 124.657 156.692C124.144 156.365 123.747 155.922 123.467 155.362C123.187 154.802 123.047 154.167 123.047 153.458C123.047 152.749 123.187 152.119 123.467 151.568C123.747 151.008 124.144 150.569 124.657 150.252C125.18 149.935 125.782 149.776 126.463 149.776C127.042 149.776 127.546 149.893 127.975 150.126C128.414 150.359 128.75 150.686 128.983 151.106V146.92H130.159V157H129.095L128.997 155.838C128.848 156.071 128.657 156.291 128.423 156.496C128.19 156.692 127.91 156.855 127.583 156.986C127.257 157.107 126.879 157.168 126.449 157.168ZM126.589 156.146C127.056 156.146 127.467 156.034 127.821 155.81C128.176 155.586 128.451 155.278 128.647 154.886C128.843 154.485 128.941 154.013 128.941 153.472C128.941 152.94 128.843 152.473 128.647 152.072C128.451 151.671 128.176 151.358 127.821 151.134C127.467 150.91 127.056 150.798 126.589 150.798C126.132 150.798 125.726 150.91 125.371 151.134C125.017 151.358 124.741 151.671 124.545 152.072C124.349 152.473 124.251 152.94 124.251 153.472C124.251 154.013 124.349 154.485 124.545 154.886C124.741 155.278 125.017 155.586 125.371 155.81C125.726 156.034 126.132 156.146 126.589 156.146ZM132.119 157V149.944H133.183L133.267 151.288C133.425 150.971 133.626 150.7 133.869 150.476C134.121 150.252 134.419 150.079 134.765 149.958C135.119 149.837 135.521 149.776 135.969 149.776V151.008H135.535C135.236 151.008 134.951 151.05 134.681 151.134C134.41 151.209 134.167 151.335 133.953 151.512C133.747 151.689 133.584 151.932 133.463 152.24C133.351 152.539 133.295 152.912 133.295 153.36V157H132.119ZM139.596 157.168C139.027 157.168 138.551 157.07 138.168 156.874C137.786 156.669 137.501 156.403 137.314 156.076C137.128 155.74 137.034 155.376 137.034 154.984C137.034 154.508 137.156 154.107 137.398 153.78C137.65 153.444 138 153.192 138.448 153.024C138.906 152.847 139.442 152.758 140.058 152.758H141.92C141.92 152.319 141.85 151.955 141.71 151.666C141.58 151.367 141.384 151.143 141.122 150.994C140.87 150.845 140.553 150.77 140.17 150.77C139.722 150.77 139.335 150.882 139.008 151.106C138.682 151.33 138.481 151.661 138.406 152.1H137.202C137.258 151.596 137.426 151.176 137.706 150.84C137.996 150.495 138.36 150.233 138.798 150.056C139.237 149.869 139.694 149.776 140.17 149.776C140.824 149.776 141.365 149.897 141.794 150.14C142.233 150.373 142.56 150.705 142.774 151.134C142.989 151.554 143.096 152.053 143.096 152.632V157H142.046L141.976 155.754C141.883 155.95 141.762 156.137 141.612 156.314C141.472 156.482 141.304 156.631 141.108 156.762C140.912 156.883 140.688 156.981 140.436 157.056C140.194 157.131 139.914 157.168 139.596 157.168ZM139.778 156.174C140.105 156.174 140.399 156.109 140.66 155.978C140.931 155.838 141.16 155.651 141.346 155.418C141.533 155.175 141.673 154.909 141.766 154.62C141.869 154.331 141.92 154.027 141.92 153.71V153.668H140.156C139.699 153.668 139.33 153.724 139.05 153.836C138.77 153.939 138.57 154.088 138.448 154.284C138.327 154.471 138.266 154.685 138.266 154.928C138.266 155.18 138.322 155.399 138.434 155.586C138.556 155.773 138.728 155.917 138.952 156.02C139.186 156.123 139.461 156.174 139.778 156.174ZM146.207 157L144.135 149.944H145.311L146.921 155.894H146.711L148.461 149.944H149.791L151.569 155.88L151.345 155.894L152.941 149.944H154.131L152.073 157H150.869L149.021 150.784H149.259L147.411 157H146.207ZM158.291 157.168C157.628 157.168 157.04 157.014 156.527 156.706C156.023 156.398 155.626 155.969 155.337 155.418C155.047 154.858 154.903 154.209 154.903 153.472C154.903 152.725 155.043 152.077 155.323 151.526C155.612 150.975 156.013 150.546 156.527 150.238C157.049 149.93 157.647 149.776 158.319 149.776C159.009 149.776 159.593 149.93 160.069 150.238C160.554 150.546 160.923 150.952 161.175 151.456C161.436 151.951 161.567 152.497 161.567 153.094C161.567 153.187 161.567 153.285 161.567 153.388C161.567 153.491 161.562 153.607 161.553 153.738H155.785V152.828H160.419C160.391 152.184 160.176 151.68 159.775 151.316C159.383 150.952 158.888 150.77 158.291 150.77C157.889 150.77 157.516 150.863 157.171 151.05C156.835 151.227 156.564 151.493 156.359 151.848C156.153 152.193 156.051 152.627 156.051 153.15V153.542C156.051 154.121 156.153 154.606 156.359 154.998C156.573 155.39 156.849 155.684 157.185 155.88C157.53 156.076 157.899 156.174 158.291 156.174C158.785 156.174 159.191 156.067 159.509 155.852C159.835 155.628 160.069 155.329 160.209 154.956H161.371C161.259 155.376 161.063 155.754 160.783 156.09C160.503 156.426 160.153 156.692 159.733 156.888C159.322 157.075 158.841 157.168 158.291 157.168ZM163.154 157V149.944H164.218L164.302 151.288C164.46 150.971 164.661 150.7 164.904 150.476C165.156 150.252 165.454 150.079 165.8 149.958C166.154 149.837 166.556 149.776 167.004 149.776V151.008H166.57C166.271 151.008 165.986 151.05 165.716 151.134C165.445 151.209 165.202 151.335 164.988 151.512C164.782 151.689 164.619 151.932 164.498 152.24C164.386 152.539 164.33 152.912 164.33 153.36V157H163.154ZM169.091 159.03H167.887V158.918C168.457 158.358 168.951 157.733 169.371 157.042C169.801 156.351 170.132 155.614 170.365 154.83C170.608 154.037 170.729 153.206 170.729 152.338C170.729 151.47 170.608 150.644 170.365 149.86C170.132 149.067 169.801 148.325 169.371 147.634C168.951 146.943 168.457 146.318 167.887 145.758V145.646H169.091C169.605 146.122 170.071 146.696 170.491 147.368C170.921 148.04 171.261 148.791 171.513 149.622C171.775 150.453 171.905 151.358 171.905 152.338C171.905 153.318 171.775 154.223 171.513 155.054C171.261 155.885 170.921 156.631 170.491 157.294C170.071 157.966 169.605 158.545 169.091 159.03Z" fill="#171613"/>
</g>
<g filter="url(#filter1_d_1236_337)">
<rect x="63" y="192" width="130" height="44" rx="22" fill="white"/>
<path d="M96.346 219V210.166H93.42V209.2H100.448V210.166H97.522V219H96.346ZM101.828 219V208.92H103.004V213.134C103.237 212.714 103.564 212.383 103.984 212.14C104.413 211.897 104.88 211.776 105.384 211.776C105.925 211.776 106.396 211.888 106.798 212.112C107.199 212.327 107.507 212.658 107.722 213.106C107.936 213.554 108.044 214.119 108.044 214.8V219H106.882V214.926C106.882 214.217 106.732 213.685 106.434 213.33C106.135 212.966 105.701 212.784 105.132 212.784C104.73 212.784 104.366 212.882 104.04 213.078C103.722 213.274 103.47 213.554 103.284 213.918C103.097 214.282 103.004 214.73 103.004 215.262V219H101.828ZM112.974 219.168C112.312 219.168 111.724 219.014 111.21 218.706C110.706 218.398 110.31 217.969 110.02 217.418C109.731 216.858 109.586 216.209 109.586 215.472C109.586 214.725 109.726 214.077 110.006 213.526C110.296 212.975 110.697 212.546 111.21 212.238C111.733 211.93 112.33 211.776 113.002 211.776C113.693 211.776 114.276 211.93 114.752 212.238C115.238 212.546 115.606 212.952 115.858 213.456C116.12 213.951 116.25 214.497 116.25 215.094C116.25 215.187 116.25 215.285 116.25 215.388C116.25 215.491 116.246 215.607 116.236 215.738H110.468V214.828H115.102C115.074 214.184 114.86 213.68 114.458 213.316C114.066 212.952 113.572 212.77 112.974 212.77C112.573 212.77 112.2 212.863 111.854 213.05C111.518 213.227 111.248 213.493 111.042 213.848C110.837 214.193 110.734 214.627 110.734 215.15V215.542C110.734 216.121 110.837 216.606 111.042 216.998C111.257 217.39 111.532 217.684 111.868 217.88C112.214 218.076 112.582 218.174 112.974 218.174C113.469 218.174 113.875 218.067 114.192 217.852C114.519 217.628 114.752 217.329 114.892 216.956H116.054C115.942 217.376 115.746 217.754 115.466 218.09C115.186 218.426 114.836 218.692 114.416 218.888C114.006 219.075 113.525 219.168 112.974 219.168ZM124.748 219.168C124.03 219.168 123.404 219.037 122.872 218.776C122.34 218.515 121.93 218.151 121.64 217.684C121.351 217.217 121.206 216.676 121.206 216.06H122.438C122.438 216.443 122.527 216.797 122.704 217.124C122.882 217.441 123.138 217.698 123.474 217.894C123.82 218.081 124.244 218.174 124.748 218.174C125.187 218.174 125.56 218.104 125.868 217.964C126.186 217.815 126.424 217.614 126.582 217.362C126.75 217.11 126.834 216.825 126.834 216.508C126.834 216.125 126.75 215.817 126.582 215.584C126.424 215.341 126.204 215.145 125.924 214.996C125.644 214.847 125.318 214.716 124.944 214.604C124.58 214.483 124.198 214.357 123.796 214.226C123.022 213.965 122.452 213.638 122.088 213.246C121.724 212.854 121.542 212.345 121.542 211.72C121.542 211.188 121.664 210.721 121.906 210.32C122.158 209.919 122.513 209.606 122.97 209.382C123.437 209.149 123.988 209.032 124.622 209.032C125.248 209.032 125.789 209.149 126.246 209.382C126.713 209.615 127.077 209.937 127.338 210.348C127.6 210.749 127.73 211.216 127.73 211.748H126.498C126.498 211.477 126.428 211.211 126.288 210.95C126.148 210.689 125.934 210.474 125.644 210.306C125.364 210.129 125.01 210.04 124.58 210.04C124.226 210.031 123.908 210.091 123.628 210.222C123.358 210.343 123.143 210.521 122.984 210.754C122.835 210.987 122.76 211.272 122.76 211.608C122.76 211.925 122.826 212.182 122.956 212.378C123.096 212.574 123.292 212.742 123.544 212.882C123.806 213.013 124.109 213.134 124.454 213.246C124.8 213.358 125.182 213.484 125.602 213.624C126.078 213.783 126.498 213.979 126.862 214.212C127.236 214.436 127.525 214.725 127.73 215.08C127.945 215.435 128.052 215.887 128.052 216.438C128.052 216.905 127.926 217.348 127.674 217.768C127.432 218.179 127.068 218.515 126.582 218.776C126.097 219.037 125.486 219.168 124.748 219.168ZM129.677 222.08V211.944H130.741L130.839 213.092C130.989 212.868 131.18 212.658 131.413 212.462C131.647 212.257 131.927 212.093 132.253 211.972C132.58 211.841 132.953 211.776 133.373 211.776C134.064 211.776 134.661 211.939 135.165 212.266C135.679 212.593 136.075 213.036 136.355 213.596C136.645 214.147 136.789 214.777 136.789 215.486C136.789 216.195 136.645 216.83 136.355 217.39C136.075 217.941 135.679 218.375 135.165 218.692C134.652 219.009 134.05 219.168 133.359 219.168C132.79 219.168 132.286 219.051 131.847 218.818C131.418 218.585 131.087 218.258 130.853 217.838V222.08H129.677ZM133.233 218.146C133.691 218.146 134.097 218.034 134.451 217.81C134.806 217.586 135.081 217.278 135.277 216.886C135.483 216.485 135.585 216.013 135.585 215.472C135.585 214.94 135.483 214.473 135.277 214.072C135.081 213.671 134.806 213.358 134.451 213.134C134.097 212.91 133.691 212.798 133.233 212.798C132.767 212.798 132.356 212.91 132.001 213.134C131.647 213.358 131.371 213.671 131.175 214.072C130.979 214.473 130.881 214.94 130.881 215.472C130.881 216.013 130.979 216.485 131.175 216.886C131.371 217.278 131.647 217.586 132.001 217.81C132.356 218.034 132.767 218.146 133.233 218.146ZM140.737 219.168C140.168 219.168 139.692 219.07 139.309 218.874C138.926 218.669 138.642 218.403 138.455 218.076C138.268 217.74 138.175 217.376 138.175 216.984C138.175 216.508 138.296 216.107 138.539 215.78C138.791 215.444 139.141 215.192 139.589 215.024C140.046 214.847 140.583 214.758 141.199 214.758H143.061C143.061 214.319 142.991 213.955 142.851 213.666C142.72 213.367 142.524 213.143 142.263 212.994C142.011 212.845 141.694 212.77 141.311 212.77C140.863 212.77 140.476 212.882 140.149 213.106C139.822 213.33 139.622 213.661 139.547 214.1H138.343C138.399 213.596 138.567 213.176 138.847 212.84C139.136 212.495 139.5 212.233 139.939 212.056C140.378 211.869 140.835 211.776 141.311 211.776C141.964 211.776 142.506 211.897 142.935 212.14C143.374 212.373 143.7 212.705 143.915 213.134C144.13 213.554 144.237 214.053 144.237 214.632V219H143.187L143.117 217.754C143.024 217.95 142.902 218.137 142.753 218.314C142.613 218.482 142.445 218.631 142.249 218.762C142.053 218.883 141.829 218.981 141.577 219.056C141.334 219.131 141.054 219.168 140.737 219.168ZM140.919 218.174C141.246 218.174 141.54 218.109 141.801 217.978C142.072 217.838 142.3 217.651 142.487 217.418C142.674 217.175 142.814 216.909 142.907 216.62C143.01 216.331 143.061 216.027 143.061 215.71V215.668H141.297C140.84 215.668 140.471 215.724 140.191 215.836C139.911 215.939 139.71 216.088 139.589 216.284C139.468 216.471 139.407 216.685 139.407 216.928C139.407 217.18 139.463 217.399 139.575 217.586C139.696 217.773 139.869 217.917 140.093 218.02C140.326 218.123 140.602 218.174 140.919 218.174ZM149.234 219.168C148.572 219.168 147.974 219.014 147.442 218.706C146.92 218.398 146.509 217.969 146.21 217.418C145.912 216.858 145.762 216.214 145.762 215.486C145.762 214.739 145.912 214.091 146.21 213.54C146.509 212.989 146.92 212.56 147.442 212.252C147.974 211.935 148.572 211.776 149.234 211.776C150.074 211.776 150.774 211.995 151.334 212.434C151.894 212.863 152.249 213.442 152.398 214.17H151.194C151.101 213.731 150.872 213.391 150.508 213.148C150.144 212.905 149.715 212.784 149.22 212.784C148.819 212.784 148.446 212.887 148.1 213.092C147.755 213.288 147.48 213.587 147.274 213.988C147.069 214.389 146.966 214.884 146.966 215.472C146.966 215.911 147.027 216.303 147.148 216.648C147.27 216.984 147.433 217.264 147.638 217.488C147.844 217.712 148.082 217.885 148.352 218.006C148.632 218.118 148.922 218.174 149.22 218.174C149.556 218.174 149.86 218.123 150.13 218.02C150.401 217.908 150.63 217.745 150.816 217.53C151.003 217.315 151.129 217.063 151.194 216.774H152.398C152.249 217.483 151.89 218.062 151.32 218.51C150.76 218.949 150.065 219.168 149.234 219.168ZM157.162 219.168C156.499 219.168 155.911 219.014 155.398 218.706C154.894 218.398 154.497 217.969 154.208 217.418C153.919 216.858 153.774 216.209 153.774 215.472C153.774 214.725 153.914 214.077 154.194 213.526C154.483 212.975 154.885 212.546 155.398 212.238C155.921 211.93 156.518 211.776 157.19 211.776C157.881 211.776 158.464 211.93 158.94 212.238C159.425 212.546 159.794 212.952 160.046 213.456C160.307 213.951 160.438 214.497 160.438 215.094C160.438 215.187 160.438 215.285 160.438 215.388C160.438 215.491 160.433 215.607 160.424 215.738H154.656V214.828H159.29C159.262 214.184 159.047 213.68 158.646 213.316C158.254 212.952 157.759 212.77 157.162 212.77C156.761 212.77 156.387 212.863 156.042 213.05C155.706 213.227 155.435 213.493 155.23 213.848C155.025 214.193 154.922 214.627 154.922 215.15V215.542C154.922 216.121 155.025 216.606 155.23 216.998C155.445 217.39 155.72 217.684 156.056 217.88C156.401 218.076 156.77 218.174 157.162 218.174C157.657 218.174 158.063 218.067 158.38 217.852C158.707 217.628 158.94 217.329 159.08 216.956H160.242C160.13 217.376 159.934 217.754 159.654 218.09C159.374 218.426 159.024 218.692 158.604 218.888C158.193 219.075 157.713 219.168 157.162 219.168Z" fill="#171613"/>
</g>
<g filter="url(#filter2_d_1236_337)">
<rect x="63" y="254" width="130" height="44" rx="22" fill="white"/>
<path d="M94.05 281V271.2H95.226L100.448 279.054V271.2H101.624V281H100.448L95.226 273.146V281H94.05ZM108.098 281.168C107.155 281.168 106.324 280.958 105.606 280.538C104.896 280.109 104.341 279.516 103.94 278.76C103.548 277.995 103.352 277.108 103.352 276.1C103.352 275.101 103.548 274.224 103.94 273.468C104.341 272.703 104.896 272.105 105.606 271.676C106.324 271.247 107.155 271.032 108.098 271.032C109.059 271.032 109.894 271.247 110.604 271.676C111.313 272.105 111.864 272.703 112.256 273.468C112.657 274.224 112.858 275.101 112.858 276.1C112.858 277.108 112.657 277.995 112.256 278.76C111.864 279.516 111.313 280.109 110.604 280.538C109.894 280.958 109.059 281.168 108.098 281.168ZM108.098 280.132C108.807 280.132 109.428 279.973 109.96 279.656C110.501 279.329 110.916 278.867 111.206 278.27C111.504 277.663 111.654 276.94 111.654 276.1C111.654 275.26 111.504 274.541 111.206 273.944C110.916 273.337 110.501 272.875 109.96 272.558C109.428 272.241 108.807 272.082 108.098 272.082C107.398 272.082 106.777 272.241 106.236 272.558C105.704 272.875 105.288 273.337 104.99 273.944C104.7 274.541 104.556 275.26 104.556 276.1C104.556 276.94 104.7 277.663 104.99 278.27C105.288 278.867 105.704 279.329 106.236 279.656C106.777 279.973 107.398 280.132 108.098 280.132ZM116.232 281L113.544 271.2H114.804L116.918 279.6L119.312 271.2H120.628L122.966 279.628L125.108 271.2H126.368L123.624 281H122.28L119.942 272.894L117.548 281H116.232ZM134.424 281L130.742 271.2H132.016L135.11 279.754L138.232 271.2H139.478L135.796 281H134.424ZM140.891 281V273.944H142.067V281H140.891ZM141.479 272.446C141.245 272.446 141.049 272.371 140.891 272.222C140.741 272.063 140.667 271.867 140.667 271.634C140.667 271.401 140.741 271.214 140.891 271.074C141.049 270.925 141.245 270.85 141.479 270.85C141.703 270.85 141.894 270.925 142.053 271.074C142.211 271.214 142.291 271.401 142.291 271.634C142.291 271.867 142.211 272.063 142.053 272.222C141.894 272.371 141.703 272.446 141.479 272.446ZM147.236 281.168C146.573 281.168 145.985 281.014 145.472 280.706C144.968 280.398 144.571 279.969 144.282 279.418C143.993 278.858 143.848 278.209 143.848 277.472C143.848 276.725 143.988 276.077 144.268 275.526C144.557 274.975 144.959 274.546 145.472 274.238C145.995 273.93 146.592 273.776 147.264 273.776C147.955 273.776 148.538 273.93 149.014 274.238C149.499 274.546 149.868 274.952 150.12 275.456C150.381 275.951 150.512 276.497 150.512 277.094C150.512 277.187 150.512 277.285 150.512 277.388C150.512 277.491 150.507 277.607 150.498 277.738H144.73V276.828H149.364C149.336 276.184 149.121 275.68 148.72 275.316C148.328 274.952 147.833 274.77 147.236 274.77C146.835 274.77 146.461 274.863 146.116 275.05C145.78 275.227 145.509 275.493 145.304 275.848C145.099 276.193 144.996 276.627 144.996 277.15V277.542C144.996 278.121 145.099 278.606 145.304 278.998C145.519 279.39 145.794 279.684 146.13 279.88C146.475 280.076 146.844 280.174 147.236 280.174C147.731 280.174 148.137 280.067 148.454 279.852C148.781 279.628 149.014 279.329 149.154 278.956H150.316C150.204 279.376 150.008 279.754 149.728 280.09C149.448 280.426 149.098 280.692 148.678 280.888C148.267 281.075 147.787 281.168 147.236 281.168ZM153.254 281L151.182 273.944H152.358L153.968 279.894H153.758L155.508 273.944H156.838L158.616 279.88L158.392 279.894L159.988 273.944H161.178L159.12 281H157.916L156.068 274.784H156.306L154.458 281H153.254Z" fill="#171613"/>
</g>
<g filter="url(#filter3_d_1236_337)">
<rect x="323" y="130" width="130" height="44" rx="22" fill="white"/>
<path d="M348.306 157.168C347.354 157.168 346.528 156.958 345.828 156.538C345.137 156.109 344.605 155.516 344.232 154.76C343.859 153.995 343.672 153.108 343.672 152.1C343.672 151.092 343.859 150.21 344.232 149.454C344.605 148.689 345.137 148.096 345.828 147.676C346.528 147.247 347.354 147.032 348.306 147.032C349.426 147.032 350.336 147.298 351.036 147.83C351.736 148.362 352.184 149.113 352.38 150.084H351.078C350.929 149.477 350.625 148.992 350.168 148.628C349.711 148.255 349.09 148.068 348.306 148.068C347.606 148.068 346.999 148.231 346.486 148.558C345.973 148.875 345.576 149.337 345.296 149.944C345.016 150.541 344.876 151.26 344.876 152.1C344.876 152.94 345.016 153.663 345.296 154.27C345.576 154.867 345.973 155.329 346.486 155.656C346.999 155.973 347.606 156.132 348.306 156.132C349.09 156.132 349.711 155.955 350.168 155.6C350.625 155.236 350.929 154.755 351.078 154.158H352.38C352.184 155.101 351.736 155.838 351.036 156.37C350.336 156.902 349.426 157.168 348.306 157.168ZM354.015 157V146.92H355.191V151.134C355.424 150.714 355.751 150.383 356.171 150.14C356.6 149.897 357.067 149.776 357.571 149.776C358.112 149.776 358.584 149.888 358.985 150.112C359.386 150.327 359.694 150.658 359.909 151.106C360.124 151.554 360.231 152.119 360.231 152.8V157H359.069V152.926C359.069 152.217 358.92 151.685 358.621 151.33C358.322 150.966 357.888 150.784 357.319 150.784C356.918 150.784 356.554 150.882 356.227 151.078C355.91 151.274 355.658 151.554 355.471 151.918C355.284 152.282 355.191 152.73 355.191 153.262V157H354.015ZM364.364 157.168C363.795 157.168 363.319 157.07 362.936 156.874C362.553 156.669 362.269 156.403 362.082 156.076C361.895 155.74 361.802 155.376 361.802 154.984C361.802 154.508 361.923 154.107 362.166 153.78C362.418 153.444 362.768 153.192 363.216 153.024C363.673 152.847 364.21 152.758 364.826 152.758H366.688C366.688 152.319 366.618 151.955 366.478 151.666C366.347 151.367 366.151 151.143 365.89 150.994C365.638 150.845 365.321 150.77 364.938 150.77C364.49 150.77 364.103 150.882 363.776 151.106C363.449 151.33 363.249 151.661 363.174 152.1H361.97C362.026 151.596 362.194 151.176 362.474 150.84C362.763 150.495 363.127 150.233 363.566 150.056C364.005 149.869 364.462 149.776 364.938 149.776C365.591 149.776 366.133 149.897 366.562 150.14C367.001 150.373 367.327 150.705 367.542 151.134C367.757 151.554 367.864 152.053 367.864 152.632V157H366.814L366.744 155.754C366.651 155.95 366.529 156.137 366.38 156.314C366.24 156.482 366.072 156.631 365.876 156.762C365.68 156.883 365.456 156.981 365.204 157.056C364.961 157.131 364.681 157.168 364.364 157.168ZM364.546 156.174C364.873 156.174 365.167 156.109 365.428 155.978C365.699 155.838 365.927 155.651 366.114 155.418C366.301 155.175 366.441 154.909 366.534 154.62C366.637 154.331 366.688 154.027 366.688 153.71V153.668H364.924C364.467 153.668 364.098 153.724 363.818 153.836C363.538 153.939 363.337 154.088 363.216 154.284C363.095 154.471 363.034 154.685 363.034 154.928C363.034 155.18 363.09 155.399 363.202 155.586C363.323 155.773 363.496 155.917 363.72 156.02C363.953 156.123 364.229 156.174 364.546 156.174ZM372.264 157C371.844 157 371.48 156.935 371.172 156.804C370.864 156.673 370.626 156.454 370.458 156.146C370.299 155.829 370.22 155.404 370.22 154.872V150.938H368.988V149.944H370.22L370.374 148.236H371.396V149.944H373.44V150.938H371.396V154.872C371.396 155.311 371.484 155.609 371.662 155.768C371.839 155.917 372.152 155.992 372.6 155.992H373.356V157H372.264ZM381.199 159.03C380.695 158.545 380.228 157.966 379.799 157.294C379.37 156.631 379.024 155.885 378.763 155.054C378.511 154.223 378.385 153.318 378.385 152.338C378.385 151.358 378.511 150.453 378.763 149.622C379.024 148.791 379.37 148.04 379.799 147.368C380.228 146.696 380.695 146.122 381.199 145.646H382.403V145.758C381.834 146.318 381.334 146.943 380.905 147.634C380.485 148.325 380.154 149.067 379.911 149.86C379.678 150.644 379.561 151.47 379.561 152.338C379.561 153.206 379.678 154.037 379.911 154.83C380.154 155.614 380.49 156.351 380.919 157.042C381.348 157.733 381.843 158.358 382.403 158.918V159.03H381.199ZM386.449 157.168C385.768 157.168 385.171 157.009 384.657 156.692C384.144 156.365 383.747 155.922 383.467 155.362C383.187 154.802 383.047 154.167 383.047 153.458C383.047 152.749 383.187 152.119 383.467 151.568C383.747 151.008 384.144 150.569 384.657 150.252C385.18 149.935 385.782 149.776 386.463 149.776C387.042 149.776 387.546 149.893 387.975 150.126C388.414 150.359 388.75 150.686 388.983 151.106V146.92H390.159V157H389.095L388.997 155.838C388.848 156.071 388.657 156.291 388.423 156.496C388.19 156.692 387.91 156.855 387.583 156.986C387.257 157.107 386.879 157.168 386.449 157.168ZM386.589 156.146C387.056 156.146 387.467 156.034 387.821 155.81C388.176 155.586 388.451 155.278 388.647 154.886C388.843 154.485 388.941 154.013 388.941 153.472C388.941 152.94 388.843 152.473 388.647 152.072C388.451 151.671 388.176 151.358 387.821 151.134C387.467 150.91 387.056 150.798 386.589 150.798C386.132 150.798 385.726 150.91 385.371 151.134C385.017 151.358 384.741 151.671 384.545 152.072C384.349 152.473 384.251 152.94 384.251 153.472C384.251 154.013 384.349 154.485 384.545 154.886C384.741 155.278 385.017 155.586 385.371 155.81C385.726 156.034 386.132 156.146 386.589 156.146ZM392.119 157V149.944H393.183L393.267 151.288C393.425 150.971 393.626 150.7 393.869 150.476C394.121 150.252 394.419 150.079 394.765 149.958C395.119 149.837 395.521 149.776 395.969 149.776V151.008H395.535C395.236 151.008 394.951 151.05 394.681 151.134C394.41 151.209 394.167 151.335 393.953 151.512C393.747 151.689 393.584 151.932 393.463 152.24C393.351 152.539 393.295 152.912 393.295 153.36V157H392.119ZM399.596 157.168C399.027 157.168 398.551 157.07 398.168 156.874C397.786 156.669 397.501 156.403 397.314 156.076C397.128 155.74 397.034 155.376 397.034 154.984C397.034 154.508 397.156 154.107 397.398 153.78C397.65 153.444 398 153.192 398.448 153.024C398.906 152.847 399.442 152.758 400.058 152.758H401.92C401.92 152.319 401.85 151.955 401.71 151.666C401.58 151.367 401.384 151.143 401.122 150.994C400.87 150.845 400.553 150.77 400.17 150.77C399.722 150.77 399.335 150.882 399.008 151.106C398.682 151.33 398.481 151.661 398.406 152.1H397.202C397.258 151.596 397.426 151.176 397.706 150.84C397.996 150.495 398.36 150.233 398.798 150.056C399.237 149.869 399.694 149.776 400.17 149.776C400.824 149.776 401.365 149.897 401.794 150.14C402.233 150.373 402.56 150.705 402.774 151.134C402.989 151.554 403.096 152.053 403.096 152.632V157H402.046L401.976 155.754C401.883 155.95 401.762 156.137 401.612 156.314C401.472 156.482 401.304 156.631 401.108 156.762C400.912 156.883 400.688 156.981 400.436 157.056C400.194 157.131 399.914 157.168 399.596 157.168ZM399.778 156.174C400.105 156.174 400.399 156.109 400.66 155.978C400.931 155.838 401.16 155.651 401.346 155.418C401.533 155.175 401.673 154.909 401.766 154.62C401.869 154.331 401.92 154.027 401.92 153.71V153.668H400.156C399.699 153.668 399.33 153.724 399.05 153.836C398.77 153.939 398.57 154.088 398.448 154.284C398.327 154.471 398.266 154.685 398.266 154.928C398.266 155.18 398.322 155.399 398.434 155.586C398.556 155.773 398.728 155.917 398.952 156.02C399.186 156.123 399.461 156.174 399.778 156.174ZM406.207 157L404.135 149.944H405.311L406.921 155.894H406.711L408.461 149.944H409.791L411.569 155.88L411.345 155.894L412.941 149.944H414.131L412.073 157H410.869L409.021 150.784H409.259L407.411 157H406.207ZM418.291 157.168C417.628 157.168 417.04 157.014 416.527 156.706C416.023 156.398 415.626 155.969 415.337 155.418C415.047 154.858 414.903 154.209 414.903 153.472C414.903 152.725 415.043 152.077 415.323 151.526C415.612 150.975 416.013 150.546 416.527 150.238C417.049 149.93 417.647 149.776 418.319 149.776C419.009 149.776 419.593 149.93 420.069 150.238C420.554 150.546 420.923 150.952 421.175 151.456C421.436 151.951 421.567 152.497 421.567 153.094C421.567 153.187 421.567 153.285 421.567 153.388C421.567 153.491 421.562 153.607 421.553 153.738H415.785V152.828H420.419C420.391 152.184 420.176 151.68 419.775 151.316C419.383 150.952 418.888 150.77 418.291 150.77C417.889 150.77 417.516 150.863 417.171 151.05C416.835 151.227 416.564 151.493 416.359 151.848C416.153 152.193 416.051 152.627 416.051 153.15V153.542C416.051 154.121 416.153 154.606 416.359 154.998C416.573 155.39 416.849 155.684 417.185 155.88C417.53 156.076 417.899 156.174 418.291 156.174C418.785 156.174 419.191 156.067 419.509 155.852C419.835 155.628 420.069 155.329 420.209 154.956H421.371C421.259 155.376 421.063 155.754 420.783 156.09C420.503 156.426 420.153 156.692 419.733 156.888C419.322 157.075 418.841 157.168 418.291 157.168ZM423.154 157V149.944H424.218L424.302 151.288C424.46 150.971 424.661 150.7 424.904 150.476C425.156 150.252 425.454 150.079 425.8 149.958C426.154 149.837 426.556 149.776 427.004 149.776V151.008H426.57C426.271 151.008 425.986 151.05 425.716 151.134C425.445 151.209 425.202 151.335 424.988 151.512C424.782 151.689 424.619 151.932 424.498 152.24C424.386 152.539 424.33 152.912 424.33 153.36V157H423.154ZM429.091 159.03H427.887V158.918C428.457 158.358 428.951 157.733 429.371 157.042C429.801 156.351 430.132 155.614 430.365 154.83C430.608 154.037 430.729 153.206 430.729 152.338C430.729 151.47 430.608 150.644 430.365 149.86C430.132 149.067 429.801 148.325 429.371 147.634C428.951 146.943 428.457 146.318 427.887 145.758V145.646H429.091C429.605 146.122 430.071 146.696 430.491 147.368C430.921 148.04 431.261 148.791 431.513 149.622C431.775 150.453 431.905 151.358 431.905 152.338C431.905 153.318 431.775 154.223 431.513 155.054C431.261 155.885 430.921 156.631 430.491 157.294C430.071 157.966 429.605 158.545 429.091 159.03Z" fill="#171613"/>
</g>
<g filter="url(#filter4_d_1236_337)">
<rect x="323" y="192" width="130" height="44" rx="22" fill="white"/>
<path d="M356.346 219V210.166H353.42V209.2H360.448V210.166H357.522V219H356.346ZM361.828 219V208.92H363.004V213.134C363.237 212.714 363.564 212.383 363.984 212.14C364.413 211.897 364.88 211.776 365.384 211.776C365.925 211.776 366.396 211.888 366.798 212.112C367.199 212.327 367.507 212.658 367.722 213.106C367.936 213.554 368.044 214.119 368.044 214.8V219H366.882V214.926C366.882 214.217 366.732 213.685 366.434 213.33C366.135 212.966 365.701 212.784 365.132 212.784C364.73 212.784 364.366 212.882 364.04 213.078C363.722 213.274 363.47 213.554 363.284 213.918C363.097 214.282 363.004 214.73 363.004 215.262V219H361.828ZM372.974 219.168C372.312 219.168 371.724 219.014 371.21 218.706C370.706 218.398 370.31 217.969 370.02 217.418C369.731 216.858 369.586 216.209 369.586 215.472C369.586 214.725 369.726 214.077 370.006 213.526C370.296 212.975 370.697 212.546 371.21 212.238C371.733 211.93 372.33 211.776 373.002 211.776C373.693 211.776 374.276 211.93 374.752 212.238C375.238 212.546 375.606 212.952 375.858 213.456C376.12 213.951 376.25 214.497 376.25 215.094C376.25 215.187 376.25 215.285 376.25 215.388C376.25 215.491 376.246 215.607 376.236 215.738H370.468V214.828H375.102C375.074 214.184 374.86 213.68 374.458 213.316C374.066 212.952 373.572 212.77 372.974 212.77C372.573 212.77 372.2 212.863 371.854 213.05C371.518 213.227 371.248 213.493 371.042 213.848C370.837 214.193 370.734 214.627 370.734 215.15V215.542C370.734 216.121 370.837 216.606 371.042 216.998C371.257 217.39 371.532 217.684 371.868 217.88C372.214 218.076 372.582 218.174 372.974 218.174C373.469 218.174 373.875 218.067 374.192 217.852C374.519 217.628 374.752 217.329 374.892 216.956H376.054C375.942 217.376 375.746 217.754 375.466 218.09C375.186 218.426 374.836 218.692 374.416 218.888C374.006 219.075 373.525 219.168 372.974 219.168ZM384.748 219.168C384.03 219.168 383.404 219.037 382.872 218.776C382.34 218.515 381.93 218.151 381.64 217.684C381.351 217.217 381.206 216.676 381.206 216.06H382.438C382.438 216.443 382.527 216.797 382.704 217.124C382.882 217.441 383.138 217.698 383.474 217.894C383.82 218.081 384.244 218.174 384.748 218.174C385.187 218.174 385.56 218.104 385.868 217.964C386.186 217.815 386.424 217.614 386.582 217.362C386.75 217.11 386.834 216.825 386.834 216.508C386.834 216.125 386.75 215.817 386.582 215.584C386.424 215.341 386.204 215.145 385.924 214.996C385.644 214.847 385.318 214.716 384.944 214.604C384.58 214.483 384.198 214.357 383.796 214.226C383.022 213.965 382.452 213.638 382.088 213.246C381.724 212.854 381.542 212.345 381.542 211.72C381.542 211.188 381.664 210.721 381.906 210.32C382.158 209.919 382.513 209.606 382.97 209.382C383.437 209.149 383.988 209.032 384.622 209.032C385.248 209.032 385.789 209.149 386.246 209.382C386.713 209.615 387.077 209.937 387.338 210.348C387.6 210.749 387.73 211.216 387.73 211.748H386.498C386.498 211.477 386.428 211.211 386.288 210.95C386.148 210.689 385.934 210.474 385.644 210.306C385.364 210.129 385.01 210.04 384.58 210.04C384.226 210.031 383.908 210.091 383.628 210.222C383.358 210.343 383.143 210.521 382.984 210.754C382.835 210.987 382.76 211.272 382.76 211.608C382.76 211.925 382.826 212.182 382.956 212.378C383.096 212.574 383.292 212.742 383.544 212.882C383.806 213.013 384.109 213.134 384.454 213.246C384.8 213.358 385.182 213.484 385.602 213.624C386.078 213.783 386.498 213.979 386.862 214.212C387.236 214.436 387.525 214.725 387.73 215.08C387.945 215.435 388.052 215.887 388.052 216.438C388.052 216.905 387.926 217.348 387.674 217.768C387.432 218.179 387.068 218.515 386.582 218.776C386.097 219.037 385.486 219.168 384.748 219.168ZM389.677 222.08V211.944H390.741L390.839 213.092C390.989 212.868 391.18 212.658 391.413 212.462C391.647 212.257 391.927 212.093 392.253 211.972C392.58 211.841 392.953 211.776 393.373 211.776C394.064 211.776 394.661 211.939 395.165 212.266C395.679 212.593 396.075 213.036 396.355 213.596C396.645 214.147 396.789 214.777 396.789 215.486C396.789 216.195 396.645 216.83 396.355 217.39C396.075 217.941 395.679 218.375 395.165 218.692C394.652 219.009 394.05 219.168 393.359 219.168C392.79 219.168 392.286 219.051 391.847 218.818C391.418 218.585 391.087 218.258 390.853 217.838V222.08H389.677ZM393.233 218.146C393.691 218.146 394.097 218.034 394.451 217.81C394.806 217.586 395.081 217.278 395.277 216.886C395.483 216.485 395.585 216.013 395.585 215.472C395.585 214.94 395.483 214.473 395.277 214.072C395.081 213.671 394.806 213.358 394.451 213.134C394.097 212.91 393.691 212.798 393.233 212.798C392.767 212.798 392.356 212.91 392.001 213.134C391.647 213.358 391.371 213.671 391.175 214.072C390.979 214.473 390.881 214.94 390.881 215.472C390.881 216.013 390.979 216.485 391.175 216.886C391.371 217.278 391.647 217.586 392.001 217.81C392.356 218.034 392.767 218.146 393.233 218.146ZM400.737 219.168C400.168 219.168 399.692 219.07 399.309 218.874C398.926 218.669 398.642 218.403 398.455 218.076C398.268 217.74 398.175 217.376 398.175 216.984C398.175 216.508 398.296 216.107 398.539 215.78C398.791 215.444 399.141 215.192 399.589 215.024C400.046 214.847 400.583 214.758 401.199 214.758H403.061C403.061 214.319 402.991 213.955 402.851 213.666C402.72 213.367 402.524 213.143 402.263 212.994C402.011 212.845 401.694 212.77 401.311 212.77C400.863 212.77 400.476 212.882 400.149 213.106C399.822 213.33 399.622 213.661 399.547 214.1H398.343C398.399 213.596 398.567 213.176 398.847 212.84C399.136 212.495 399.5 212.233 399.939 212.056C400.378 211.869 400.835 211.776 401.311 211.776C401.964 211.776 402.506 211.897 402.935 212.14C403.374 212.373 403.7 212.705 403.915 213.134C404.13 213.554 404.237 214.053 404.237 214.632V219H403.187L403.117 217.754C403.024 217.95 402.902 218.137 402.753 218.314C402.613 218.482 402.445 218.631 402.249 218.762C402.053 218.883 401.829 218.981 401.577 219.056C401.334 219.131 401.054 219.168 400.737 219.168ZM400.919 218.174C401.246 218.174 401.54 218.109 401.801 217.978C402.072 217.838 402.3 217.651 402.487 217.418C402.674 217.175 402.814 216.909 402.907 216.62C403.01 216.331 403.061 216.027 403.061 215.71V215.668H401.297C400.84 215.668 400.471 215.724 400.191 215.836C399.911 215.939 399.71 216.088 399.589 216.284C399.468 216.471 399.407 216.685 399.407 216.928C399.407 217.18 399.463 217.399 399.575 217.586C399.696 217.773 399.869 217.917 400.093 218.02C400.326 218.123 400.602 218.174 400.919 218.174ZM409.234 219.168C408.572 219.168 407.974 219.014 407.442 218.706C406.92 218.398 406.509 217.969 406.21 217.418C405.912 216.858 405.762 216.214 405.762 215.486C405.762 214.739 405.912 214.091 406.21 213.54C406.509 212.989 406.92 212.56 407.442 212.252C407.974 211.935 408.572 211.776 409.234 211.776C410.074 211.776 410.774 211.995 411.334 212.434C411.894 212.863 412.249 213.442 412.398 214.17H411.194C411.101 213.731 410.872 213.391 410.508 213.148C410.144 212.905 409.715 212.784 409.22 212.784C408.819 212.784 408.446 212.887 408.1 213.092C407.755 213.288 407.48 213.587 407.274 213.988C407.069 214.389 406.966 214.884 406.966 215.472C406.966 215.911 407.027 216.303 407.148 216.648C407.27 216.984 407.433 217.264 407.638 217.488C407.844 217.712 408.082 217.885 408.352 218.006C408.632 218.118 408.922 218.174 409.22 218.174C409.556 218.174 409.86 218.123 410.13 218.02C410.401 217.908 410.63 217.745 410.816 217.53C411.003 217.315 411.129 217.063 411.194 216.774H412.398C412.249 217.483 411.89 218.062 411.32 218.51C410.76 218.949 410.065 219.168 409.234 219.168ZM417.162 219.168C416.499 219.168 415.911 219.014 415.398 218.706C414.894 218.398 414.497 217.969 414.208 217.418C413.919 216.858 413.774 216.209 413.774 215.472C413.774 214.725 413.914 214.077 414.194 213.526C414.483 212.975 414.885 212.546 415.398 212.238C415.921 211.93 416.518 211.776 417.19 211.776C417.881 211.776 418.464 211.93 418.94 212.238C419.425 212.546 419.794 212.952 420.046 213.456C420.307 213.951 420.438 214.497 420.438 215.094C420.438 215.187 420.438 215.285 420.438 215.388C420.438 215.491 420.433 215.607 420.424 215.738H414.656V214.828H419.29C419.262 214.184 419.047 213.68 418.646 213.316C418.254 212.952 417.759 212.77 417.162 212.77C416.761 212.77 416.387 212.863 416.042 213.05C415.706 213.227 415.435 213.493 415.23 213.848C415.025 214.193 414.922 214.627 414.922 215.15V215.542C414.922 216.121 415.025 216.606 415.23 216.998C415.445 217.39 415.72 217.684 416.056 217.88C416.401 218.076 416.77 218.174 417.162 218.174C417.657 218.174 418.063 218.067 418.38 217.852C418.707 217.628 418.94 217.329 419.08 216.956H420.242C420.13 217.376 419.934 217.754 419.654 218.09C419.374 218.426 419.024 218.692 418.604 218.888C418.193 219.075 417.713 219.168 417.162 219.168Z" fill="#171613"/>
</g>
<g filter="url(#filter5_d_1236_337)">
<rect x="323.5" y="254.5" width="129" height="43" rx="21.5" stroke="#D4D0C5"/>
<path d="M354.05 281V271.2H355.226L360.448 279.054V271.2H361.624V281H360.448L355.226 273.146V281H354.05ZM368.098 281.168C367.155 281.168 366.324 280.958 365.606 280.538C364.896 280.109 364.341 279.516 363.94 278.76C363.548 277.995 363.352 277.108 363.352 276.1C363.352 275.101 363.548 274.224 363.94 273.468C364.341 272.703 364.896 272.105 365.606 271.676C366.324 271.247 367.155 271.032 368.098 271.032C369.059 271.032 369.894 271.247 370.604 271.676C371.313 272.105 371.864 272.703 372.256 273.468C372.657 274.224 372.858 275.101 372.858 276.1C372.858 277.108 372.657 277.995 372.256 278.76C371.864 279.516 371.313 280.109 370.604 280.538C369.894 280.958 369.059 281.168 368.098 281.168ZM368.098 280.132C368.807 280.132 369.428 279.973 369.96 279.656C370.501 279.329 370.916 278.867 371.206 278.27C371.504 277.663 371.654 276.94 371.654 276.1C371.654 275.26 371.504 274.541 371.206 273.944C370.916 273.337 370.501 272.875 369.96 272.558C369.428 272.241 368.807 272.082 368.098 272.082C367.398 272.082 366.777 272.241 366.236 272.558C365.704 272.875 365.288 273.337 364.99 273.944C364.7 274.541 364.556 275.26 364.556 276.1C364.556 276.94 364.7 277.663 364.99 278.27C365.288 278.867 365.704 279.329 366.236 279.656C366.777 279.973 367.398 280.132 368.098 280.132ZM376.232 281L373.544 271.2H374.804L376.918 279.6L379.312 271.2H380.628L382.966 279.628L385.108 271.2H386.368L383.624 281H382.28L379.942 272.894L377.548 281H376.232ZM394.424 281L390.742 271.2H392.016L395.11 279.754L398.232 271.2H399.478L395.796 281H394.424ZM400.891 281V273.944H402.067V281H400.891ZM401.479 272.446C401.245 272.446 401.049 272.371 400.891 272.222C400.741 272.063 400.667 271.867 400.667 271.634C400.667 271.401 400.741 271.214 400.891 271.074C401.049 270.925 401.245 270.85 401.479 270.85C401.703 270.85 401.894 270.925 402.053 271.074C402.211 271.214 402.291 271.401 402.291 271.634C402.291 271.867 402.211 272.063 402.053 272.222C401.894 272.371 401.703 272.446 401.479 272.446ZM407.236 281.168C406.573 281.168 405.985 281.014 405.472 280.706C404.968 280.398 404.571 279.969 404.282 279.418C403.993 278.858 403.848 278.209 403.848 277.472C403.848 276.725 403.988 276.077 404.268 275.526C404.557 274.975 404.959 274.546 405.472 274.238C405.995 273.93 406.592 273.776 407.264 273.776C407.955 273.776 408.538 273.93 409.014 274.238C409.499 274.546 409.868 274.952 410.12 275.456C410.381 275.951 410.512 276.497 410.512 277.094C410.512 277.187 410.512 277.285 410.512 277.388C410.512 277.491 410.507 277.607 410.498 277.738H404.73V276.828H409.364C409.336 276.184 409.121 275.68 408.72 275.316C408.328 274.952 407.833 274.77 407.236 274.77C406.835 274.77 406.461 274.863 406.116 275.05C405.78 275.227 405.509 275.493 405.304 275.848C405.099 276.193 404.996 276.627 404.996 277.15V277.542C404.996 278.121 405.099 278.606 405.304 278.998C405.519 279.39 405.794 279.684 406.13 279.88C406.475 280.076 406.844 280.174 407.236 280.174C407.731 280.174 408.137 280.067 408.454 279.852C408.781 279.628 409.014 279.329 409.154 278.956H410.316C410.204 279.376 410.008 279.754 409.728 280.09C409.448 280.426 409.098 280.692 408.678 280.888C408.267 281.075 407.787 281.168 407.236 281.168ZM413.254 281L411.182 273.944H412.358L413.968 279.894H413.758L415.508 273.944H416.838L418.616 279.88L418.392 279.894L419.988 273.944H421.178L419.12 281H417.916L416.068 274.784H416.306L414.458 281H413.254Z" fill="#9A968B"/>
<path d="M353 276.758H421.528V277.458H353V276.758Z" fill="#9A968B"/>
</g>
<g filter="url(#filter6_d_1236_337)">
<rect x="583" y="130" width="130" height="44" rx="22" fill="#DFFF37"/>
<path d="M608.306 157.168C607.354 157.168 606.528 156.958 605.828 156.538C605.137 156.109 604.605 155.516 604.232 154.76C603.859 153.995 603.672 153.108 603.672 152.1C603.672 151.092 603.859 150.21 604.232 149.454C604.605 148.689 605.137 148.096 605.828 147.676C606.528 147.247 607.354 147.032 608.306 147.032C609.426 147.032 610.336 147.298 611.036 147.83C611.736 148.362 612.184 149.113 612.38 150.084H611.078C610.929 149.477 610.625 148.992 610.168 148.628C609.711 148.255 609.09 148.068 608.306 148.068C607.606 148.068 606.999 148.231 606.486 148.558C605.973 148.875 605.576 149.337 605.296 149.944C605.016 150.541 604.876 151.26 604.876 152.1C604.876 152.94 605.016 153.663 605.296 154.27C605.576 154.867 605.973 155.329 606.486 155.656C606.999 155.973 607.606 156.132 608.306 156.132C609.09 156.132 609.711 155.955 610.168 155.6C610.625 155.236 610.929 154.755 611.078 154.158H612.38C612.184 155.101 611.736 155.838 611.036 156.37C610.336 156.902 609.426 157.168 608.306 157.168ZM614.015 157V146.92H615.191V151.134C615.424 150.714 615.751 150.383 616.171 150.14C616.6 149.897 617.067 149.776 617.571 149.776C618.112 149.776 618.584 149.888 618.985 150.112C619.386 150.327 619.694 150.658 619.909 151.106C620.124 151.554 620.231 152.119 620.231 152.8V157H619.069V152.926C619.069 152.217 618.92 151.685 618.621 151.33C618.322 150.966 617.888 150.784 617.319 150.784C616.918 150.784 616.554 150.882 616.227 151.078C615.91 151.274 615.658 151.554 615.471 151.918C615.284 152.282 615.191 152.73 615.191 153.262V157H614.015ZM624.364 157.168C623.795 157.168 623.319 157.07 622.936 156.874C622.553 156.669 622.269 156.403 622.082 156.076C621.895 155.74 621.802 155.376 621.802 154.984C621.802 154.508 621.923 154.107 622.166 153.78C622.418 153.444 622.768 153.192 623.216 153.024C623.673 152.847 624.21 152.758 624.826 152.758H626.688C626.688 152.319 626.618 151.955 626.478 151.666C626.347 151.367 626.151 151.143 625.89 150.994C625.638 150.845 625.321 150.77 624.938 150.77C624.49 150.77 624.103 150.882 623.776 151.106C623.449 151.33 623.249 151.661 623.174 152.1H621.97C622.026 151.596 622.194 151.176 622.474 150.84C622.763 150.495 623.127 150.233 623.566 150.056C624.005 149.869 624.462 149.776 624.938 149.776C625.591 149.776 626.133 149.897 626.562 150.14C627.001 150.373 627.327 150.705 627.542 151.134C627.757 151.554 627.864 152.053 627.864 152.632V157H626.814L626.744 155.754C626.651 155.95 626.529 156.137 626.38 156.314C626.24 156.482 626.072 156.631 625.876 156.762C625.68 156.883 625.456 156.981 625.204 157.056C624.961 157.131 624.681 157.168 624.364 157.168ZM624.546 156.174C624.873 156.174 625.167 156.109 625.428 155.978C625.699 155.838 625.927 155.651 626.114 155.418C626.301 155.175 626.441 154.909 626.534 154.62C626.637 154.331 626.688 154.027 626.688 153.71V153.668H624.924C624.467 153.668 624.098 153.724 623.818 153.836C623.538 153.939 623.337 154.088 623.216 154.284C623.095 154.471 623.034 154.685 623.034 154.928C623.034 155.18 623.09 155.399 623.202 155.586C623.323 155.773 623.496 155.917 623.72 156.02C623.953 156.123 624.229 156.174 624.546 156.174ZM632.264 157C631.844 157 631.48 156.935 631.172 156.804C630.864 156.673 630.626 156.454 630.458 156.146C630.299 155.829 630.22 155.404 630.22 154.872V150.938H628.988V149.944H630.22L630.374 148.236H631.396V149.944H633.44V150.938H631.396V154.872C631.396 155.311 631.484 155.609 631.662 155.768C631.839 155.917 632.152 155.992 632.6 155.992H633.356V157H632.264ZM641.031 155.992V149.888H642.081V155.992H641.031ZM638.357 153.43V152.436H644.755V153.43H638.357ZM650.179 157V147.2H653.623C654.314 147.2 654.883 147.312 655.331 147.536C655.788 147.751 656.129 148.049 656.353 148.432C656.577 148.805 656.689 149.225 656.689 149.692C656.689 150.196 656.577 150.616 656.353 150.952C656.138 151.288 655.854 151.545 655.499 151.722C655.154 151.899 654.785 152.007 654.393 152.044L654.589 151.904C655.009 151.913 655.396 152.025 655.751 152.24C656.106 152.455 656.386 152.744 656.591 153.108C656.806 153.472 656.913 153.878 656.913 154.326C656.913 154.821 656.792 155.273 656.549 155.684C656.306 156.085 655.947 156.407 655.471 156.65C655.004 156.883 654.426 157 653.735 157H650.179ZM651.355 156.02H653.609C654.272 156.02 654.785 155.866 655.149 155.558C655.522 155.241 655.709 154.802 655.709 154.242C655.709 153.691 655.518 153.253 655.135 152.926C654.762 152.59 654.244 152.422 653.581 152.422H651.355V156.02ZM651.355 151.484H653.539C654.174 151.484 654.654 151.335 654.981 151.036C655.317 150.737 655.485 150.331 655.485 149.818C655.485 149.323 655.317 148.927 654.981 148.628C654.654 148.329 654.16 148.18 653.497 148.18H651.355V151.484ZM661.694 157.168C661.041 157.168 660.453 157.019 659.93 156.72C659.408 156.412 658.997 155.983 658.698 155.432C658.4 154.872 658.25 154.223 658.25 153.486C658.25 152.73 658.4 152.077 658.698 151.526C659.006 150.966 659.422 150.537 659.944 150.238C660.476 149.93 661.069 149.776 661.722 149.776C662.394 149.776 662.987 149.93 663.5 150.238C664.023 150.537 664.434 150.966 664.732 151.526C665.04 152.077 665.194 152.725 665.194 153.472C665.194 154.219 665.04 154.872 664.732 155.432C664.424 155.983 664.009 156.412 663.486 156.72C662.964 157.019 662.366 157.168 661.694 157.168ZM661.708 156.16C662.11 156.16 662.483 156.062 662.828 155.866C663.174 155.661 663.454 155.357 663.668 154.956C663.883 154.555 663.99 154.06 663.99 153.472C663.99 152.875 663.883 152.38 663.668 151.988C663.463 151.587 663.188 151.288 662.842 151.092C662.506 150.887 662.133 150.784 661.722 150.784C661.33 150.784 660.957 150.887 660.602 151.092C660.257 151.288 659.977 151.587 659.762 151.988C659.557 152.38 659.454 152.875 659.454 153.472C659.454 154.06 659.557 154.555 659.762 154.956C659.977 155.357 660.252 155.661 660.588 155.866C660.934 156.062 661.307 156.16 661.708 156.16ZM669.139 157.168C668.57 157.168 668.094 157.07 667.711 156.874C667.329 156.669 667.044 156.403 666.857 156.076C666.671 155.74 666.577 155.376 666.577 154.984C666.577 154.508 666.699 154.107 666.941 153.78C667.193 153.444 667.543 153.192 667.991 153.024C668.449 152.847 668.985 152.758 669.601 152.758H671.463C671.463 152.319 671.393 151.955 671.253 151.666C671.123 151.367 670.927 151.143 670.665 150.994C670.413 150.845 670.096 150.77 669.713 150.77C669.265 150.77 668.878 150.882 668.551 151.106C668.225 151.33 668.024 151.661 667.949 152.1H666.745C666.801 151.596 666.969 151.176 667.249 150.84C667.539 150.495 667.903 150.233 668.341 150.056C668.78 149.869 669.237 149.776 669.713 149.776C670.367 149.776 670.908 149.897 671.337 150.14C671.776 150.373 672.103 150.705 672.317 151.134C672.532 151.554 672.639 152.053 672.639 152.632V157H671.589L671.519 155.754C671.426 155.95 671.305 156.137 671.155 156.314C671.015 156.482 670.847 156.631 670.651 156.762C670.455 156.883 670.231 156.981 669.979 157.056C669.737 157.131 669.457 157.168 669.139 157.168ZM669.321 156.174C669.648 156.174 669.942 156.109 670.203 155.978C670.474 155.838 670.703 155.651 670.889 155.418C671.076 155.175 671.216 154.909 671.309 154.62C671.412 154.331 671.463 154.027 671.463 153.71V153.668H669.699C669.242 153.668 668.873 153.724 668.593 153.836C668.313 153.939 668.113 154.088 667.991 154.284C667.87 154.471 667.809 154.685 667.809 154.928C667.809 155.18 667.865 155.399 667.977 155.586C668.099 155.773 668.271 155.917 668.495 156.02C668.729 156.123 669.004 156.174 669.321 156.174ZM674.459 157V149.944H675.523L675.607 151.288C675.765 150.971 675.966 150.7 676.209 150.476C676.461 150.252 676.759 150.079 677.105 149.958C677.459 149.837 677.861 149.776 678.309 149.776V151.008H677.875C677.576 151.008 677.291 151.05 677.021 151.134C676.75 151.209 676.507 151.335 676.293 151.512C676.087 151.689 675.924 151.932 675.803 152.24C675.691 152.539 675.635 152.912 675.635 153.36V157H674.459ZM682.488 157.168C681.807 157.168 681.21 157.009 680.696 156.692C680.183 156.365 679.786 155.922 679.506 155.362C679.226 154.802 679.086 154.167 679.086 153.458C679.086 152.749 679.226 152.119 679.506 151.568C679.786 151.008 680.183 150.569 680.696 150.252C681.219 149.935 681.821 149.776 682.502 149.776C683.081 149.776 683.585 149.893 684.014 150.126C684.453 150.359 684.789 150.686 685.022 151.106V146.92H686.198V157H685.134L685.036 155.838C684.887 156.071 684.696 156.291 684.462 156.496C684.229 156.692 683.949 156.855 683.622 156.986C683.296 157.107 682.918 157.168 682.488 157.168ZM682.628 156.146C683.095 156.146 683.506 156.034 683.86 155.81C684.215 155.586 684.49 155.278 684.686 154.886C684.882 154.485 684.98 154.013 684.98 153.472C684.98 152.94 684.882 152.473 684.686 152.072C684.49 151.671 684.215 151.358 683.86 151.134C683.506 150.91 683.095 150.798 682.628 150.798C682.171 150.798 681.765 150.91 681.41 151.134C681.056 151.358 680.78 151.671 680.584 152.072C680.388 152.473 680.29 152.94 680.29 153.472C680.29 154.013 680.388 154.485 680.584 154.886C680.78 155.278 681.056 155.586 681.41 155.81C681.765 156.034 682.171 156.146 682.628 156.146Z" fill="#171613"/>
</g>
<g filter="url(#filter7_d_1236_337)">
<rect x="583.5" y="192.5" width="129" height="43" rx="21.5" stroke="#D4D0C5"/>
<path d="M617.346 219V210.166H614.42V209.2H621.448V210.166H618.522V219H617.346ZM622.828 219V208.92H624.004V213.134C624.237 212.714 624.564 212.383 624.984 212.14C625.413 211.897 625.88 211.776 626.384 211.776C626.925 211.776 627.396 211.888 627.798 212.112C628.199 212.327 628.507 212.658 628.722 213.106C628.936 213.554 629.044 214.119 629.044 214.8V219H627.882V214.926C627.882 214.217 627.732 213.685 627.434 213.33C627.135 212.966 626.701 212.784 626.132 212.784C625.73 212.784 625.366 212.882 625.04 213.078C624.722 213.274 624.47 213.554 624.284 213.918C624.097 214.282 624.004 214.73 624.004 215.262V219H622.828ZM633.974 219.168C633.312 219.168 632.724 219.014 632.21 218.706C631.706 218.398 631.31 217.969 631.02 217.418C630.731 216.858 630.586 216.209 630.586 215.472C630.586 214.725 630.726 214.077 631.006 213.526C631.296 212.975 631.697 212.546 632.21 212.238C632.733 211.93 633.33 211.776 634.002 211.776C634.693 211.776 635.276 211.93 635.752 212.238C636.238 212.546 636.606 212.952 636.858 213.456C637.12 213.951 637.25 214.497 637.25 215.094C637.25 215.187 637.25 215.285 637.25 215.388C637.25 215.491 637.246 215.607 637.236 215.738H631.468V214.828H636.102C636.074 214.184 635.86 213.68 635.458 213.316C635.066 212.952 634.572 212.77 633.974 212.77C633.573 212.77 633.2 212.863 632.854 213.05C632.518 213.227 632.248 213.493 632.042 213.848C631.837 214.193 631.734 214.627 631.734 215.15V215.542C631.734 216.121 631.837 216.606 632.042 216.998C632.257 217.39 632.532 217.684 632.868 217.88C633.214 218.076 633.582 218.174 633.974 218.174C634.469 218.174 634.875 218.067 635.192 217.852C635.519 217.628 635.752 217.329 635.892 216.956H637.054C636.942 217.376 636.746 217.754 636.466 218.09C636.186 218.426 635.836 218.692 635.416 218.888C635.006 219.075 634.525 219.168 633.974 219.168ZM645.748 219.168C645.03 219.168 644.404 219.037 643.872 218.776C643.34 218.515 642.93 218.151 642.64 217.684C642.351 217.217 642.206 216.676 642.206 216.06H643.438C643.438 216.443 643.527 216.797 643.704 217.124C643.882 217.441 644.138 217.698 644.474 217.894C644.82 218.081 645.244 218.174 645.748 218.174C646.187 218.174 646.56 218.104 646.868 217.964C647.186 217.815 647.424 217.614 647.582 217.362C647.75 217.11 647.834 216.825 647.834 216.508C647.834 216.125 647.75 215.817 647.582 215.584C647.424 215.341 647.204 215.145 646.924 214.996C646.644 214.847 646.318 214.716 645.944 214.604C645.58 214.483 645.198 214.357 644.796 214.226C644.022 213.965 643.452 213.638 643.088 213.246C642.724 212.854 642.542 212.345 642.542 211.72C642.542 211.188 642.664 210.721 642.906 210.32C643.158 209.919 643.513 209.606 643.97 209.382C644.437 209.149 644.988 209.032 645.622 209.032C646.248 209.032 646.789 209.149 647.246 209.382C647.713 209.615 648.077 209.937 648.338 210.348C648.6 210.749 648.73 211.216 648.73 211.748H647.498C647.498 211.477 647.428 211.211 647.288 210.95C647.148 210.689 646.934 210.474 646.644 210.306C646.364 210.129 646.01 210.04 645.58 210.04C645.226 210.031 644.908 210.091 644.628 210.222C644.358 210.343 644.143 210.521 643.984 210.754C643.835 210.987 643.76 211.272 643.76 211.608C643.76 211.925 643.826 212.182 643.956 212.378C644.096 212.574 644.292 212.742 644.544 212.882C644.806 213.013 645.109 213.134 645.454 213.246C645.8 213.358 646.182 213.484 646.602 213.624C647.078 213.783 647.498 213.979 647.862 214.212C648.236 214.436 648.525 214.725 648.73 215.08C648.945 215.435 649.052 215.887 649.052 216.438C649.052 216.905 648.926 217.348 648.674 217.768C648.432 218.179 648.068 218.515 647.582 218.776C647.097 219.037 646.486 219.168 645.748 219.168ZM650.677 222.08V211.944H651.741L651.839 213.092C651.989 212.868 652.18 212.658 652.413 212.462C652.647 212.257 652.927 212.093 653.253 211.972C653.58 211.841 653.953 211.776 654.373 211.776C655.064 211.776 655.661 211.939 656.165 212.266C656.679 212.593 657.075 213.036 657.355 213.596C657.645 214.147 657.789 214.777 657.789 215.486C657.789 216.195 657.645 216.83 657.355 217.39C657.075 217.941 656.679 218.375 656.165 218.692C655.652 219.009 655.05 219.168 654.359 219.168C653.79 219.168 653.286 219.051 652.847 218.818C652.418 218.585 652.087 218.258 651.853 217.838V222.08H650.677ZM654.233 218.146C654.691 218.146 655.097 218.034 655.451 217.81C655.806 217.586 656.081 217.278 656.277 216.886C656.483 216.485 656.585 216.013 656.585 215.472C656.585 214.94 656.483 214.473 656.277 214.072C656.081 213.671 655.806 213.358 655.451 213.134C655.097 212.91 654.691 212.798 654.233 212.798C653.767 212.798 653.356 212.91 653.001 213.134C652.647 213.358 652.371 213.671 652.175 214.072C651.979 214.473 651.881 214.94 651.881 215.472C651.881 216.013 651.979 216.485 652.175 216.886C652.371 217.278 652.647 217.586 653.001 217.81C653.356 218.034 653.767 218.146 654.233 218.146ZM661.737 219.168C661.168 219.168 660.692 219.07 660.309 218.874C659.926 218.669 659.642 218.403 659.455 218.076C659.268 217.74 659.175 217.376 659.175 216.984C659.175 216.508 659.296 216.107 659.539 215.78C659.791 215.444 660.141 215.192 660.589 215.024C661.046 214.847 661.583 214.758 662.199 214.758H664.061C664.061 214.319 663.991 213.955 663.851 213.666C663.72 213.367 663.524 213.143 663.263 212.994C663.011 212.845 662.694 212.77 662.311 212.77C661.863 212.77 661.476 212.882 661.149 213.106C660.822 213.33 660.622 213.661 660.547 214.1H659.343C659.399 213.596 659.567 213.176 659.847 212.84C660.136 212.495 660.5 212.233 660.939 212.056C661.378 211.869 661.835 211.776 662.311 211.776C662.964 211.776 663.506 211.897 663.935 212.14C664.374 212.373 664.7 212.705 664.915 213.134C665.13 213.554 665.237 214.053 665.237 214.632V219H664.187L664.117 217.754C664.024 217.95 663.902 218.137 663.753 218.314C663.613 218.482 663.445 218.631 663.249 218.762C663.053 218.883 662.829 218.981 662.577 219.056C662.334 219.131 662.054 219.168 661.737 219.168ZM661.919 218.174C662.246 218.174 662.54 218.109 662.801 217.978C663.072 217.838 663.3 217.651 663.487 217.418C663.674 217.175 663.814 216.909 663.907 216.62C664.01 216.331 664.061 216.027 664.061 215.71V215.668H662.297C661.84 215.668 661.471 215.724 661.191 215.836C660.911 215.939 660.71 216.088 660.589 216.284C660.468 216.471 660.407 216.685 660.407 216.928C660.407 217.18 660.463 217.399 660.575 217.586C660.696 217.773 660.869 217.917 661.093 218.02C661.326 218.123 661.602 218.174 661.919 218.174ZM670.234 219.168C669.572 219.168 668.974 219.014 668.442 218.706C667.92 218.398 667.509 217.969 667.21 217.418C666.912 216.858 666.762 216.214 666.762 215.486C666.762 214.739 666.912 214.091 667.21 213.54C667.509 212.989 667.92 212.56 668.442 212.252C668.974 211.935 669.572 211.776 670.234 211.776C671.074 211.776 671.774 211.995 672.334 212.434C672.894 212.863 673.249 213.442 673.398 214.17H672.194C672.101 213.731 671.872 213.391 671.508 213.148C671.144 212.905 670.715 212.784 670.22 212.784C669.819 212.784 669.446 212.887 669.1 213.092C668.755 213.288 668.48 213.587 668.274 213.988C668.069 214.389 667.966 214.884 667.966 215.472C667.966 215.911 668.027 216.303 668.148 216.648C668.27 216.984 668.433 217.264 668.638 217.488C668.844 217.712 669.082 217.885 669.352 218.006C669.632 218.118 669.922 218.174 670.22 218.174C670.556 218.174 670.86 218.123 671.13 218.02C671.401 217.908 671.63 217.745 671.816 217.53C672.003 217.315 672.129 217.063 672.194 216.774H673.398C673.249 217.483 672.89 218.062 672.32 218.51C671.76 218.949 671.065 219.168 670.234 219.168ZM678.162 219.168C677.499 219.168 676.911 219.014 676.398 218.706C675.894 218.398 675.497 217.969 675.208 217.418C674.919 216.858 674.774 216.209 674.774 215.472C674.774 214.725 674.914 214.077 675.194 213.526C675.483 212.975 675.885 212.546 676.398 212.238C676.921 211.93 677.518 211.776 678.19 211.776C678.881 211.776 679.464 211.93 679.94 212.238C680.425 212.546 680.794 212.952 681.046 213.456C681.307 213.951 681.438 214.497 681.438 215.094C681.438 215.187 681.438 215.285 681.438 215.388C681.438 215.491 681.433 215.607 681.424 215.738H675.656V214.828H680.29C680.262 214.184 680.047 213.68 679.646 213.316C679.254 212.952 678.759 212.77 678.162 212.77C677.761 212.77 677.387 212.863 677.042 213.05C676.706 213.227 676.435 213.493 676.23 213.848C676.025 214.193 675.922 214.627 675.922 215.15V215.542C675.922 216.121 676.025 216.606 676.23 216.998C676.445 217.39 676.72 217.684 677.056 217.88C677.401 218.076 677.77 218.174 678.162 218.174C678.657 218.174 679.063 218.067 679.38 217.852C679.707 217.628 679.94 217.329 680.08 216.956H681.242C681.13 217.376 680.934 217.754 680.654 218.09C680.374 218.426 680.024 218.692 679.604 218.888C679.193 219.075 678.713 219.168 678.162 219.168Z" fill="#9A968B"/>
<path d="M614 214.758H682.04V215.458H614V214.758Z" fill="#9A968B"/>
</g>
<g filter="url(#filter8_d_1236_337)">
<rect x="583.5" y="254.5" width="129" height="43" rx="21.5" stroke="#D4D0C5"/>
<path d="M614.05 281V271.2H615.226L620.448 279.054V271.2H621.624V281H620.448L615.226 273.146V281H614.05ZM628.098 281.168C627.155 281.168 626.324 280.958 625.606 280.538C624.896 280.109 624.341 279.516 623.94 278.76C623.548 277.995 623.352 277.108 623.352 276.1C623.352 275.101 623.548 274.224 623.94 273.468C624.341 272.703 624.896 272.105 625.606 271.676C626.324 271.247 627.155 271.032 628.098 271.032C629.059 271.032 629.894 271.247 630.604 271.676C631.313 272.105 631.864 272.703 632.256 273.468C632.657 274.224 632.858 275.101 632.858 276.1C632.858 277.108 632.657 277.995 632.256 278.76C631.864 279.516 631.313 280.109 630.604 280.538C629.894 280.958 629.059 281.168 628.098 281.168ZM628.098 280.132C628.807 280.132 629.428 279.973 629.96 279.656C630.501 279.329 630.916 278.867 631.206 278.27C631.504 277.663 631.654 276.94 631.654 276.1C631.654 275.26 631.504 274.541 631.206 273.944C630.916 273.337 630.501 272.875 629.96 272.558C629.428 272.241 628.807 272.082 628.098 272.082C627.398 272.082 626.777 272.241 626.236 272.558C625.704 272.875 625.288 273.337 624.99 273.944C624.7 274.541 624.556 275.26 624.556 276.1C624.556 276.94 624.7 277.663 624.99 278.27C625.288 278.867 625.704 279.329 626.236 279.656C626.777 279.973 627.398 280.132 628.098 280.132ZM636.232 281L633.544 271.2H634.804L636.918 279.6L639.312 271.2H640.628L642.966 279.628L645.108 271.2H646.368L643.624 281H642.28L639.942 272.894L637.548 281H636.232ZM654.424 281L650.742 271.2H652.016L655.11 279.754L658.232 271.2H659.478L655.796 281H654.424ZM660.891 281V273.944H662.067V281H660.891ZM661.479 272.446C661.245 272.446 661.049 272.371 660.891 272.222C660.741 272.063 660.667 271.867 660.667 271.634C660.667 271.401 660.741 271.214 660.891 271.074C661.049 270.925 661.245 270.85 661.479 270.85C661.703 270.85 661.894 270.925 662.053 271.074C662.211 271.214 662.291 271.401 662.291 271.634C662.291 271.867 662.211 272.063 662.053 272.222C661.894 272.371 661.703 272.446 661.479 272.446ZM667.236 281.168C666.573 281.168 665.985 281.014 665.472 280.706C664.968 280.398 664.571 279.969 664.282 279.418C663.993 278.858 663.848 278.209 663.848 277.472C663.848 276.725 663.988 276.077 664.268 275.526C664.557 274.975 664.959 274.546 665.472 274.238C665.995 273.93 666.592 273.776 667.264 273.776C667.955 273.776 668.538 273.93 669.014 274.238C669.499 274.546 669.868 274.952 670.12 275.456C670.381 275.951 670.512 276.497 670.512 277.094C670.512 277.187 670.512 277.285 670.512 277.388C670.512 277.491 670.507 277.607 670.498 277.738H664.73V276.828H669.364C669.336 276.184 669.121 275.68 668.72 275.316C668.328 274.952 667.833 274.77 667.236 274.77C666.835 274.77 666.461 274.863 666.116 275.05C665.78 275.227 665.509 275.493 665.304 275.848C665.099 276.193 664.996 276.627 664.996 277.15V277.542C664.996 278.121 665.099 278.606 665.304 278.998C665.519 279.39 665.794 279.684 666.13 279.88C666.475 280.076 666.844 280.174 667.236 280.174C667.731 280.174 668.137 280.067 668.454 279.852C668.781 279.628 669.014 279.329 669.154 278.956H670.316C670.204 279.376 670.008 279.754 669.728 280.09C669.448 280.426 669.098 280.692 668.678 280.888C668.267 281.075 667.787 281.168 667.236 281.168ZM673.254 281L671.182 273.944H672.358L673.968 279.894H673.758L675.508 273.944H676.838L678.616 279.88L678.392 279.894L679.988 273.944H681.178L679.12 281H677.916L676.068 274.784H676.306L674.458 281H673.254Z" fill="#9A968B"/>
<path d="M613 276.758H681.528V277.458H613V276.758Z" fill="#9A968B"/>
</g>
<defs>
<filter id="filter0_d_1236_337" x="38" y="115" width="180" height="94" filterUnits="userSpaceOnUse" color-interpolation-filters="sRGB">
<feFlood flood-opacity="0" result="BackgroundImageFix"/>
<feColorMatrix in="SourceAlpha" type="matrix" values="0 0 0 0 0 0 0 0 0 0 0 0 0 0 0 0 0 0 127 0" result="hardAlpha"/>
<feMorphology radius="5" operator="dilate" in="SourceAlpha" result="effect1_dropShadow_1236_337"/>
<feOffset dy="10"/>
<feGaussianBlur stdDeviation="10"/>
<feComposite in2="hardAlpha" operator="out"/>
<feColorMatrix type="matrix" values="0 0 0 0 0.130188 0 0 0 0 0.12796 0 0 0 0 0.194824 0 0 0 0.05 0"/>
<feBlend mode="normal" in2="BackgroundImageFix" result="effect1_dropShadow_1236_337"/>
<feBlend mode="normal" in="SourceGraphic" in2="effect1_dropShadow_1236_337" result="shape"/>
</filter>
<filter id="filter1_d_1236_337" x="38" y="177" width="180" height="94" filterUnits="userSpaceOnUse" color-interpolation-filters="sRGB">
<feFlood flood-opacity="0" result="BackgroundImageFix"/>
<feColorMatrix in="SourceAlpha" type="matrix" values="0 0 0 0 0 0 0 0 0 0 0 0 0 0 0 0 0 0 127 0" result="hardAlpha"/>
<feMorphology radius="5" operator="dilate" in="SourceAlpha" result="effect1_dropShadow_1236_337"/>
<feOffset dy="10"/>
<feGaussianBlur stdDeviation="10"/>
<feComposite in2="hardAlpha" operator="out"/>
<feColorMatrix type="matrix" values="0 0 0 0 0.130188 0 0 0 0 0.12796 0 0 0 0 0.194824 0 0 0 0.05 0"/>
<feBlend mode="normal" in2="BackgroundImageFix" result="effect1_dropShadow_1236_337"/>
<feBlend mode="normal" in="SourceGraphic" in2="effect1_dropShadow_1236_337" result="shape"/>
</filter>
<filter id="filter2_d_1236_337" x="38" y="239" width="180" height="94" filterUnits="userSpaceOnUse" color-interpolation-filters="sRGB">
<feFlood flood-opacity="0" result="BackgroundImageFix"/>
<feColorMatrix in="SourceAlpha" type="matrix" values="0 0 0 0 0 0 0 0 0 0 0 0 0 0 0 0 0 0 127 0" result="hardAlpha"/>
<feMorphology radius="5" operator="dilate" in="SourceAlpha" result="effect1_dropShadow_1236_337"/>
<feOffset dy="10"/>
<feGaussianBlur stdDeviation="10"/>
<feComposite in2="hardAlpha" operator="out"/>
<feColorMatrix type="matrix" values="0 0 0 0 0.130188 0 0 0 0 0.12796 0 0 0 0 0.194824 0 0 0 0.05 0"/>
<feBlend mode="normal" in2="BackgroundImageFix" result="effect1_dropShadow_1236_337"/>
<feBlend mode="normal" in="SourceGraphic" in2="effect1_dropShadow_1236_337" result="shape"/>
</filter>
<filter id="filter3_d_1236_337" x="298" y="115" width="180" height="94" filterUnits="userSpaceOnUse" color-interpolation-filters="sRGB">
<feFlood flood-opacity="0" result="BackgroundImageFix"/>
<feColorMatrix in="SourceAlpha" type="matrix" values="0 0 0 0 0 0 0 0 0 0 0 0 0 0 0 0 0 0 127 0" result="hardAlpha"/>
<feMorphology radius="5" operator="dilate" in="SourceAlpha" result="effect1_dropShadow_1236_337"/>
<feOffset dy="10"/>
<feGaussianBlur stdDeviation="10"/>
<feComposite in2="hardAlpha" operator="out"/>
<feColorMatrix type="matrix" values="0 0 0 0 0.130188 0 0 0 0 0.12796 0 0 0 0 0.194824 0 0 0 0.05 0"/>
<feBlend mode="normal" in2="BackgroundImageFix" result="effect1_dropShadow_1236_337"/>
<feBlend mode="normal" in="SourceGraphic" in2="effect1_dropShadow_1236_337" result="shape"/>
</filter>
<filter id="filter4_d_1236_337" x="298" y="177" width="180" height="94" filterUnits="userSpaceOnUse" color-interpolation-filters="sRGB">
<feFlood flood-opacity="0" result="BackgroundImageFix"/>
<feColorMatrix in="SourceAlpha" type="matrix" values="0 0 0 0 0 0 0 0 0 0 0 0 0 0 0 0 0 0 127 0" result="hardAlpha"/>
<feMorphology radius="5" operator="dilate" in="SourceAlpha" result="effect1_dropShadow_1236_337"/>
<feOffset dy="10"/>
<feGaussianBlur stdDeviation="10"/>
<feComposite in2="hardAlpha" operator="out"/>
<feColorMatrix type="matrix" values="0 0 0 0 0.130188 0 0 0 0 0.12796 0 0 0 0 0.194824 0 0 0 0.05 0"/>
<feBlend mode="normal" in2="BackgroundImageFix" result="effect1_dropShadow_1236_337"/>
<feBlend mode="normal" in="SourceGraphic" in2="effect1_dropShadow_1236_337" result="shape"/>
</filter>
<filter id="filter5_d_1236_337" x="298" y="239" width="180" height="94" filterUnits="userSpaceOnUse" color-interpolation-filters="sRGB">
<feFlood flood-opacity="0" result="BackgroundImageFix"/>
<feColorMatrix in="SourceAlpha" type="matrix" values="0 0 0 0 0 0 0 0 0 0 0 0 0 0 0 0 0 0 127 0" result="hardAlpha"/>
<feMorphology radius="5" operator="dilate" in="SourceAlpha" result="effect1_dropShadow_1236_337"/>
<feOffset dy="10"/>
<feGaussianBlur stdDeviation="10"/>
<feComposite in2="hardAlpha" operator="out"/>
<feColorMatrix type="matrix" values="0 0 0 0 0.130188 0 0 0 0 0.12796 0 0 0 0 0.194824 0 0 0 0.05 0"/>
<feBlend mode="normal" in2="BackgroundImageFix" result="effect1_dropShadow_1236_337"/>
<feBlend mode="normal" in="SourceGraphic" in2="effect1_dropShadow_1236_337" result="shape"/>
</filter>
<filter id="filter6_d_1236_337" x="558" y="115" width="180" height="94" filterUnits="userSpaceOnUse" color-interpolation-filters="sRGB">
<feFlood flood-opacity="0" result="BackgroundImageFix"/>
<feColorMatrix in="SourceAlpha" type="matrix" values="0 0 0 0 0 0 0 0 0 0 0 0 0 0 0 0 0 0 127 0" result="hardAlpha"/>
<feMorphology radius="5" operator="dilate" in="SourceAlpha" result="effect1_dropShadow_1236_337"/>
<feOffset dy="10"/>
<feGaussianBlur stdDeviation="10"/>
<feComposite in2="hardAlpha" operator="out"/>
<feColorMatrix type="matrix" values="0 0 0 0 0.130188 0 0 0 0 0.12796 0 0 0 0 0.194824 0 0 0 0.05 0"/>
<feBlend mode="normal" in2="BackgroundImageFix" result="effect1_dropShadow_1236_337"/>
<feBlend mode="normal" in="SourceGraphic" in2="effect1_dropShadow_1236_337" result="shape"/>
</filter>
<filter id="filter7_d_1236_337" x="558" y="177" width="180" height="94" filterUnits="userSpaceOnUse" color-interpolation-filters="sRGB">
<feFlood flood-opacity="0" result="BackgroundImageFix"/>
<feColorMatrix in="SourceAlpha" type="matrix" values="0 0 0 0 0 0 0 0 0 0 0 0 0 0 0 0 0 0 127 0" result="hardAlpha"/>
<feMorphology radius="5" operator="dilate" in="SourceAlpha" result="effect1_dropShadow_1236_337"/>
<feOffset dy="10"/>
<feGaussianBlur stdDeviation="10"/>
<feComposite in2="hardAlpha" operator="out"/>
<feColorMatrix type="matrix" values="0 0 0 0 0.130188 0 0 0 0 0.12796 0 0 0 0 0.194824 0 0 0 0.05 0"/>
<feBlend mode="normal" in2="BackgroundImageFix" result="effect1_dropShadow_1236_337"/>
<feBlend mode="normal" in="SourceGraphic" in2="effect1_dropShadow_1236_337" result="shape"/>
</filter>
<filter id="filter8_d_1236_337" x="558" y="239" width="180" height="94" filterUnits="userSpaceOnUse" color-interpolation-filters="sRGB">
<feFlood flood-opacity="0" result="BackgroundImageFix"/>
<feColorMatrix in="SourceAlpha" type="matrix" values="0 0 0 0 0 0 0 0 0 0 0 0 0 0 0 0 0 0 127 0" result="hardAlpha"/>
<feMorphology radius="5" operator="dilate" in="SourceAlpha" result="effect1_dropShadow_1236_337"/>
<feOffset dy="10"/>
<feGaussianBlur stdDeviation="10"/>
<feComposite in2="hardAlpha" operator="out"/>
<feColorMatrix type="matrix" values="0 0 0 0 0.130188 0 0 0 0 0.12796 0 0 0 0 0.194824 0 0 0 0.05 0"/>
<feBlend mode="normal" in2="BackgroundImageFix" result="effect1_dropShadow_1236_337"/>
<feBlend mode="normal" in="SourceGraphic" in2="effect1_dropShadow_1236_337" result="shape"/>
</filter>
</defs>
</svg>
