<svg width="700" height="243" viewBox="0 0 700 243" fill="none" xmlns="http://www.w3.org/2000/svg">
<g clip-path="url(#clip0_1154_1712)">
<g filter="url(#filter0_d_1154_1712)">
<rect x="261" y="22" width="130" height="44" rx="22" fill="white"/>
</g>
<g filter="url(#filter1_d_1154_1712)">
<rect x="261" y="134" width="130" height="44" rx="22" fill="white"/>
</g>
<g filter="url(#filter2_d_1154_1712)">
<rect x="412" y="134" width="130" height="44" rx="22" fill="white"/>
</g>
<g filter="url(#filter3_d_1154_1712)">
<rect x="560" y="134" width="130" height="44" rx="22" fill="white"/>
</g>
<g filter="url(#filter4_d_1154_1712)">
<rect x="412" y="22" width="130" height="44" rx="22" fill="white"/>
</g>
<g filter="url(#filter5_d_1154_1712)">
<rect x="112" y="22" width="130" height="44" rx="22" fill="white"/>
</g>
<g filter="url(#filter6_d_1154_1712)">
<rect x="112" y="134" width="130" height="44" rx="22" fill="white"/>
</g>
<path d="M9.836 49V41.3H10.76V48.263H14.346V49H9.836ZM15.6583 49V41.3H16.5823V49H15.6583ZM18.2579 49V41.3H19.1819L23.2849 47.482V41.3H24.2089V49H23.2849L19.1819 42.818V49H18.2579ZM25.8848 49V41.3H30.6478V42.059H26.8088V44.743H30.3178V45.491H26.8088V48.241H30.6478V49H25.8848ZM31.6418 49L34.4798 41.3H35.4588L38.2858 49H37.2958L34.9638 42.455L32.6098 49H31.6418ZM32.9398 47.02L33.2038 46.272H36.6908L36.9548 47.02H32.9398ZM39.4522 49V41.3H41.9382C42.5395 41.3 43.0309 41.4027 43.4122 41.608C43.7935 41.806 44.0759 42.0737 44.2592 42.411C44.4425 42.7483 44.5342 43.1297 44.5342 43.555C44.5342 43.9657 44.4389 44.3433 44.2482 44.688C44.0649 45.0327 43.7789 45.3077 43.3902 45.513C43.0015 45.7183 42.5029 45.821 41.8942 45.821H40.3762V49H39.4522ZM43.5222 49L41.8282 45.557H42.8622L44.6112 49H43.5222ZM40.3762 45.095H41.8722C42.4589 45.095 42.8879 44.952 43.1592 44.666C43.4379 44.38 43.5772 44.0133 43.5772 43.566C43.5772 43.1113 43.4415 42.752 43.1702 42.488C42.9062 42.2167 42.4699 42.081 41.8612 42.081H40.3762V45.095ZM48.959 49V41.3H50.037L52.699 46.712L55.339 41.3H56.428V49H55.504V42.961L53.04 47.966H52.347L49.883 42.994V49H48.959ZM61.4444 49.132C60.7257 49.132 60.0914 48.967 59.5414 48.637C58.9987 48.2997 58.5734 47.834 58.2654 47.24C57.9574 46.6387 57.8034 45.942 57.8034 45.15C57.8034 44.3653 57.9574 43.676 58.2654 43.082C58.5734 42.4807 58.9987 42.0113 59.5414 41.674C60.0914 41.3367 60.7257 41.168 61.4444 41.168C62.1704 41.168 62.8047 41.3367 63.3474 41.674C63.8974 42.0113 64.3227 42.4807 64.6234 43.082C64.9241 43.676 65.0744 44.3653 65.0744 45.15C65.0744 45.942 64.9241 46.6387 64.6234 47.24C64.3227 47.834 63.8974 48.2997 63.3474 48.637C62.8047 48.967 62.1704 49.132 61.4444 49.132ZM61.4444 48.318C61.9797 48.318 62.4491 48.1933 62.8524 47.944C63.2557 47.6873 63.5674 47.3243 63.7874 46.855C64.0147 46.3783 64.1284 45.81 64.1284 45.15C64.1284 44.49 64.0147 43.9253 63.7874 43.456C63.5674 42.9793 63.2557 42.6163 62.8524 42.367C62.4491 42.1177 61.9797 41.993 61.4444 41.993C60.9091 41.993 60.4397 42.1177 60.0364 42.367C59.6331 42.6163 59.3177 42.9793 59.0904 43.456C58.8631 43.9253 58.7494 44.49 58.7494 45.15C58.7494 45.81 58.8631 46.3783 59.0904 46.855C59.3177 47.3243 59.6331 47.6873 60.0364 47.944C60.4397 48.1933 60.9091 48.318 61.4444 48.318ZM66.4366 49V41.3H68.5376C69.4323 41.3 70.1693 41.4577 70.7486 41.773C71.3353 42.081 71.7679 42.5247 72.0466 43.104C72.3326 43.676 72.4756 44.3653 72.4756 45.172C72.4756 45.964 72.3326 46.646 72.0466 47.218C71.7679 47.79 71.3353 48.23 70.7486 48.538C70.1693 48.846 69.4323 49 68.5376 49H66.4366ZM67.3606 48.23H68.5156C69.2563 48.23 69.8466 48.109 70.2866 47.867C70.7266 47.6177 71.0419 47.2657 71.2326 46.811C71.4233 46.349 71.5186 45.8027 71.5186 45.172C71.5186 44.5267 71.4233 43.973 71.2326 43.511C71.0419 43.049 70.7266 42.6933 70.2866 42.444C69.8466 42.1947 69.2563 42.07 68.5156 42.07H67.3606V48.23ZM73.8487 49V41.3H78.6117V42.059H74.7727V44.743H78.2817V45.491H74.7727V48.241H78.6117V49H73.8487ZM80.1006 49V41.3H81.0246V48.263H84.6106V49H80.1006Z" fill="#979186"/>
<path d="M9.836 165V157.3H10.76L14.863 163.482V157.3H15.787V165H14.863L10.76 158.818V165H9.836ZM20.796 165.132C20.0773 165.132 19.443 164.967 18.893 164.637C18.3503 164.3 17.925 163.834 17.617 163.24C17.309 162.639 17.155 161.942 17.155 161.15C17.155 160.365 17.309 159.676 17.617 159.082C17.925 158.481 18.3503 158.011 18.893 157.674C19.443 157.337 20.0773 157.168 20.796 157.168C21.522 157.168 22.1563 157.337 22.699 157.674C23.249 158.011 23.6743 158.481 23.975 159.082C24.2756 159.676 24.426 160.365 24.426 161.15C24.426 161.942 24.2756 162.639 23.975 163.24C23.6743 163.834 23.249 164.3 22.699 164.637C22.1563 164.967 21.522 165.132 20.796 165.132ZM20.796 164.318C21.3313 164.318 21.8006 164.193 22.204 163.944C22.6073 163.687 22.919 163.324 23.139 162.855C23.3663 162.378 23.48 161.81 23.48 161.15C23.48 160.49 23.3663 159.925 23.139 159.456C22.919 158.979 22.6073 158.616 22.204 158.367C21.8006 158.118 21.3313 157.993 20.796 157.993C20.2606 157.993 19.7913 158.118 19.388 158.367C18.9846 158.616 18.6693 158.979 18.442 159.456C18.2146 159.925 18.101 160.49 18.101 161.15C18.101 161.81 18.2146 162.378 18.442 162.855C18.6693 163.324 18.9846 163.687 19.388 163.944C19.7913 164.193 20.2606 164.318 20.796 164.318ZM25.7881 165V157.3H26.7121L30.8151 163.482V157.3H31.7391V165H30.8151L26.7121 158.818V165H25.7881ZM33.3711 162.041V161.26H37.7271V162.041H33.3711ZM39.3448 165V157.3H40.2688V164.263H43.8548V165H39.3448ZM45.1671 165V157.3H46.0911V165H45.1671ZM47.7667 165V157.3H48.6907L52.7937 163.482V157.3H53.7177V165H52.7937L48.6907 158.818V165H47.7667ZM55.3936 165V157.3H60.1566V158.059H56.3176V160.743H59.8266V161.491H56.3176V164.241H60.1566V165H55.3936ZM61.1506 165L63.9886 157.3H64.9676L67.7946 165H66.8046L64.4726 158.455L62.1186 165H61.1506ZM62.4486 163.02L62.7126 162.272H66.1996L66.4636 163.02H62.4486ZM68.961 165V157.3H71.447C72.0483 157.3 72.5397 157.403 72.921 157.608C73.3023 157.806 73.5847 158.074 73.768 158.411C73.9513 158.748 74.043 159.13 74.043 159.555C74.043 159.966 73.9477 160.343 73.757 160.688C73.5737 161.033 73.2877 161.308 72.899 161.513C72.5103 161.718 72.0117 161.821 71.403 161.821H69.885V165H68.961ZM73.031 165L71.337 161.557H72.371L74.12 165H73.031ZM69.885 161.095H71.381C71.9677 161.095 72.3967 160.952 72.668 160.666C72.9467 160.38 73.086 160.013 73.086 159.566C73.086 159.111 72.9503 158.752 72.679 158.488C72.415 158.217 71.9787 158.081 71.37 158.081H69.885V161.095Z" fill="#979186"/>
<path d="M243 44H261" stroke="#171613" stroke-linecap="round" stroke-dasharray="1 3"/>
<path d="M243 156H261" stroke="#171613" stroke-linecap="round" stroke-dasharray="1 3"/>
<path d="M392 44H410" stroke="#171613" stroke-linecap="round" stroke-dasharray="1 3"/>
<path d="M542 44H560" stroke="#171613" stroke-linecap="round" stroke-dasharray="1 3"/>
<path d="M542 156H560" stroke="#171613" stroke-linecap="round" stroke-dasharray="1 3"/>
<path d="M392 156H410" stroke="#171613" stroke-linecap="round" stroke-dasharray="1 3"/>
<path d="M135 62C144.941 62 153 53.9411 153 44C153 34.0589 144.941 26 135 26C125.059 26 117 34.0589 117 44C117 53.9411 125.059 62 135 62Z" fill="#E8E6DC"/>
<path d="M283 62C292.941 62 301 53.9411 301 44C301 34.0589 292.941 26 283 26C273.059 26 265 34.0589 265 44C265 53.9411 273.059 62 283 62Z" fill="#E8E6DC"/>
<path d="M434 62C443.941 62 452 53.9411 452 44C452 34.0589 443.941 26 434 26C424.059 26 416 34.0589 416 44C416 53.9411 424.059 62 434 62Z" fill="#E8E6DC"/>
<path d="M134 174C143.941 174 152 165.941 152 156C152 146.059 143.941 138 134 138C124.059 138 116 146.059 116 156C116 165.941 124.059 174 134 174Z" fill="#E8E6DC"/>
<path d="M283 174C292.941 174 301 165.941 301 156C301 146.059 292.941 138 283 138C273.059 138 265 146.059 265 156C265 165.941 273.059 174 283 174Z" fill="#E8E6DC"/>
<path d="M434 174C443.941 174 452 165.941 452 156C452 146.059 443.941 138 434 138C424.059 138 416 146.059 416 156C416 165.941 424.059 174 434 174Z" fill="#DFFF37"/>
<path d="M582 174C591.941 174 600 165.941 600 156C600 146.059 591.941 138 582 138C572.059 138 564 146.059 564 156C564 165.941 572.059 174 582 174Z" fill="#DFFF37"/>
<path d="M135.028 48.5V41.531L133.51 41.968V41.2435L135.35 40.45H136.005V48.5H135.028Z" fill="#171613"/>
<path d="M280.384 48.5V47.8215C280.943 47.3922 281.472 46.959 281.971 46.522C282.469 46.085 282.91 45.6518 283.293 45.2225C283.684 44.7855 283.991 44.36 284.213 43.946C284.436 43.532 284.547 43.1333 284.547 42.75C284.547 42.4663 284.493 42.2057 284.386 41.968C284.286 41.7227 284.125 41.5233 283.903 41.37C283.688 41.2167 283.389 41.14 283.006 41.14C282.645 41.14 282.343 41.2205 282.097 41.3815C281.86 41.5348 281.679 41.7418 281.557 42.0025C281.434 42.2555 281.373 42.5353 281.373 42.842H280.441C280.449 42.313 280.564 41.8607 280.786 41.485C281.009 41.1017 281.311 40.8103 281.695 40.611C282.086 40.4117 282.527 40.312 283.017 40.312C283.508 40.312 283.937 40.404 284.305 40.588C284.681 40.7643 284.976 41.0327 285.191 41.393C285.405 41.7457 285.513 42.1865 285.513 42.7155C285.513 43.0912 285.432 43.4668 285.271 43.8425C285.118 44.2182 284.907 44.5862 284.639 44.9465C284.378 45.2992 284.087 45.6403 283.765 45.97C283.443 46.2997 283.113 46.6102 282.776 46.9015C282.438 47.1928 282.116 47.4573 281.81 47.695H285.789V48.5H280.384Z" fill="#171613"/>
<path d="M433.978 48.638C433.465 48.638 432.997 48.546 432.575 48.362C432.161 48.1703 431.832 47.8867 431.586 47.511C431.341 47.1353 431.211 46.6677 431.195 46.108H432.173C432.181 46.4147 432.253 46.6983 432.391 46.959C432.537 47.212 432.744 47.4152 433.012 47.5685C433.281 47.7218 433.603 47.7985 433.978 47.7985C434.354 47.7985 434.668 47.7257 434.921 47.58C435.174 47.4343 435.366 47.2427 435.496 47.005C435.627 46.7597 435.692 46.4875 435.692 46.1885C435.692 45.8205 435.6 45.5215 435.416 45.2915C435.24 45.0615 434.998 44.8928 434.691 44.7855C434.392 44.6705 434.063 44.613 433.702 44.613H433.104V43.7965H433.702C434.239 43.7965 434.661 43.6738 434.967 43.4285C435.274 43.1832 435.427 42.842 435.427 42.405C435.427 42.0447 435.305 41.7457 435.059 41.508C434.822 41.2703 434.461 41.1515 433.978 41.1515C433.511 41.1515 433.139 41.2818 432.863 41.5425C432.595 41.8032 432.441 42.1367 432.403 42.543H431.425C431.448 42.106 431.567 41.7188 431.782 41.3815C431.997 41.0442 432.292 40.7835 432.667 40.5995C433.043 40.4078 433.48 40.312 433.978 40.312C434.507 40.312 434.952 40.404 435.312 40.588C435.673 40.772 435.945 41.0173 436.129 41.324C436.313 41.6307 436.405 41.9718 436.405 42.3475C436.405 42.6158 436.351 42.8765 436.244 43.1295C436.144 43.3748 435.991 43.5895 435.784 43.7735C435.585 43.9575 435.328 44.0878 435.013 44.1645C435.328 44.2258 435.608 44.3447 435.853 44.521C436.106 44.6973 436.305 44.9273 436.451 45.211C436.597 45.487 436.669 45.8128 436.669 46.1885C436.669 46.6255 436.566 47.0318 436.359 47.4075C436.16 47.7755 435.861 48.0745 435.462 48.3045C435.063 48.5268 434.569 48.638 433.978 48.638Z" fill="#171613"/>
<path d="M134.001 149.7C134.94 149.7 135.701 148.939 135.701 148C135.701 147.061 134.94 146.3 134.001 146.3C133.062 146.3 132.301 147.061 132.301 148C132.301 148.939 133.062 149.7 134.001 149.7Z" fill="#171613"/>
<path d="M134.001 157.7C134.94 157.7 135.701 156.939 135.701 156C135.701 155.061 134.94 154.3 134.001 154.3C133.062 154.3 132.301 155.061 132.301 156C132.301 156.939 133.062 157.7 134.001 157.7Z" fill="#171613"/>
<path d="M134.001 165.7C134.94 165.7 135.701 164.939 135.701 164C135.701 163.061 134.94 162.3 134.001 162.3C133.062 162.3 132.301 163.061 132.301 164C132.301 164.939 133.062 165.7 134.001 165.7Z" fill="#171613"/>
<path d="M126.001 157.7C126.94 157.7 127.701 156.939 127.701 156C127.701 155.061 126.94 154.3 126.001 154.3C125.062 154.3 124.301 155.061 124.301 156C124.301 156.939 125.062 157.7 126.001 157.7Z" fill="#171613"/>
<path d="M142.001 157.7C142.94 157.7 143.701 156.939 143.701 156C143.701 155.061 142.94 154.3 142.001 154.3C141.062 154.3 140.301 155.061 140.301 156C140.301 156.939 141.062 157.7 142.001 157.7Z" fill="#171613"/>
<path d="M128.4 151.8C129.173 151.8 129.8 151.173 129.8 150.4C129.8 149.627 129.173 149 128.4 149C127.627 149 127 149.627 127 150.4C127 151.173 127.627 151.8 128.4 151.8Z" fill="#171613"/>
<path d="M139.599 151.8C140.372 151.8 140.999 151.173 140.999 150.4C140.999 149.627 140.372 149 139.599 149C138.826 149 138.199 149.627 138.199 150.4C138.199 151.173 138.826 151.8 139.599 151.8Z" fill="#171613"/>
<path d="M128.4 163C129.173 163 129.8 162.373 129.8 161.6C129.8 160.827 129.173 160.2 128.4 160.2C127.627 160.2 127 160.827 127 161.6C127 162.373 127.627 163 128.4 163Z" fill="#171613"/>
<path d="M139.599 163C140.372 163 140.999 162.373 140.999 161.6C140.999 160.827 140.372 160.2 139.599 160.2C138.826 160.2 138.199 160.827 138.199 161.6C138.199 162.373 138.826 163 139.599 163Z" fill="#171613"/>
<path d="M283.001 149.7C283.94 149.7 284.701 148.939 284.701 148C284.701 147.061 283.94 146.3 283.001 146.3C282.062 146.3 281.301 147.061 281.301 148C281.301 148.939 282.062 149.7 283.001 149.7Z" fill="#171613"/>
<path d="M283.001 157.7C283.94 157.7 284.701 156.939 284.701 156C284.701 155.061 283.94 154.3 283.001 154.3C282.062 154.3 281.301 155.061 281.301 156C281.301 156.939 282.062 157.7 283.001 157.7Z" fill="#171613"/>
<path d="M283.001 165.7C283.94 165.7 284.701 164.939 284.701 164C284.701 163.061 283.94 162.3 283.001 162.3C282.062 162.3 281.301 163.061 281.301 164C281.301 164.939 282.062 165.7 283.001 165.7Z" fill="#171613"/>
<path d="M275.001 157.7C275.94 157.7 276.701 156.939 276.701 156C276.701 155.061 275.94 154.3 275.001 154.3C274.062 154.3 273.301 155.061 273.301 156C273.301 156.939 274.062 157.7 275.001 157.7Z" fill="#171613"/>
<path d="M291.001 157.7C291.94 157.7 292.701 156.939 292.701 156C292.701 155.061 291.94 154.3 291.001 154.3C290.062 154.3 289.301 155.061 289.301 156C289.301 156.939 290.062 157.7 291.001 157.7Z" fill="#171613"/>
<path d="M277.4 151.8C278.173 151.8 278.8 151.173 278.8 150.4C278.8 149.627 278.173 149 277.4 149C276.627 149 276 149.627 276 150.4C276 151.173 276.627 151.8 277.4 151.8Z" fill="#171613"/>
<path d="M288.599 151.8C289.372 151.8 289.999 151.173 289.999 150.4C289.999 149.627 289.372 149 288.599 149C287.826 149 287.199 149.627 287.199 150.4C287.199 151.173 287.826 151.8 288.599 151.8Z" fill="#171613"/>
<path d="M277.4 163C278.173 163 278.8 162.373 278.8 161.6C278.8 160.827 278.173 160.2 277.4 160.2C276.627 160.2 276 160.827 276 161.6C276 162.373 276.627 163 277.4 163Z" fill="#171613"/>
<path d="M288.599 163C289.372 163 289.999 162.373 289.999 161.6C289.999 160.827 289.372 160.2 288.599 160.2C287.826 160.2 287.199 160.827 287.199 161.6C287.199 162.373 287.826 163 288.599 163Z" fill="#171613"/>
<path d="M434.001 149.7C434.94 149.7 435.701 148.939 435.701 148C435.701 147.061 434.94 146.3 434.001 146.3C433.062 146.3 432.301 147.061 432.301 148C432.301 148.939 433.062 149.7 434.001 149.7Z" fill="#171613"/>
<path d="M434.001 157.7C434.94 157.7 435.701 156.939 435.701 156C435.701 155.061 434.94 154.3 434.001 154.3C433.062 154.3 432.301 155.061 432.301 156C432.301 156.939 433.062 157.7 434.001 157.7Z" fill="#171613"/>
<path d="M434.001 165.7C434.94 165.7 435.701 164.939 435.701 164C435.701 163.061 434.94 162.3 434.001 162.3C433.062 162.3 432.301 163.061 432.301 164C432.301 164.939 433.062 165.7 434.001 165.7Z" fill="#171613"/>
<path d="M426.001 157.7C426.94 157.7 427.701 156.939 427.701 156C427.701 155.061 426.94 154.3 426.001 154.3C425.062 154.3 424.301 155.061 424.301 156C424.301 156.939 425.062 157.7 426.001 157.7Z" fill="#171613"/>
<path d="M442.001 157.7C442.94 157.7 443.701 156.939 443.701 156C443.701 155.061 442.94 154.3 442.001 154.3C441.062 154.3 440.301 155.061 440.301 156C440.301 156.939 441.062 157.7 442.001 157.7Z" fill="#171613"/>
<path d="M428.4 151.8C429.173 151.8 429.8 151.173 429.8 150.4C429.8 149.627 429.173 149 428.4 149C427.627 149 427 149.627 427 150.4C427 151.173 427.627 151.8 428.4 151.8Z" fill="#171613"/>
<path d="M439.599 151.8C440.372 151.8 440.999 151.173 440.999 150.4C440.999 149.627 440.372 149 439.599 149C438.826 149 438.199 149.627 438.199 150.4C438.199 151.173 438.826 151.8 439.599 151.8Z" fill="#171613"/>
<path d="M428.4 163C429.173 163 429.8 162.373 429.8 161.6C429.8 160.827 429.173 160.2 428.4 160.2C427.627 160.2 427 160.827 427 161.6C427 162.373 427.627 163 428.4 163Z" fill="#171613"/>
<path d="M439.599 163C440.372 163 440.999 162.373 440.999 161.6C440.999 160.827 440.372 160.2 439.599 160.2C438.826 160.2 438.199 160.827 438.199 161.6C438.199 162.373 438.826 163 439.599 163Z" fill="#171613"/>
<path d="M582.001 149.7C582.94 149.7 583.701 148.939 583.701 148C583.701 147.061 582.94 146.3 582.001 146.3C581.062 146.3 580.301 147.061 580.301 148C580.301 148.939 581.062 149.7 582.001 149.7Z" fill="#171613"/>
<path d="M582.001 157.7C582.94 157.7 583.701 156.939 583.701 156C583.701 155.061 582.94 154.3 582.001 154.3C581.062 154.3 580.301 155.061 580.301 156C580.301 156.939 581.062 157.7 582.001 157.7Z" fill="#171613"/>
<path d="M582.001 165.7C582.94 165.7 583.701 164.939 583.701 164C583.701 163.061 582.94 162.3 582.001 162.3C581.062 162.3 580.301 163.061 580.301 164C580.301 164.939 581.062 165.7 582.001 165.7Z" fill="#171613"/>
<path d="M574.001 157.7C574.94 157.7 575.701 156.939 575.701 156C575.701 155.061 574.94 154.3 574.001 154.3C573.062 154.3 572.301 155.061 572.301 156C572.301 156.939 573.062 157.7 574.001 157.7Z" fill="#171613"/>
<path d="M590.001 157.7C590.94 157.7 591.701 156.939 591.701 156C591.701 155.061 590.94 154.3 590.001 154.3C589.062 154.3 588.301 155.061 588.301 156C588.301 156.939 589.062 157.7 590.001 157.7Z" fill="#171613"/>
<path d="M576.4 151.8C577.173 151.8 577.8 151.173 577.8 150.4C577.8 149.627 577.173 149 576.4 149C575.627 149 575 149.627 575 150.4C575 151.173 575.627 151.8 576.4 151.8Z" fill="#171613"/>
<path d="M587.599 151.8C588.372 151.8 588.999 151.173 588.999 150.4C588.999 149.627 588.372 149 587.599 149C586.826 149 586.199 149.627 586.199 150.4C586.199 151.173 586.826 151.8 587.599 151.8Z" fill="#171613"/>
<path d="M576.4 163C577.173 163 577.8 162.373 577.8 161.6C577.8 160.827 577.173 160.2 576.4 160.2C575.627 160.2 575 160.827 575 161.6C575 162.373 575.627 163 576.4 163Z" fill="#171613"/>
<path d="M587.599 163C588.372 163 588.999 162.373 588.999 161.6C588.999 160.827 588.372 160.2 587.599 160.2C586.826 160.2 586.199 160.827 586.199 161.6C586.199 162.373 586.826 163 587.599 163Z" fill="#171613"/>
<path d="M171.306 49.168C170.354 49.168 169.528 48.958 168.828 48.538C168.137 48.1087 167.605 47.516 167.232 46.76C166.859 45.9947 166.672 45.108 166.672 44.1C166.672 43.092 166.859 42.21 167.232 41.454C167.605 40.6887 168.137 40.096 168.828 39.676C169.528 39.2467 170.354 39.032 171.306 39.032C172.426 39.032 173.336 39.298 174.036 39.83C174.736 40.362 175.184 41.1133 175.38 42.084H174.078C173.929 41.4773 173.625 40.992 173.168 40.628C172.711 40.2547 172.09 40.068 171.306 40.068C170.606 40.068 169.999 40.2313 169.486 40.558C168.973 40.8753 168.576 41.3373 168.296 41.944C168.016 42.5413 167.876 43.26 167.876 44.1C167.876 44.94 168.016 45.6633 168.296 46.27C168.576 46.8673 168.973 47.3293 169.486 47.656C169.999 47.9733 170.606 48.132 171.306 48.132C172.09 48.132 172.711 47.9547 173.168 47.6C173.625 47.236 173.929 46.7553 174.078 46.158H175.38C175.184 47.1007 174.736 47.838 174.036 48.37C173.336 48.902 172.426 49.168 171.306 49.168ZM179.311 49.168C178.742 49.168 178.266 49.07 177.883 48.874C177.5 48.6687 177.216 48.4027 177.029 48.076C176.842 47.74 176.749 47.376 176.749 46.984C176.749 46.508 176.87 46.1067 177.113 45.78C177.365 45.444 177.715 45.192 178.163 45.024C178.62 44.8467 179.157 44.758 179.773 44.758H181.635C181.635 44.3193 181.565 43.9553 181.425 43.666C181.294 43.3673 181.098 43.1433 180.837 42.994C180.585 42.8447 180.268 42.77 179.885 42.77C179.437 42.77 179.05 42.882 178.723 43.106C178.396 43.33 178.196 43.6613 178.121 44.1H176.917C176.973 43.596 177.141 43.176 177.421 42.84C177.71 42.4947 178.074 42.2333 178.513 42.056C178.952 41.8693 179.409 41.776 179.885 41.776C180.538 41.776 181.08 41.8973 181.509 42.14C181.948 42.3733 182.274 42.7047 182.489 43.134C182.704 43.554 182.811 44.0533 182.811 44.632V49H181.761L181.691 47.754C181.598 47.95 181.476 48.1367 181.327 48.314C181.187 48.482 181.019 48.6313 180.823 48.762C180.627 48.8833 180.403 48.9813 180.151 49.056C179.908 49.1307 179.628 49.168 179.311 49.168ZM179.493 48.174C179.82 48.174 180.114 48.1087 180.375 47.978C180.646 47.838 180.874 47.6513 181.061 47.418C181.248 47.1753 181.388 46.9093 181.481 46.62C181.584 46.3307 181.635 46.0273 181.635 45.71V45.668H179.871C179.414 45.668 179.045 45.724 178.765 45.836C178.485 45.9387 178.284 46.088 178.163 46.284C178.042 46.4707 177.981 46.6853 177.981 46.928C177.981 47.18 178.037 47.3993 178.149 47.586C178.27 47.7727 178.443 47.9173 178.667 48.02C178.9 48.1227 179.176 48.174 179.493 48.174ZM184.63 52.08V41.944H185.694L185.792 43.092C185.942 42.868 186.133 42.658 186.366 42.462C186.6 42.2567 186.88 42.0933 187.206 41.972C187.533 41.8413 187.906 41.776 188.326 41.776C189.017 41.776 189.614 41.9393 190.118 42.266C190.632 42.5927 191.028 43.036 191.308 43.596C191.598 44.1467 191.742 44.7767 191.742 45.486C191.742 46.1953 191.598 46.83 191.308 47.39C191.028 47.9407 190.632 48.3747 190.118 48.692C189.605 49.0093 189.003 49.168 188.312 49.168C187.743 49.168 187.239 49.0513 186.8 48.818C186.371 48.5847 186.04 48.258 185.806 47.838V52.08H184.63ZM188.186 48.146C188.644 48.146 189.05 48.034 189.404 47.81C189.759 47.586 190.034 47.278 190.23 46.886C190.436 46.4847 190.538 46.0133 190.538 45.472C190.538 44.94 190.436 44.4733 190.23 44.072C190.034 43.6707 189.759 43.358 189.404 43.134C189.05 42.91 188.644 42.798 188.186 42.798C187.72 42.798 187.309 42.91 186.954 43.134C186.6 43.358 186.324 43.6707 186.128 44.072C185.932 44.4733 185.834 44.94 185.834 45.472C185.834 46.0133 185.932 46.4847 186.128 46.886C186.324 47.278 186.6 47.586 186.954 47.81C187.309 48.034 187.72 48.146 188.186 48.146ZM195.893 49C195.473 49 195.109 48.9347 194.801 48.804C194.493 48.6733 194.255 48.454 194.087 48.146C193.928 47.8287 193.849 47.404 193.849 46.872V42.938H192.617V41.944H193.849L194.003 40.236H195.025V41.944H197.069V42.938H195.025V46.872C195.025 47.3107 195.113 47.6093 195.291 47.768C195.468 47.9173 195.781 47.992 196.229 47.992H196.985V49H195.893ZM201.165 49.168C200.624 49.168 200.148 49.0607 199.737 48.846C199.336 48.6313 199.023 48.3 198.799 47.852C198.584 47.404 198.477 46.844 198.477 46.172V41.944H199.653V46.046C199.653 46.746 199.807 47.2733 200.115 47.628C200.423 47.9827 200.857 48.16 201.417 48.16C201.809 48.16 202.164 48.0667 202.481 47.88C202.798 47.684 203.046 47.4087 203.223 47.054C203.41 46.69 203.503 46.2467 203.503 45.724V41.944H204.679V49H203.615L203.545 47.768C203.33 48.2067 203.013 48.552 202.593 48.804C202.173 49.0467 201.697 49.168 201.165 49.168ZM206.628 49V41.944H207.692L207.776 43.288C207.935 42.9707 208.136 42.7 208.378 42.476C208.63 42.252 208.929 42.0793 209.274 41.958C209.629 41.8367 210.03 41.776 210.478 41.776V43.008H210.044C209.746 43.008 209.461 43.05 209.19 43.134C208.92 43.2087 208.677 43.3347 208.462 43.512C208.257 43.6893 208.094 43.932 207.972 44.24C207.86 44.5387 207.804 44.912 207.804 45.36V49H206.628ZM214.644 49.168C213.982 49.168 213.394 49.014 212.88 48.706C212.376 48.398 211.98 47.9687 211.69 47.418C211.401 46.858 211.256 46.2093 211.256 45.472C211.256 44.7253 211.396 44.0767 211.676 43.526C211.966 42.9753 212.367 42.546 212.88 42.238C213.403 41.93 214 41.776 214.672 41.776C215.363 41.776 215.946 41.93 216.422 42.238C216.908 42.546 217.276 42.952 217.528 43.456C217.79 43.9507 217.92 44.4967 217.92 45.094C217.92 45.1873 217.92 45.2853 217.92 45.388C217.92 45.4907 217.916 45.6073 217.906 45.738H212.138V44.828H216.772C216.744 44.184 216.53 43.68 216.128 43.316C215.736 42.952 215.242 42.77 214.644 42.77C214.243 42.77 213.87 42.8633 213.524 43.05C213.188 43.2273 212.918 43.4933 212.712 43.848C212.507 44.1933 212.404 44.6273 212.404 45.15V45.542C212.404 46.1207 212.507 46.606 212.712 46.998C212.927 47.39 213.202 47.684 213.538 47.88C213.884 48.076 214.252 48.174 214.644 48.174C215.139 48.174 215.545 48.0667 215.862 47.852C216.189 47.628 216.422 47.3293 216.562 46.956H217.724C217.612 47.376 217.416 47.754 217.136 48.09C216.856 48.426 216.506 48.692 216.086 48.888C215.676 49.0747 215.195 49.168 214.644 49.168Z" fill="#171613"/>
<path d="M316.418 49.168C315.475 49.168 314.645 48.958 313.926 48.538C313.217 48.1087 312.661 47.516 312.26 46.76C311.868 45.9947 311.672 45.108 311.672 44.1C311.672 43.1013 311.868 42.224 312.26 41.468C312.661 40.7027 313.217 40.1053 313.926 39.676C314.645 39.2467 315.475 39.032 316.418 39.032C317.379 39.032 318.215 39.2467 318.924 39.676C319.633 40.1053 320.184 40.7027 320.576 41.468C320.977 42.224 321.178 43.1013 321.178 44.1C321.178 45.108 320.977 45.9947 320.576 46.76C320.184 47.516 319.633 48.1087 318.924 48.538C318.215 48.958 317.379 49.168 316.418 49.168ZM316.418 48.132C317.127 48.132 317.748 47.9733 318.28 47.656C318.821 47.3293 319.237 46.8673 319.526 46.27C319.825 45.6633 319.974 44.94 319.974 44.1C319.974 43.26 319.825 42.5413 319.526 41.944C319.237 41.3373 318.821 40.8753 318.28 40.558C317.748 40.2407 317.127 40.082 316.418 40.082C315.718 40.082 315.097 40.2407 314.556 40.558C314.024 40.8753 313.609 41.3373 313.31 41.944C313.021 42.5413 312.876 43.26 312.876 44.1C312.876 44.94 313.021 45.6633 313.31 46.27C313.609 46.8673 314.024 47.3293 314.556 47.656C315.097 47.9733 315.718 48.132 316.418 48.132ZM322.822 49V41.944H323.886L323.97 43.288C324.128 42.9707 324.329 42.7 324.572 42.476C324.824 42.252 325.122 42.0793 325.468 41.958C325.822 41.8367 326.224 41.776 326.672 41.776V43.008H326.238C325.939 43.008 325.654 43.05 325.384 43.134C325.113 43.2087 324.87 43.3347 324.656 43.512C324.45 43.6893 324.287 43.932 324.166 44.24C324.054 44.5387 323.998 44.912 323.998 45.36V49H322.822ZM330.625 52.248C329.991 52.248 329.426 52.164 328.931 51.996C328.446 51.8373 328.068 51.59 327.797 51.254C327.527 50.918 327.391 50.5027 327.391 50.008C327.391 49.7933 327.433 49.5647 327.517 49.322C327.611 49.0793 327.765 48.8413 327.979 48.608C328.203 48.3747 328.516 48.1647 328.917 47.978L329.729 48.454C329.235 48.6593 328.913 48.8927 328.763 49.154C328.614 49.4247 328.539 49.672 328.539 49.896C328.539 50.204 328.628 50.4607 328.805 50.666C328.983 50.8713 329.23 51.0253 329.547 51.128C329.865 51.2307 330.224 51.282 330.625 51.282C331.027 51.282 331.372 51.226 331.661 51.114C331.951 51.002 332.175 50.8433 332.333 50.638C332.492 50.4327 332.571 50.19 332.571 49.91C332.571 49.5833 332.45 49.308 332.207 49.084C331.965 48.8693 331.503 48.7433 330.821 48.706C330.271 48.6687 329.809 48.6173 329.435 48.552C329.062 48.4867 328.754 48.412 328.511 48.328C328.269 48.2347 328.063 48.132 327.895 48.02C327.737 47.908 327.592 47.7913 327.461 47.67V47.348L328.819 46.004L329.841 46.368L328.441 47.628L328.623 47.138C328.726 47.2127 328.824 47.2827 328.917 47.348C329.011 47.4133 329.137 47.4693 329.295 47.516C329.454 47.5627 329.673 47.6047 329.953 47.642C330.243 47.6793 330.621 47.7167 331.087 47.754C331.731 47.8007 332.245 47.9127 332.627 48.09C333.019 48.2673 333.299 48.5053 333.467 48.804C333.645 49.1027 333.733 49.4573 333.733 49.868C333.733 50.2693 333.621 50.6473 333.397 51.002C333.183 51.366 332.847 51.6647 332.389 51.898C331.932 52.1313 331.344 52.248 330.625 52.248ZM330.611 46.788C330.023 46.788 329.519 46.676 329.099 46.452C328.689 46.228 328.376 45.9293 328.161 45.556C327.947 45.1733 327.839 44.7487 327.839 44.282C327.839 43.8153 327.947 43.3953 328.161 43.022C328.385 42.6487 328.703 42.35 329.113 42.126C329.524 41.8927 330.023 41.776 330.611 41.776C331.199 41.776 331.699 41.8927 332.109 42.126C332.52 42.35 332.833 42.6487 333.047 43.022C333.262 43.3953 333.369 43.8153 333.369 44.282C333.369 44.7487 333.262 45.1733 333.047 45.556C332.833 45.9293 332.52 46.228 332.109 46.452C331.699 46.676 331.199 46.788 330.611 46.788ZM330.611 45.822C331.115 45.822 331.512 45.6913 331.801 45.43C332.091 45.1687 332.235 44.786 332.235 44.282C332.235 43.7873 332.091 43.4093 331.801 43.148C331.512 42.8867 331.115 42.756 330.611 42.756C330.117 42.756 329.715 42.8867 329.407 43.148C329.109 43.4093 328.959 43.7873 328.959 44.282C328.959 44.786 329.109 45.1687 329.407 45.43C329.706 45.6913 330.107 45.822 330.611 45.822ZM331.759 42.938L331.409 41.944H334.293V42.826L331.759 42.938ZM337.942 49.168C337.373 49.168 336.897 49.07 336.514 48.874C336.131 48.6687 335.847 48.4027 335.66 48.076C335.473 47.74 335.38 47.376 335.38 46.984C335.38 46.508 335.501 46.1067 335.744 45.78C335.996 45.444 336.346 45.192 336.794 45.024C337.251 44.8467 337.788 44.758 338.404 44.758H340.266C340.266 44.3193 340.196 43.9553 340.056 43.666C339.925 43.3673 339.729 43.1433 339.468 42.994C339.216 42.8447 338.899 42.77 338.516 42.77C338.068 42.77 337.681 42.882 337.354 43.106C337.027 43.33 336.827 43.6613 336.752 44.1H335.548C335.604 43.596 335.772 43.176 336.052 42.84C336.341 42.4947 336.705 42.2333 337.144 42.056C337.583 41.8693 338.04 41.776 338.516 41.776C339.169 41.776 339.711 41.8973 340.14 42.14C340.579 42.3733 340.905 42.7047 341.12 43.134C341.335 43.554 341.442 44.0533 341.442 44.632V49H340.392L340.322 47.754C340.229 47.95 340.107 48.1367 339.958 48.314C339.818 48.482 339.65 48.6313 339.454 48.762C339.258 48.8833 339.034 48.9813 338.782 49.056C338.539 49.1307 338.259 49.168 337.942 49.168ZM338.124 48.174C338.451 48.174 338.745 48.1087 339.006 47.978C339.277 47.838 339.505 47.6513 339.692 47.418C339.879 47.1753 340.019 46.9093 340.112 46.62C340.215 46.3307 340.266 46.0273 340.266 45.71V45.668H338.502C338.045 45.668 337.676 45.724 337.396 45.836C337.116 45.9387 336.915 46.088 336.794 46.284C336.673 46.4707 336.612 46.6853 336.612 46.928C336.612 47.18 336.668 47.3993 336.78 47.586C336.901 47.7727 337.074 47.9173 337.298 48.02C337.531 48.1227 337.807 48.174 338.124 48.174ZM343.261 49V41.944H344.325L344.381 43.176C344.605 42.7373 344.923 42.3967 345.333 42.154C345.753 41.902 346.229 41.776 346.761 41.776C347.312 41.776 347.788 41.888 348.189 42.112C348.591 42.3267 348.903 42.658 349.127 43.106C349.351 43.5447 349.463 44.1047 349.463 44.786V49H348.287V44.912C348.287 44.2027 348.129 43.6707 347.811 43.316C347.503 42.9613 347.065 42.784 346.495 42.784C346.103 42.784 345.753 42.882 345.445 43.078C345.137 43.2647 344.89 43.54 344.703 43.904C344.526 44.2587 344.437 44.702 344.437 45.234V49H343.261ZM351.412 49V41.944H352.588V49H351.412ZM352 40.446C351.767 40.446 351.571 40.3713 351.412 40.222C351.263 40.0633 351.188 39.8673 351.188 39.634C351.188 39.4007 351.263 39.214 351.412 39.074C351.571 38.9247 351.767 38.85 352 38.85C352.224 38.85 352.416 38.9247 352.574 39.074C352.733 39.214 352.812 39.4007 352.812 39.634C352.812 39.8673 352.733 40.0633 352.574 40.222C352.416 40.3713 352.224 40.446 352 40.446ZM354.188 49V48.034L358.094 42.924H354.258V41.944H359.438V42.91L355.518 48.02H359.508V49H354.188ZM364.17 49.168C363.507 49.168 362.919 49.014 362.406 48.706C361.902 48.398 361.505 47.9687 361.216 47.418C360.926 46.858 360.782 46.2093 360.782 45.472C360.782 44.7253 360.922 44.0767 361.202 43.526C361.491 42.9753 361.892 42.546 362.406 42.238C362.928 41.93 363.526 41.776 364.198 41.776C364.888 41.776 365.472 41.93 365.948 42.238C366.433 42.546 366.802 42.952 367.054 43.456C367.315 43.9507 367.446 44.4967 367.446 45.094C367.446 45.1873 367.446 45.2853 367.446 45.388C367.446 45.4907 367.441 45.6073 367.432 45.738H361.664V44.828H366.298C366.27 44.184 366.055 43.68 365.654 43.316C365.262 42.952 364.767 42.77 364.17 42.77C363.768 42.77 363.395 42.8633 363.05 43.05C362.714 43.2273 362.443 43.4933 362.238 43.848C362.032 44.1933 361.93 44.6273 361.93 45.15V45.542C361.93 46.1207 362.032 46.606 362.238 46.998C362.452 47.39 362.728 47.684 363.064 47.88C363.409 48.076 363.778 48.174 364.17 48.174C364.664 48.174 365.07 48.0667 365.388 47.852C365.714 47.628 365.948 47.3293 366.088 46.956H367.25C367.138 47.376 366.942 47.754 366.662 48.09C366.382 48.426 366.032 48.692 365.612 48.888C365.201 49.0747 364.72 49.168 364.17 49.168Z" fill="#171613"/>
<path d="M465.05 49V39.2H468.214C468.979 39.2 469.605 39.3307 470.09 39.592C470.575 39.844 470.935 40.1847 471.168 40.614C471.401 41.0433 471.518 41.5287 471.518 42.07C471.518 42.5927 471.397 43.0733 471.154 43.512C470.921 43.9507 470.557 44.3007 470.062 44.562C469.567 44.8233 468.933 44.954 468.158 44.954H466.226V49H465.05ZM470.23 49L468.074 44.618H469.39L471.616 49H470.23ZM466.226 44.03H468.13C468.877 44.03 469.423 43.848 469.768 43.484C470.123 43.12 470.3 42.6533 470.3 42.084C470.3 41.5053 470.127 41.048 469.782 40.712C469.446 40.3667 468.891 40.194 468.116 40.194H466.226V44.03ZM475.963 49.168C475.3 49.168 474.712 49.014 474.199 48.706C473.695 48.398 473.298 47.9687 473.009 47.418C472.719 46.858 472.575 46.2093 472.575 45.472C472.575 44.7253 472.715 44.0767 472.995 43.526C473.284 42.9753 473.685 42.546 474.199 42.238C474.721 41.93 475.319 41.776 475.991 41.776C476.681 41.776 477.265 41.93 477.741 42.238C478.226 42.546 478.595 42.952 478.847 43.456C479.108 43.9507 479.239 44.4967 479.239 45.094C479.239 45.1873 479.239 45.2853 479.239 45.388C479.239 45.4907 479.234 45.6073 479.225 45.738H473.457V44.828H478.091C478.063 44.184 477.848 43.68 477.447 43.316C477.055 42.952 476.56 42.77 475.963 42.77C475.561 42.77 475.188 42.8633 474.843 43.05C474.507 43.2273 474.236 43.4933 474.031 43.848C473.825 44.1933 473.723 44.6273 473.723 45.15V45.542C473.723 46.1207 473.825 46.606 474.031 46.998C474.245 47.39 474.521 47.684 474.857 47.88C475.202 48.076 475.571 48.174 475.963 48.174C476.457 48.174 476.863 48.0667 477.181 47.852C477.507 47.628 477.741 47.3293 477.881 46.956H479.043C478.931 47.376 478.735 47.754 478.455 48.09C478.175 48.426 477.825 48.692 477.405 48.888C476.994 49.0747 476.513 49.168 475.963 49.168ZM483.365 49C482.945 49 482.581 48.9347 482.273 48.804C481.965 48.6733 481.727 48.454 481.559 48.146C481.401 47.8287 481.321 47.404 481.321 46.872V42.938H480.089V41.944H481.321L481.475 40.236H482.497V41.944H484.541V42.938H482.497V46.872C482.497 47.3107 482.586 47.6093 482.763 47.768C482.941 47.9173 483.253 47.992 483.701 47.992H484.457V49H483.365ZM486.076 49V41.944H487.14L487.224 43.288C487.382 42.9707 487.583 42.7 487.826 42.476C488.078 42.252 488.376 42.0793 488.722 41.958C489.076 41.8367 489.478 41.776 489.926 41.776V43.008H489.492C489.193 43.008 488.908 43.05 488.638 43.134C488.367 43.2087 488.124 43.3347 487.91 43.512C487.704 43.6893 487.541 43.932 487.42 44.24C487.308 44.5387 487.252 44.912 487.252 45.36V49H486.076ZM491.369 49V41.944H492.545V49H491.369ZM491.957 40.446C491.724 40.446 491.528 40.3713 491.369 40.222C491.22 40.0633 491.145 39.8673 491.145 39.634C491.145 39.4007 491.22 39.214 491.369 39.074C491.528 38.9247 491.724 38.85 491.957 38.85C492.181 38.85 492.373 38.9247 492.531 39.074C492.69 39.214 492.769 39.4007 492.769 39.634C492.769 39.8673 492.69 40.0633 492.531 40.222C492.373 40.3713 492.181 40.446 491.957 40.446ZM497.715 49.168C497.052 49.168 496.464 49.014 495.951 48.706C495.447 48.398 495.05 47.9687 494.761 47.418C494.471 46.858 494.327 46.2093 494.327 45.472C494.327 44.7253 494.467 44.0767 494.747 43.526C495.036 42.9753 495.437 42.546 495.951 42.238C496.473 41.93 497.071 41.776 497.743 41.776C498.433 41.776 499.017 41.93 499.493 42.238C499.978 42.546 500.347 42.952 500.599 43.456C500.86 43.9507 500.991 44.4967 500.991 45.094C500.991 45.1873 500.991 45.2853 500.991 45.388C500.991 45.4907 500.986 45.6073 500.977 45.738H495.209V44.828H499.843C499.815 44.184 499.6 43.68 499.199 43.316C498.807 42.952 498.312 42.77 497.715 42.77C497.313 42.77 496.94 42.8633 496.595 43.05C496.259 43.2273 495.988 43.4933 495.783 43.848C495.577 44.1933 495.475 44.6273 495.475 45.15V45.542C495.475 46.1207 495.577 46.606 495.783 46.998C495.997 47.39 496.273 47.684 496.609 47.88C496.954 48.076 497.323 48.174 497.715 48.174C498.209 48.174 498.615 48.0667 498.933 47.852C499.259 47.628 499.493 47.3293 499.633 46.956H500.795C500.683 47.376 500.487 47.754 500.207 48.09C499.927 48.426 499.577 48.692 499.157 48.888C498.746 49.0747 498.265 49.168 497.715 49.168ZM504.334 49L501.66 41.944H502.892L505.02 47.866L507.162 41.944H508.366L505.692 49H504.334ZM512.426 49.168C511.763 49.168 511.175 49.014 510.662 48.706C510.158 48.398 509.761 47.9687 509.472 47.418C509.182 46.858 509.038 46.2093 509.038 45.472C509.038 44.7253 509.178 44.0767 509.458 43.526C509.747 42.9753 510.148 42.546 510.662 42.238C511.184 41.93 511.782 41.776 512.454 41.776C513.144 41.776 513.728 41.93 514.204 42.238C514.689 42.546 515.058 42.952 515.31 43.456C515.571 43.9507 515.702 44.4967 515.702 45.094C515.702 45.1873 515.702 45.2853 515.702 45.388C515.702 45.4907 515.697 45.6073 515.688 45.738H509.92V44.828H514.554C514.526 44.184 514.311 43.68 513.91 43.316C513.518 42.952 513.023 42.77 512.426 42.77C512.024 42.77 511.651 42.8633 511.306 43.05C510.97 43.2273 510.699 43.4933 510.494 43.848C510.288 44.1933 510.186 44.6273 510.186 45.15V45.542C510.186 46.1207 510.288 46.606 510.494 46.998C510.708 47.39 510.984 47.684 511.32 47.88C511.665 48.076 512.034 48.174 512.426 48.174C512.92 48.174 513.326 48.0667 513.644 47.852C513.97 47.628 514.204 47.3293 514.344 46.956H515.506C515.394 47.376 515.198 47.754 514.918 48.09C514.638 48.426 514.288 48.692 513.868 48.888C513.457 49.0747 512.976 49.168 512.426 49.168Z" fill="#171613"/>
<g filter="url(#filter7_d_1154_1712)">
<rect x="561" y="22" width="130" height="44" rx="22" fill="white"/>
<path d="M586 62C595.941 62 604 53.9411 604 44C604 34.0589 595.941 26 586 26C576.059 26 568 34.0589 568 44C568 53.9411 576.059 62 586 62Z" fill="#E8E6DC"/>
<path d="M587.216 48.5V46.775H583.133V46.0275L587.043 40.45H588.17V45.924H589.366V46.775H588.17V48.5H587.216ZM584.203 45.924H587.262V41.5195L584.203 45.924Z" fill="#171613"/>
<path d="M617.42 49L621.032 39.2H622.278L625.876 49H624.63L621.648 40.67L618.652 49H617.42ZM619.072 46.48L619.408 45.528H623.846L624.182 46.48H619.072ZM630.072 49.168C629.409 49.168 628.812 49.014 628.28 48.706C627.757 48.398 627.347 47.9687 627.048 47.418C626.749 46.858 626.6 46.214 626.6 45.486C626.6 44.7393 626.749 44.0907 627.048 43.54C627.347 42.9893 627.757 42.56 628.28 42.252C628.812 41.9347 629.409 41.776 630.072 41.776C630.912 41.776 631.612 41.9953 632.172 42.434C632.732 42.8633 633.087 43.442 633.236 44.17H632.032C631.939 43.7313 631.71 43.3907 631.346 43.148C630.982 42.9053 630.553 42.784 630.058 42.784C629.657 42.784 629.283 42.8867 628.938 43.092C628.593 43.288 628.317 43.5867 628.112 43.988C627.907 44.3893 627.804 44.884 627.804 45.472C627.804 45.9107 627.865 46.3027 627.986 46.648C628.107 46.984 628.271 47.264 628.476 47.488C628.681 47.712 628.919 47.8847 629.19 48.006C629.47 48.118 629.759 48.174 630.058 48.174C630.394 48.174 630.697 48.1227 630.968 48.02C631.239 47.908 631.467 47.7447 631.654 47.53C631.841 47.3153 631.967 47.0633 632.032 46.774H633.236C633.087 47.4833 632.727 48.062 632.158 48.51C631.598 48.9487 630.903 49.168 630.072 49.168ZM637.486 49C637.066 49 636.702 48.9347 636.394 48.804C636.086 48.6733 635.848 48.454 635.68 48.146C635.522 47.8287 635.442 47.404 635.442 46.872V42.938H634.21V41.944H635.442L635.596 40.236H636.618V41.944H638.662V42.938H636.618V46.872C636.618 47.3107 636.707 47.6093 636.884 47.768C637.062 47.9173 637.374 47.992 637.822 47.992H638.578V49H637.486Z" fill="#171613"/>
</g>
<path d="M167.05 160V150.2H170.494C171.185 150.2 171.754 150.312 172.202 150.536C172.659 150.751 173 151.049 173.224 151.432C173.448 151.805 173.56 152.225 173.56 152.692C173.56 153.196 173.448 153.616 173.224 153.952C173.009 154.288 172.725 154.545 172.37 154.722C172.025 154.899 171.656 155.007 171.264 155.044L171.46 154.904C171.88 154.913 172.267 155.025 172.622 155.24C172.977 155.455 173.257 155.744 173.462 156.108C173.677 156.472 173.784 156.878 173.784 157.326C173.784 157.821 173.663 158.273 173.42 158.684C173.177 159.085 172.818 159.407 172.342 159.65C171.875 159.883 171.297 160 170.606 160H167.05ZM168.226 159.02H170.48C171.143 159.02 171.656 158.866 172.02 158.558C172.393 158.241 172.58 157.802 172.58 157.242C172.58 156.691 172.389 156.253 172.006 155.926C171.633 155.59 171.115 155.422 170.452 155.422H168.226V159.02ZM168.226 154.484H170.41C171.045 154.484 171.525 154.335 171.852 154.036C172.188 153.737 172.356 153.331 172.356 152.818C172.356 152.323 172.188 151.927 171.852 151.628C171.525 151.329 171.031 151.18 170.368 151.18H168.226V154.484ZM177.978 160.168C177.436 160.168 176.96 160.061 176.55 159.846C176.148 159.631 175.836 159.3 175.612 158.852C175.397 158.404 175.29 157.844 175.29 157.172V152.944H176.466V157.046C176.466 157.746 176.62 158.273 176.928 158.628C177.236 158.983 177.67 159.16 178.23 159.16C178.622 159.16 178.976 159.067 179.294 158.88C179.611 158.684 179.858 158.409 180.036 158.054C180.222 157.69 180.316 157.247 180.316 156.724V152.944H181.492V160H180.428L180.358 158.768C180.143 159.207 179.826 159.552 179.406 159.804C178.986 160.047 178.51 160.168 177.978 160.168ZM183.441 160V152.944H184.505L184.589 154.288C184.748 153.971 184.948 153.7 185.191 153.476C185.443 153.252 185.742 153.079 186.087 152.958C186.442 152.837 186.843 152.776 187.291 152.776V154.008H186.857C186.558 154.008 186.274 154.05 186.003 154.134C185.732 154.209 185.49 154.335 185.275 154.512C185.07 154.689 184.906 154.932 184.785 155.24C184.673 155.539 184.617 155.912 184.617 156.36V160H183.441ZM191.283 160.168C190.695 160.168 190.181 160.07 189.743 159.874C189.313 159.678 188.968 159.407 188.707 159.062C188.455 158.707 188.301 158.292 188.245 157.816H189.449C189.495 158.059 189.593 158.283 189.743 158.488C189.892 158.693 190.093 158.861 190.345 158.992C190.606 159.113 190.923 159.174 191.297 159.174C191.623 159.174 191.894 159.127 192.109 159.034C192.323 158.931 192.482 158.796 192.585 158.628C192.697 158.46 192.753 158.278 192.753 158.082C192.753 157.793 192.683 157.573 192.543 157.424C192.412 157.275 192.216 157.158 191.955 157.074C191.693 156.981 191.376 156.901 191.003 156.836C190.695 156.78 190.391 156.705 190.093 156.612C189.794 156.519 189.528 156.397 189.295 156.248C189.061 156.089 188.875 155.898 188.735 155.674C188.604 155.45 188.539 155.175 188.539 154.848C188.539 154.447 188.641 154.092 188.847 153.784C189.052 153.467 189.346 153.219 189.729 153.042C190.121 152.865 190.573 152.776 191.087 152.776C191.843 152.776 192.454 152.958 192.921 153.322C193.387 153.686 193.663 154.213 193.747 154.904H192.585C192.538 154.549 192.384 154.274 192.123 154.078C191.871 153.873 191.521 153.77 191.073 153.77C190.634 153.77 190.298 153.859 190.065 154.036C189.841 154.213 189.729 154.447 189.729 154.736C189.729 154.923 189.789 155.091 189.911 155.24C190.041 155.38 190.228 155.501 190.471 155.604C190.723 155.707 191.031 155.791 191.395 155.856C191.861 155.94 192.286 156.052 192.669 156.192C193.051 156.332 193.359 156.542 193.593 156.822C193.835 157.093 193.957 157.48 193.957 157.984C193.957 158.423 193.845 158.805 193.621 159.132C193.406 159.459 193.098 159.715 192.697 159.902C192.295 160.079 191.824 160.168 191.283 160.168ZM198.107 160C197.687 160 197.323 159.935 197.015 159.804C196.707 159.673 196.469 159.454 196.301 159.146C196.143 158.829 196.063 158.404 196.063 157.872V153.938H194.831V152.944H196.063L196.217 151.236H197.239V152.944H199.283V153.938H197.239V157.872C197.239 158.311 197.328 158.609 197.505 158.768C197.683 158.917 197.995 158.992 198.443 158.992H199.199V160H198.107Z" fill="#171613"/>
<path d="M312.05 160V150.2H318.014V151.166H313.226V154.61H317.3V155.562H313.226V160H312.05ZM319.472 160V152.944H320.536L320.62 154.288C320.779 153.971 320.98 153.7 321.222 153.476C321.474 153.252 321.773 153.079 322.118 152.958C322.473 152.837 322.874 152.776 323.322 152.776V154.008H322.888C322.59 154.008 322.305 154.05 322.034 154.134C321.764 154.209 321.521 154.335 321.306 154.512C321.101 154.689 320.938 154.932 320.816 155.24C320.704 155.539 320.648 155.912 320.648 156.36V160H319.472ZM326.95 160.168C326.38 160.168 325.904 160.07 325.522 159.874C325.139 159.669 324.854 159.403 324.668 159.076C324.481 158.74 324.388 158.376 324.388 157.984C324.388 157.508 324.509 157.107 324.752 156.78C325.004 156.444 325.354 156.192 325.802 156.024C326.259 155.847 326.796 155.758 327.412 155.758H329.274C329.274 155.319 329.204 154.955 329.064 154.666C328.933 154.367 328.737 154.143 328.476 153.994C328.224 153.845 327.906 153.77 327.524 153.77C327.076 153.77 326.688 153.882 326.362 154.106C326.035 154.33 325.834 154.661 325.76 155.1H324.556C324.612 154.596 324.78 154.176 325.06 153.84C325.349 153.495 325.713 153.233 326.152 153.056C326.59 152.869 327.048 152.776 327.524 152.776C328.177 152.776 328.718 152.897 329.148 153.14C329.586 153.373 329.913 153.705 330.128 154.134C330.342 154.554 330.45 155.053 330.45 155.632V160H329.4L329.33 158.754C329.236 158.95 329.115 159.137 328.966 159.314C328.826 159.482 328.658 159.631 328.462 159.762C328.266 159.883 328.042 159.981 327.79 160.056C327.547 160.131 327.267 160.168 326.95 160.168ZM327.132 159.174C327.458 159.174 327.752 159.109 328.014 158.978C328.284 158.838 328.513 158.651 328.7 158.418C328.886 158.175 329.026 157.909 329.12 157.62C329.222 157.331 329.274 157.027 329.274 156.71V156.668H327.51C327.052 156.668 326.684 156.724 326.404 156.836C326.124 156.939 325.923 157.088 325.802 157.284C325.68 157.471 325.62 157.685 325.62 157.928C325.62 158.18 325.676 158.399 325.788 158.586C325.909 158.773 326.082 158.917 326.306 159.02C326.539 159.123 326.814 159.174 327.132 159.174ZM335.055 163.248C334.42 163.248 333.856 163.164 333.361 162.996C332.876 162.837 332.498 162.59 332.227 162.254C331.956 161.918 331.821 161.503 331.821 161.008C331.821 160.793 331.863 160.565 331.947 160.322C332.04 160.079 332.194 159.841 332.409 159.608C332.633 159.375 332.946 159.165 333.347 158.978L334.159 159.454C333.664 159.659 333.342 159.893 333.193 160.154C333.044 160.425 332.969 160.672 332.969 160.896C332.969 161.204 333.058 161.461 333.235 161.666C333.412 161.871 333.66 162.025 333.977 162.128C334.294 162.231 334.654 162.282 335.055 162.282C335.456 162.282 335.802 162.226 336.091 162.114C336.38 162.002 336.604 161.843 336.763 161.638C336.922 161.433 337.001 161.19 337.001 160.91C337.001 160.583 336.88 160.308 336.637 160.084C336.394 159.869 335.932 159.743 335.251 159.706C334.7 159.669 334.238 159.617 333.865 159.552C333.492 159.487 333.184 159.412 332.941 159.328C332.698 159.235 332.493 159.132 332.325 159.02C332.166 158.908 332.022 158.791 331.891 158.67V158.348L333.249 157.004L334.271 157.368L332.871 158.628L333.053 158.138C333.156 158.213 333.254 158.283 333.347 158.348C333.44 158.413 333.566 158.469 333.725 158.516C333.884 158.563 334.103 158.605 334.383 158.642C334.672 158.679 335.05 158.717 335.517 158.754C336.161 158.801 336.674 158.913 337.057 159.09C337.449 159.267 337.729 159.505 337.897 159.804C338.074 160.103 338.163 160.457 338.163 160.868C338.163 161.269 338.051 161.647 337.827 162.002C337.612 162.366 337.276 162.665 336.819 162.898C336.362 163.131 335.774 163.248 335.055 163.248ZM335.041 157.788C334.453 157.788 333.949 157.676 333.529 157.452C333.118 157.228 332.806 156.929 332.591 156.556C332.376 156.173 332.269 155.749 332.269 155.282C332.269 154.815 332.376 154.395 332.591 154.022C332.815 153.649 333.132 153.35 333.543 153.126C333.954 152.893 334.453 152.776 335.041 152.776C335.629 152.776 336.128 152.893 336.539 153.126C336.95 153.35 337.262 153.649 337.477 154.022C337.692 154.395 337.799 154.815 337.799 155.282C337.799 155.749 337.692 156.173 337.477 156.556C337.262 156.929 336.95 157.228 336.539 157.452C336.128 157.676 335.629 157.788 335.041 157.788ZM335.041 156.822C335.545 156.822 335.942 156.691 336.231 156.43C336.52 156.169 336.665 155.786 336.665 155.282C336.665 154.787 336.52 154.409 336.231 154.148C335.942 153.887 335.545 153.756 335.041 153.756C334.546 153.756 334.145 153.887 333.837 154.148C333.538 154.409 333.389 154.787 333.389 155.282C333.389 155.786 333.538 156.169 333.837 156.43C334.136 156.691 334.537 156.822 335.041 156.822ZM336.189 153.938L335.839 152.944H338.723V153.826L336.189 153.938ZM340.076 160V152.944H341.14L341.21 153.952C341.434 153.588 341.732 153.303 342.106 153.098C342.488 152.883 342.904 152.776 343.352 152.776C343.716 152.776 344.042 152.827 344.332 152.93C344.63 153.023 344.892 153.173 345.116 153.378C345.34 153.574 345.522 153.826 345.662 154.134C345.904 153.705 346.236 153.373 346.656 153.14C347.085 152.897 347.542 152.776 348.028 152.776C348.569 152.776 349.04 152.888 349.442 153.112C349.852 153.327 350.165 153.658 350.38 154.106C350.604 154.545 350.716 155.105 350.716 155.786V160H349.554V155.912C349.554 155.203 349.409 154.671 349.12 154.316C348.83 153.961 348.424 153.784 347.902 153.784C347.538 153.784 347.211 153.882 346.922 154.078C346.632 154.265 346.404 154.54 346.236 154.904C346.068 155.268 345.984 155.716 345.984 156.248V160H344.808V155.912C344.808 155.203 344.663 154.671 344.374 154.316C344.084 153.961 343.674 153.784 343.142 153.784C342.787 153.784 342.465 153.882 342.176 154.078C341.896 154.265 341.672 154.54 341.504 154.904C341.336 155.268 341.252 155.716 341.252 156.248V160H340.076ZM355.638 160.168C354.976 160.168 354.388 160.014 353.874 159.706C353.37 159.398 352.974 158.969 352.684 158.418C352.395 157.858 352.25 157.209 352.25 156.472C352.25 155.725 352.39 155.077 352.67 154.526C352.96 153.975 353.361 153.546 353.874 153.238C354.397 152.93 354.994 152.776 355.666 152.776C356.357 152.776 356.94 152.93 357.416 153.238C357.902 153.546 358.27 153.952 358.522 154.456C358.784 154.951 358.914 155.497 358.914 156.094C358.914 156.187 358.914 156.285 358.914 156.388C358.914 156.491 358.91 156.607 358.9 156.738H353.132V155.828H357.766C357.738 155.184 357.524 154.68 357.122 154.316C356.73 153.952 356.236 153.77 355.638 153.77C355.237 153.77 354.864 153.863 354.518 154.05C354.182 154.227 353.912 154.493 353.706 154.848C353.501 155.193 353.398 155.627 353.398 156.15V156.542C353.398 157.121 353.501 157.606 353.706 157.998C353.921 158.39 354.196 158.684 354.532 158.88C354.878 159.076 355.246 159.174 355.638 159.174C356.133 159.174 356.539 159.067 356.856 158.852C357.183 158.628 357.416 158.329 357.556 157.956H358.718C358.606 158.376 358.41 158.754 358.13 159.09C357.85 159.426 357.5 159.692 357.08 159.888C356.67 160.075 356.189 160.168 355.638 160.168ZM360.501 160V152.944H361.565L361.621 154.176C361.845 153.737 362.163 153.397 362.573 153.154C362.993 152.902 363.469 152.776 364.001 152.776C364.552 152.776 365.028 152.888 365.429 153.112C365.831 153.327 366.143 153.658 366.367 154.106C366.591 154.545 366.703 155.105 366.703 155.786V160H365.527V155.912C365.527 155.203 365.369 154.671 365.051 154.316C364.743 153.961 364.305 153.784 363.735 153.784C363.343 153.784 362.993 153.882 362.685 154.078C362.377 154.265 362.13 154.54 361.943 154.904C361.766 155.259 361.677 155.702 361.677 156.234V160H360.501ZM371.313 160C370.893 160 370.529 159.935 370.221 159.804C369.913 159.673 369.675 159.454 369.507 159.146C369.348 158.829 369.269 158.404 369.269 157.872V153.938H368.037V152.944H369.269L369.423 151.236H370.445V152.944H372.489V153.938H370.445V157.872C370.445 158.311 370.533 158.609 370.711 158.768C370.888 158.917 371.201 158.992 371.649 158.992H372.405V160H371.313Z" fill="#171613"/>
<path d="M469.306 160.168C468.354 160.168 467.528 159.958 466.828 159.538C466.137 159.109 465.605 158.516 465.232 157.76C464.859 156.995 464.672 156.108 464.672 155.1C464.672 154.092 464.859 153.21 465.232 152.454C465.605 151.689 466.137 151.096 466.828 150.676C467.528 150.247 468.354 150.032 469.306 150.032C470.426 150.032 471.336 150.298 472.036 150.83C472.736 151.362 473.184 152.113 473.38 153.084H472.078C471.929 152.477 471.625 151.992 471.168 151.628C470.711 151.255 470.09 151.068 469.306 151.068C468.606 151.068 467.999 151.231 467.486 151.558C466.973 151.875 466.576 152.337 466.296 152.944C466.016 153.541 465.876 154.26 465.876 155.1C465.876 155.94 466.016 156.663 466.296 157.27C466.576 157.867 466.973 158.329 467.486 158.656C467.999 158.973 468.606 159.132 469.306 159.132C470.09 159.132 470.711 158.955 471.168 158.6C471.625 158.236 471.929 157.755 472.078 157.158H473.38C473.184 158.101 472.736 158.838 472.036 159.37C471.336 159.902 470.426 160.168 469.306 160.168ZM478.165 160.168C477.512 160.168 476.924 160.019 476.401 159.72C475.878 159.412 475.468 158.983 475.169 158.432C474.87 157.872 474.721 157.223 474.721 156.486C474.721 155.73 474.87 155.077 475.169 154.526C475.477 153.966 475.892 153.537 476.415 153.238C476.947 152.93 477.54 152.776 478.193 152.776C478.865 152.776 479.458 152.93 479.971 153.238C480.494 153.537 480.904 153.966 481.203 154.526C481.511 155.077 481.665 155.725 481.665 156.472C481.665 157.219 481.511 157.872 481.203 158.432C480.895 158.983 480.48 159.412 479.957 159.72C479.434 160.019 478.837 160.168 478.165 160.168ZM478.179 159.16C478.58 159.16 478.954 159.062 479.299 158.866C479.644 158.661 479.924 158.357 480.139 157.956C480.354 157.555 480.461 157.06 480.461 156.472C480.461 155.875 480.354 155.38 480.139 154.988C479.934 154.587 479.658 154.288 479.313 154.092C478.977 153.887 478.604 153.784 478.193 153.784C477.801 153.784 477.428 153.887 477.073 154.092C476.728 154.288 476.448 154.587 476.233 154.988C476.028 155.38 475.925 155.875 475.925 156.472C475.925 157.06 476.028 157.555 476.233 157.956C476.448 158.357 476.723 158.661 477.059 158.866C477.404 159.062 477.778 159.16 478.179 159.16ZM483.314 160V152.944H484.378L484.434 154.176C484.658 153.737 484.975 153.397 485.386 153.154C485.806 152.902 486.282 152.776 486.814 152.776C487.365 152.776 487.841 152.888 488.242 153.112C488.643 153.327 488.956 153.658 489.18 154.106C489.404 154.545 489.516 155.105 489.516 155.786V160H488.34V155.912C488.34 155.203 488.181 154.671 487.864 154.316C487.556 153.961 487.117 153.784 486.548 153.784C486.156 153.784 485.806 153.882 485.498 154.078C485.19 154.265 484.943 154.54 484.756 154.904C484.579 155.259 484.49 155.702 484.49 156.234V160H483.314ZM491.353 160V152.944H492.417L492.473 154.176C492.697 153.737 493.014 153.397 493.425 153.154C493.845 152.902 494.321 152.776 494.853 152.776C495.404 152.776 495.88 152.888 496.281 153.112C496.682 153.327 496.995 153.658 497.219 154.106C497.443 154.545 497.555 155.105 497.555 155.786V160H496.379V155.912C496.379 155.203 496.22 154.671 495.903 154.316C495.595 153.961 495.156 153.784 494.587 153.784C494.195 153.784 493.845 153.882 493.537 154.078C493.229 154.265 492.982 154.54 492.795 154.904C492.618 155.259 492.529 155.702 492.529 156.234V160H491.353ZM502.486 160.168C501.823 160.168 501.235 160.014 500.722 159.706C500.218 159.398 499.821 158.969 499.532 158.418C499.243 157.858 499.098 157.209 499.098 156.472C499.098 155.725 499.238 155.077 499.518 154.526C499.807 153.975 500.209 153.546 500.722 153.238C501.245 152.93 501.842 152.776 502.514 152.776C503.205 152.776 503.788 152.93 504.264 153.238C504.749 153.546 505.118 153.952 505.37 154.456C505.631 154.951 505.762 155.497 505.762 156.094C505.762 156.187 505.762 156.285 505.762 156.388C505.762 156.491 505.757 156.607 505.748 156.738H499.98V155.828H504.614C504.586 155.184 504.371 154.68 503.97 154.316C503.578 153.952 503.083 153.77 502.486 153.77C502.085 153.77 501.711 153.863 501.366 154.05C501.03 154.227 500.759 154.493 500.554 154.848C500.349 155.193 500.246 155.627 500.246 156.15V156.542C500.246 157.121 500.349 157.606 500.554 157.998C500.769 158.39 501.044 158.684 501.38 158.88C501.725 159.076 502.094 159.174 502.486 159.174C502.981 159.174 503.387 159.067 503.704 158.852C504.031 158.628 504.264 158.329 504.404 157.956H505.566C505.454 158.376 505.258 158.754 504.978 159.09C504.698 159.426 504.348 159.692 503.928 159.888C503.517 160.075 503.037 160.168 502.486 160.168ZM510.527 160.168C509.864 160.168 509.267 160.014 508.735 159.706C508.212 159.398 507.802 158.969 507.503 158.418C507.204 157.858 507.055 157.214 507.055 156.486C507.055 155.739 507.204 155.091 507.503 154.54C507.802 153.989 508.212 153.56 508.735 153.252C509.267 152.935 509.864 152.776 510.527 152.776C511.367 152.776 512.067 152.995 512.627 153.434C513.187 153.863 513.542 154.442 513.691 155.17H512.487C512.394 154.731 512.165 154.391 511.801 154.148C511.437 153.905 511.008 153.784 510.513 153.784C510.112 153.784 509.738 153.887 509.393 154.092C509.048 154.288 508.772 154.587 508.567 154.988C508.362 155.389 508.259 155.884 508.259 156.472C508.259 156.911 508.32 157.303 508.441 157.648C508.562 157.984 508.726 158.264 508.931 158.488C509.136 158.712 509.374 158.885 509.645 159.006C509.925 159.118 510.214 159.174 510.513 159.174C510.849 159.174 511.152 159.123 511.423 159.02C511.694 158.908 511.922 158.745 512.109 158.53C512.296 158.315 512.422 158.063 512.487 157.774H513.691C513.542 158.483 513.182 159.062 512.613 159.51C512.053 159.949 511.358 160.168 510.527 160.168ZM517.941 160C517.521 160 517.157 159.935 516.849 159.804C516.541 159.673 516.303 159.454 516.135 159.146C515.977 158.829 515.897 158.404 515.897 157.872V153.938H514.665V152.944H515.897L516.051 151.236H517.073V152.944H519.117V153.938H517.073V157.872C517.073 158.311 517.162 158.609 517.339 158.768C517.517 158.917 517.829 158.992 518.277 158.992H519.033V160H517.941Z" fill="#171613"/>
<path d="M618.05 160V150.2H619.226V160H618.05ZM621.261 160V152.944H622.325L622.381 154.176C622.605 153.737 622.923 153.397 623.333 153.154C623.753 152.902 624.229 152.776 624.761 152.776C625.312 152.776 625.788 152.888 626.189 153.112C626.591 153.327 626.903 153.658 627.127 154.106C627.351 154.545 627.463 155.105 627.463 155.786V160H626.287V155.912C626.287 155.203 626.129 154.671 625.811 154.316C625.503 153.961 625.065 153.784 624.495 153.784C624.103 153.784 623.753 153.882 623.445 154.078C623.137 154.265 622.89 154.54 622.703 154.904C622.526 155.259 622.437 155.702 622.437 156.234V160H621.261ZM631.96 160.168C631.372 160.168 630.859 160.07 630.42 159.874C629.991 159.678 629.646 159.407 629.384 159.062C629.132 158.707 628.978 158.292 628.922 157.816H630.126C630.173 158.059 630.271 158.283 630.42 158.488C630.57 158.693 630.77 158.861 631.022 158.992C631.284 159.113 631.601 159.174 631.974 159.174C632.301 159.174 632.572 159.127 632.786 159.034C633.001 158.931 633.16 158.796 633.262 158.628C633.374 158.46 633.43 158.278 633.43 158.082C633.43 157.793 633.36 157.573 633.22 157.424C633.09 157.275 632.894 157.158 632.632 157.074C632.371 156.981 632.054 156.901 631.68 156.836C631.372 156.78 631.069 156.705 630.77 156.612C630.472 156.519 630.206 156.397 629.972 156.248C629.739 156.089 629.552 155.898 629.412 155.674C629.282 155.45 629.216 155.175 629.216 154.848C629.216 154.447 629.319 154.092 629.524 153.784C629.73 153.467 630.024 153.219 630.406 153.042C630.798 152.865 631.251 152.776 631.764 152.776C632.52 152.776 633.132 152.958 633.598 153.322C634.065 153.686 634.34 154.213 634.424 154.904H633.262C633.216 154.549 633.062 154.274 632.8 154.078C632.548 153.873 632.198 153.77 631.75 153.77C631.312 153.77 630.976 153.859 630.742 154.036C630.518 154.213 630.406 154.447 630.406 154.736C630.406 154.923 630.467 155.091 630.588 155.24C630.719 155.38 630.906 155.501 631.148 155.604C631.4 155.707 631.708 155.791 632.072 155.856C632.539 155.94 632.964 156.052 633.346 156.192C633.729 156.332 634.037 156.542 634.27 156.822C634.513 157.093 634.634 157.48 634.634 157.984C634.634 158.423 634.522 158.805 634.298 159.132C634.084 159.459 633.776 159.715 633.374 159.902C632.973 160.079 632.502 160.168 631.96 160.168ZM636.328 163.08V152.944H637.392L637.49 154.092C637.639 153.868 637.83 153.658 638.064 153.462C638.297 153.257 638.577 153.093 638.904 152.972C639.23 152.841 639.604 152.776 640.024 152.776C640.714 152.776 641.312 152.939 641.816 153.266C642.329 153.593 642.726 154.036 643.006 154.596C643.295 155.147 643.44 155.777 643.44 156.486C643.44 157.195 643.295 157.83 643.006 158.39C642.726 158.941 642.329 159.375 641.816 159.692C641.302 160.009 640.7 160.168 640.01 160.168C639.44 160.168 638.936 160.051 638.498 159.818C638.068 159.585 637.737 159.258 637.504 158.838V163.08H636.328ZM639.884 159.146C640.341 159.146 640.747 159.034 641.102 158.81C641.456 158.586 641.732 158.278 641.928 157.886C642.133 157.485 642.236 157.013 642.236 156.472C642.236 155.94 642.133 155.473 641.928 155.072C641.732 154.671 641.456 154.358 641.102 154.134C640.747 153.91 640.341 153.798 639.884 153.798C639.417 153.798 639.006 153.91 638.652 154.134C638.297 154.358 638.022 154.671 637.826 155.072C637.63 155.473 637.532 155.94 637.532 156.472C637.532 157.013 637.63 157.485 637.826 157.886C638.022 158.278 638.297 158.586 638.652 158.81C639.006 159.034 639.417 159.146 639.884 159.146ZM645.203 160V152.944H646.379V160H645.203ZM645.791 151.446C645.558 151.446 645.362 151.371 645.203 151.222C645.054 151.063 644.979 150.867 644.979 150.634C644.979 150.401 645.054 150.214 645.203 150.074C645.362 149.925 645.558 149.85 645.791 149.85C646.015 149.85 646.207 149.925 646.365 150.074C646.524 150.214 646.603 150.401 646.603 150.634C646.603 150.867 646.524 151.063 646.365 151.222C646.207 151.371 646.015 151.446 645.791 151.446ZM648.455 160V152.944H649.519L649.603 154.288C649.761 153.971 649.962 153.7 650.205 153.476C650.457 153.252 650.755 153.079 651.101 152.958C651.455 152.837 651.857 152.776 652.305 152.776V154.008H651.871C651.572 154.008 651.287 154.05 651.017 154.134C650.746 154.209 650.503 154.335 650.289 154.512C650.083 154.689 649.92 154.932 649.799 155.24C649.687 155.539 649.631 155.912 649.631 156.36V160H648.455ZM656.47 160.168C655.808 160.168 655.22 160.014 654.706 159.706C654.202 159.398 653.806 158.969 653.516 158.418C653.227 157.858 653.082 157.209 653.082 156.472C653.082 155.725 653.222 155.077 653.502 154.526C653.792 153.975 654.193 153.546 654.706 153.238C655.229 152.93 655.826 152.776 656.498 152.776C657.189 152.776 657.772 152.93 658.248 153.238C658.734 153.546 659.102 153.952 659.354 154.456C659.616 154.951 659.746 155.497 659.746 156.094C659.746 156.187 659.746 156.285 659.746 156.388C659.746 156.491 659.742 156.607 659.732 156.738H653.964V155.828H658.598C658.57 155.184 658.356 154.68 657.954 154.316C657.562 153.952 657.068 153.77 656.47 153.77C656.069 153.77 655.696 153.863 655.35 154.05C655.014 154.227 654.744 154.493 654.538 154.848C654.333 155.193 654.23 155.627 654.23 156.15V156.542C654.23 157.121 654.333 157.606 654.538 157.998C654.753 158.39 655.028 158.684 655.364 158.88C655.71 159.076 656.078 159.174 656.47 159.174C656.965 159.174 657.371 159.067 657.688 158.852C658.015 158.628 658.248 158.329 658.388 157.956H659.55C659.438 158.376 659.242 158.754 658.962 159.09C658.682 159.426 658.332 159.692 657.912 159.888C657.502 160.075 657.021 160.168 656.47 160.168Z" fill="#171613"/>
<path d="M485.06 217L482.66 208.25H483.785L485.673 215.75L487.81 208.25H488.985L491.073 215.775L492.985 208.25H494.11L491.66 217H490.46L488.373 209.762L486.235 217H485.06ZM495.295 217V208H496.345V211.687C496.553 211.304 496.845 211.008 497.22 210.8C497.603 210.583 498.02 210.475 498.47 210.475C498.953 210.475 499.374 210.571 499.733 210.762C500.091 210.954 500.366 211.246 500.558 211.637C500.749 212.029 500.845 212.529 500.845 213.137V217H499.808V213.25C499.808 212.625 499.67 212.158 499.395 211.85C499.128 211.533 498.745 211.375 498.245 211.375C497.887 211.375 497.562 211.458 497.27 211.625C496.987 211.792 496.762 212.037 496.595 212.362C496.428 212.687 496.345 213.083 496.345 213.55V217H495.295ZM505.272 217.15C504.68 217.15 504.155 217.012 503.697 216.737C503.247 216.462 502.893 216.075 502.635 215.575C502.376 215.067 502.247 214.479 502.247 213.812C502.247 213.137 502.372 212.55 502.622 212.05C502.88 211.55 503.239 211.162 503.697 210.887C504.164 210.612 504.697 210.475 505.297 210.475C505.914 210.475 506.435 210.612 506.86 210.887C507.293 211.162 507.622 211.529 507.847 211.987C508.072 212.437 508.185 212.933 508.185 213.475C508.185 213.558 508.185 213.646 508.185 213.737C508.185 213.829 508.18 213.933 508.172 214.05H503.035V213.237H507.16C507.135 212.637 506.943 212.175 506.585 211.85C506.235 211.525 505.797 211.362 505.272 211.362C504.914 211.362 504.58 211.446 504.272 211.612C503.972 211.771 503.73 212.008 503.547 212.325C503.364 212.642 503.272 213.042 503.272 213.525V213.875C503.272 214.4 503.364 214.842 503.547 215.2C503.739 215.558 503.985 215.825 504.285 216C504.593 216.175 504.922 216.262 505.272 216.262C505.714 216.262 506.076 216.167 506.36 215.975C506.643 215.783 506.847 215.521 506.972 215.187H508.01C507.91 215.562 507.735 215.9 507.485 216.2C507.235 216.492 506.922 216.725 506.547 216.9C506.18 217.067 505.755 217.15 505.272 217.15ZM509.614 217V210.625H510.564L510.639 211.825C510.781 211.533 510.964 211.287 511.189 211.087C511.422 210.887 511.702 210.737 512.027 210.637C512.352 210.529 512.714 210.475 513.114 210.475V211.575H512.664C512.397 211.575 512.143 211.608 511.902 211.675C511.66 211.742 511.443 211.854 511.252 212.012C511.068 212.162 510.922 212.371 510.814 212.637C510.714 212.904 510.664 213.237 510.664 213.637V217H509.614ZM516.844 217.15C516.253 217.15 515.728 217.012 515.269 216.737C514.819 216.462 514.465 216.075 514.207 215.575C513.948 215.067 513.819 214.479 513.819 213.812C513.819 213.137 513.944 212.55 514.194 212.05C514.453 211.55 514.811 211.162 515.269 210.887C515.736 210.612 516.269 210.475 516.869 210.475C517.486 210.475 518.007 210.612 518.432 210.887C518.865 211.162 519.194 211.529 519.419 211.987C519.644 212.437 519.757 212.933 519.757 213.475C519.757 213.558 519.757 213.646 519.757 213.737C519.757 213.829 519.753 213.933 519.744 214.05H514.607V213.237H518.732C518.707 212.637 518.515 212.175 518.157 211.85C517.807 211.525 517.369 211.362 516.844 211.362C516.486 211.362 516.153 211.446 515.844 211.612C515.544 211.771 515.303 212.008 515.119 212.325C514.936 212.642 514.844 213.042 514.844 213.525V213.875C514.844 214.4 514.936 214.842 515.119 215.2C515.311 215.558 515.557 215.825 515.857 216C516.165 216.175 516.494 216.262 516.844 216.262C517.286 216.262 517.648 216.167 517.932 215.975C518.215 215.783 518.419 215.521 518.544 215.187H519.582C519.482 215.562 519.307 215.9 519.057 216.2C518.807 216.492 518.494 216.725 518.119 216.9C517.753 217.067 517.328 217.15 516.844 217.15ZM527.281 217.15C526.69 217.15 526.165 217.012 525.706 216.737C525.256 216.462 524.902 216.075 524.644 215.575C524.385 215.067 524.256 214.479 524.256 213.812C524.256 213.137 524.381 212.55 524.631 212.05C524.89 211.55 525.248 211.162 525.706 210.887C526.173 210.612 526.706 210.475 527.306 210.475C527.923 210.475 528.444 210.612 528.869 210.887C529.302 211.162 529.631 211.529 529.856 211.987C530.081 212.437 530.194 212.933 530.194 213.475C530.194 213.558 530.194 213.646 530.194 213.737C530.194 213.829 530.19 213.933 530.181 214.05H525.044V213.237H529.169C529.144 212.637 528.952 212.175 528.594 211.85C528.244 211.525 527.806 211.362 527.281 211.362C526.923 211.362 526.59 211.446 526.281 211.612C525.981 211.771 525.74 212.008 525.556 212.325C525.373 212.642 525.281 213.042 525.281 213.525V213.875C525.281 214.4 525.373 214.842 525.556 215.2C525.748 215.558 525.994 215.825 526.294 216C526.602 216.175 526.931 216.262 527.281 216.262C527.723 216.262 528.085 216.167 528.369 215.975C528.652 215.783 528.856 215.521 528.981 215.187H530.019C529.919 215.562 529.744 215.9 529.494 216.2C529.244 216.492 528.931 216.725 528.556 216.9C528.19 217.067 527.765 217.15 527.281 217.15ZM533.229 217L530.804 210.625H531.904L533.842 215.987L535.779 210.625H536.854L534.442 217H533.229ZM540.477 217.15C539.885 217.15 539.36 217.012 538.902 216.737C538.452 216.462 538.098 216.075 537.84 215.575C537.581 215.067 537.452 214.479 537.452 213.812C537.452 213.137 537.577 212.55 537.827 212.05C538.085 211.55 538.444 211.162 538.902 210.887C539.369 210.612 539.902 210.475 540.502 210.475C541.119 210.475 541.64 210.612 542.065 210.887C542.498 211.162 542.827 211.529 543.052 211.987C543.277 212.437 543.39 212.933 543.39 213.475C543.39 213.558 543.39 213.646 543.39 213.737C543.39 213.829 543.385 213.933 543.377 214.05H538.24V213.237H542.365C542.34 212.637 542.148 212.175 541.79 211.85C541.44 211.525 541.002 211.362 540.477 211.362C540.119 211.362 539.785 211.446 539.477 211.612C539.177 211.771 538.935 212.008 538.752 212.325C538.569 212.642 538.477 213.042 538.477 213.525V213.875C538.477 214.4 538.569 214.842 538.752 215.2C538.944 215.558 539.19 215.825 539.49 216C539.798 216.175 540.127 216.262 540.477 216.262C540.919 216.262 541.281 216.167 541.565 215.975C541.848 215.783 542.052 215.521 542.177 215.187H543.215C543.115 215.562 542.94 215.9 542.69 216.2C542.44 216.492 542.127 216.725 541.752 216.9C541.385 217.067 540.96 217.15 540.477 217.15ZM544.819 217V210.625H545.769L545.844 211.825C545.986 211.533 546.169 211.287 546.394 211.087C546.627 210.887 546.907 210.737 547.232 210.637C547.557 210.529 547.919 210.475 548.319 210.475V211.575H547.869C547.602 211.575 547.348 211.608 547.107 211.675C546.865 211.742 546.648 211.854 546.457 212.012C546.273 212.162 546.127 212.371 546.019 212.637C545.919 212.904 545.869 213.237 545.869 213.637V217H544.819ZM550.219 219.75L551.744 216.3H551.381L548.906 210.625H550.044L552.094 215.512L554.244 210.625H555.331L551.319 219.75H550.219ZM562.297 217C561.922 217 561.597 216.942 561.322 216.825C561.047 216.708 560.835 216.512 560.685 216.237C560.543 215.954 560.472 215.575 560.472 215.1V211.512H559.36V210.625H560.472L560.61 209.062H561.522V210.625H563.36V211.512H561.522V215.1C561.522 215.492 561.601 215.758 561.76 215.9C561.918 216.033 562.197 216.1 562.597 216.1H563.297V217H562.297ZM567.407 217.15C566.816 217.15 566.286 217.012 565.82 216.737C565.353 216.462 564.986 216.075 564.72 215.575C564.453 215.075 564.32 214.487 564.32 213.812C564.32 213.129 564.453 212.542 564.72 212.05C564.995 211.55 565.366 211.162 565.832 210.887C566.307 210.612 566.841 210.475 567.432 210.475C568.032 210.475 568.561 210.612 569.02 210.887C569.486 211.162 569.853 211.55 570.12 212.05C570.386 212.542 570.52 213.129 570.52 213.812C570.52 214.487 570.382 215.075 570.107 215.575C569.841 216.075 569.474 216.462 569.007 216.737C568.541 217.012 568.007 217.15 567.407 217.15ZM567.407 216.25C567.774 216.25 568.111 216.162 568.42 215.987C568.728 215.804 568.974 215.529 569.157 215.163C569.349 214.796 569.445 214.346 569.445 213.812C569.445 213.262 569.353 212.808 569.17 212.45C568.986 212.092 568.741 211.825 568.432 211.65C568.132 211.467 567.799 211.375 567.432 211.375C567.074 211.375 566.736 211.467 566.42 211.65C566.111 211.825 565.861 212.096 565.67 212.462C565.486 212.821 565.395 213.271 565.395 213.812C565.395 214.346 565.486 214.796 565.67 215.163C565.861 215.529 566.107 215.804 566.407 215.987C566.716 216.162 567.049 216.25 567.407 216.25ZM574.829 217.15C574.237 217.15 573.708 217.012 573.242 216.737C572.775 216.462 572.408 216.075 572.142 215.575C571.875 215.075 571.742 214.487 571.742 213.812C571.742 213.129 571.875 212.542 572.142 212.05C572.417 211.55 572.787 211.162 573.254 210.887C573.729 210.612 574.262 210.475 574.854 210.475C575.454 210.475 575.983 210.612 576.442 210.887C576.908 211.162 577.275 211.55 577.542 212.05C577.808 212.542 577.942 213.129 577.942 213.812C577.942 214.487 577.804 215.075 577.529 215.575C577.262 216.075 576.896 216.462 576.429 216.737C575.962 217.012 575.429 217.15 574.829 217.15ZM574.829 216.25C575.196 216.25 575.533 216.162 575.842 215.987C576.15 215.804 576.396 215.529 576.579 215.163C576.771 214.796 576.867 214.346 576.867 213.812C576.867 213.262 576.775 212.808 576.592 212.45C576.408 212.092 576.162 211.825 575.854 211.65C575.554 211.467 575.221 211.375 574.854 211.375C574.496 211.375 574.158 211.467 573.842 211.65C573.533 211.825 573.283 212.096 573.092 212.462C572.908 212.821 572.817 213.271 572.817 213.812C572.817 214.346 572.908 214.796 573.092 215.163C573.283 215.529 573.529 215.804 573.829 215.987C574.137 216.162 574.471 216.25 574.829 216.25ZM579.426 217V208H580.476V217H579.426ZM585.929 217V209.725C585.929 209.325 585.996 209 586.129 208.75C586.262 208.492 586.458 208.304 586.716 208.187C586.983 208.062 587.308 208 587.691 208H588.479V208.9H587.854C587.546 208.9 587.321 208.962 587.179 209.087C587.046 209.212 586.979 209.437 586.979 209.762V217H585.929ZM584.941 211.512V210.625H588.604V211.512H584.941ZM591.681 217.15C591.173 217.15 590.748 217.062 590.406 216.887C590.073 216.704 589.823 216.462 589.656 216.162C589.489 215.854 589.406 215.525 589.406 215.175C589.406 214.75 589.514 214.387 589.731 214.087C589.956 213.787 590.269 213.562 590.669 213.412C591.077 213.254 591.552 213.175 592.094 213.175H593.756C593.756 212.767 593.698 212.429 593.581 212.162C593.464 211.896 593.289 211.696 593.056 211.562C592.831 211.429 592.544 211.362 592.194 211.362C591.802 211.362 591.464 211.462 591.181 211.662C590.898 211.854 590.723 212.137 590.656 212.512H589.581C589.631 212.071 589.781 211.7 590.031 211.4C590.281 211.1 590.598 210.871 590.981 210.712C591.364 210.554 591.769 210.475 592.194 210.475C592.777 210.475 593.26 210.583 593.644 210.8C594.035 211.008 594.327 211.304 594.519 211.687C594.71 212.062 594.806 212.504 594.806 213.012V217H593.869L593.806 215.887C593.723 216.062 593.614 216.229 593.481 216.387C593.356 216.537 593.206 216.671 593.031 216.787C592.856 216.896 592.656 216.983 592.431 217.05C592.214 217.117 591.964 217.15 591.681 217.15ZM591.844 216.262C592.135 216.262 592.398 216.204 592.631 216.087C592.864 215.962 593.064 215.796 593.231 215.587C593.406 215.371 593.535 215.133 593.619 214.875C593.71 214.608 593.756 214.333 593.756 214.05V213.987H592.181C591.781 213.987 591.456 214.037 591.206 214.137C590.956 214.229 590.777 214.362 590.669 214.537C590.56 214.712 590.506 214.908 590.506 215.125C590.506 215.358 590.556 215.562 590.656 215.737C590.764 215.904 590.919 216.033 591.119 216.125C591.319 216.217 591.56 216.262 591.844 216.262ZM596.555 217V210.625H597.605V217H596.555ZM597.08 209.3C596.872 209.3 596.697 209.233 596.555 209.1C596.422 208.958 596.355 208.783 596.355 208.575C596.355 208.367 596.422 208.2 596.555 208.075C596.697 207.942 596.872 207.875 597.08 207.875C597.28 207.875 597.451 207.942 597.592 208.075C597.734 208.2 597.805 208.367 597.805 208.575C597.805 208.783 597.734 208.958 597.592 209.1C597.451 209.233 597.28 209.3 597.08 209.3ZM599.458 217V208H600.508V217H599.458ZM604.628 217.15C604.087 217.15 603.62 217.062 603.228 216.887C602.845 216.712 602.541 216.467 602.316 216.15C602.099 215.833 601.966 215.462 601.916 215.037H602.991C603.032 215.262 603.116 215.467 603.241 215.65C603.374 215.833 603.557 215.983 603.791 216.1C604.024 216.208 604.307 216.262 604.641 216.262C604.932 216.262 605.174 216.221 605.366 216.137C605.557 216.046 605.703 215.925 605.803 215.775C605.903 215.625 605.953 215.454 605.953 215.262C605.953 215.004 605.891 214.804 605.766 214.662C605.649 214.521 605.474 214.412 605.241 214.337C605.007 214.254 604.724 214.187 604.391 214.137C604.091 214.087 603.803 214.021 603.528 213.937C603.262 213.846 603.024 213.733 602.816 213.6C602.616 213.458 602.457 213.283 602.341 213.075C602.224 212.858 602.166 212.604 602.166 212.312C602.166 211.954 602.257 211.637 602.441 211.362C602.632 211.079 602.899 210.862 603.241 210.712C603.591 210.554 603.999 210.475 604.466 210.475C605.149 210.475 605.699 210.637 606.116 210.962C606.532 211.287 606.778 211.754 606.853 212.362H605.816C605.774 212.046 605.637 211.8 605.403 211.625C605.17 211.45 604.853 211.362 604.453 211.362C604.053 211.362 603.749 211.442 603.541 211.6C603.332 211.758 603.228 211.967 603.228 212.225C603.228 212.4 603.282 212.554 603.391 212.687C603.499 212.821 603.666 212.937 603.891 213.037C604.116 213.129 604.399 213.204 604.741 213.262C605.182 213.329 605.574 213.425 605.916 213.55C606.257 213.675 606.528 213.867 606.728 214.125C606.928 214.375 607.028 214.725 607.028 215.175C607.028 215.583 606.928 215.933 606.728 216.225C606.528 216.517 606.249 216.746 605.891 216.912C605.532 217.071 605.112 217.15 604.628 217.15Z" fill="#7C766C"/>
<path d="M418.333 198C418.333 199.473 419.527 200.667 421 200.667C422.473 200.667 423.667 199.473 423.667 198C423.667 196.527 422.473 195.333 421 195.333C419.527 195.333 418.333 196.527 418.333 198ZM660.333 198C660.333 199.473 661.527 200.667 663 200.667C664.473 200.667 665.667 199.473 665.667 198C665.667 196.527 664.473 195.333 663 195.333C661.527 195.333 660.333 196.527 660.333 198ZM421 198V198.5H421.992V198V197.5H421V198ZM423.975 198V198.5H425.959V198V197.5H423.975V198ZM427.943 198V198.5H429.926V198V197.5H427.943V198ZM431.91 198V198.5H433.893V198V197.5H431.91V198ZM435.877 198V198.5H437.861V198V197.5H435.877V198ZM439.844 198V198.5H441.828V198V197.5H439.844V198ZM443.811 198V198.5H445.795V198V197.5H443.811V198ZM447.779 198V198.5H449.762V198V197.5H447.779V198ZM451.746 198V198.5H453.73V198V197.5H451.746V198ZM455.713 198V198.5H457.697V198V197.5H455.713V198ZM459.68 198V198.5H461.664V198V197.5H459.68V198ZM463.648 198V198.5H465.631V198V197.5H463.648V198ZM467.615 198V198.5H469.598V198V197.5H467.615V198ZM471.582 198V198.5H473.566V198V197.5H471.582V198ZM475.549 198V198.5H477.533V198V197.5H475.549V198ZM479.516 198V198.5H481.5V198V197.5H479.516V198ZM483.484 198V198.5H485.467V198V197.5H483.484V198ZM487.451 198V198.5H489.434V198V197.5H487.451V198ZM491.418 198V198.5H493.402V198V197.5H491.418V198ZM495.385 198V198.5H497.369V198V197.5H495.385V198ZM499.352 198V198.5H501.336V198V197.5H499.352V198ZM503.32 198V198.5H505.303V198V197.5H503.32V198ZM507.287 198V198.5H509.271V198V197.5H507.287V198ZM511.254 198V198.5H513.238V198V197.5H511.254V198ZM515.221 198V198.5H517.205V198V197.5H515.221V198ZM519.189 198V198.5H521.172V198V197.5H519.189V198ZM523.156 198V198.5H525.139V198V197.5H523.156V198ZM527.123 198V198.5H529.107V198V197.5H527.123V198ZM531.09 198V198.5H533.074V198V197.5H531.09V198ZM535.057 198V198.5H537.041V198V197.5H535.057V198ZM539.025 198V198.5H541.008V198V197.5H539.025V198ZM542.992 198V198.5H544.975V198V197.5H542.992V198ZM546.959 198V198.5H548.943V198V197.5H546.959V198ZM550.926 198V198.5H552.91V198V197.5H550.926V198ZM554.893 198V198.5H556.877V198V197.5H554.893V198ZM558.861 198V198.5H560.844V198V197.5H558.861V198ZM562.828 198V198.5H564.811V198V197.5H562.828V198ZM566.795 198V198.5H568.779V198V197.5H566.795V198ZM570.762 198V198.5H572.746V198V197.5H570.762V198ZM574.73 198V198.5H576.713V198V197.5H574.73V198ZM578.697 198V198.5H580.68V198V197.5H578.697V198ZM582.664 198V198.5H584.648V198V197.5H582.664V198ZM586.631 198V198.5H588.615V198V197.5H586.631V198ZM590.598 198V198.5H592.582V198V197.5H590.598V198ZM594.566 198V198.5H596.549V198V197.5H594.566V198ZM598.533 198V198.5H600.516V198V197.5H598.533V198ZM602.5 198V198.5H604.484V198V197.5H602.5V198ZM606.467 198V198.5H608.451V198V197.5H606.467V198ZM610.435 198V198.5H612.418V198V197.5H610.435V198ZM614.402 198V198.5H616.385V198V197.5H614.402V198ZM618.369 198V198.5H620.353V198V197.5H618.369V198ZM622.336 198V198.5H624.32V198V197.5H622.336V198ZM626.303 198V198.5H628.287V198V197.5H626.303V198ZM630.271 198V198.5H632.254V198V197.5H630.271V198ZM634.238 198V198.5H636.222V198V197.5H634.238V198ZM638.205 198V198.5H640.189V198V197.5H638.205V198ZM642.172 198V198.5H644.156V198V197.5H642.172V198ZM646.14 198V198.5H648.123V198V197.5H646.14V198ZM650.107 198V198.5H652.09V198V197.5H650.107V198ZM654.074 198V198.5H656.058V198V197.5H654.074V198ZM658.041 198V198.5H660.025V198V197.5H658.041V198ZM662.008 198V198.5H663V198V197.5H662.008V198Z" fill="#7C766C"/>
</g>
<defs>
<filter id="filter0_d_1154_1712" x="236" y="7" width="180" height="94" filterUnits="userSpaceOnUse" color-interpolation-filters="sRGB">
<feFlood flood-opacity="0" result="BackgroundImageFix"/>
<feColorMatrix in="SourceAlpha" type="matrix" values="0 0 0 0 0 0 0 0 0 0 0 0 0 0 0 0 0 0 127 0" result="hardAlpha"/>
<feMorphology radius="5" operator="dilate" in="SourceAlpha" result="effect1_dropShadow_1154_1712"/>
<feOffset dy="10"/>
<feGaussianBlur stdDeviation="10"/>
<feComposite in2="hardAlpha" operator="out"/>
<feColorMatrix type="matrix" values="0 0 0 0 0.130188 0 0 0 0 0.12796 0 0 0 0 0.194824 0 0 0 0.05 0"/>
<feBlend mode="normal" in2="BackgroundImageFix" result="effect1_dropShadow_1154_1712"/>
<feBlend mode="normal" in="SourceGraphic" in2="effect1_dropShadow_1154_1712" result="shape"/>
</filter>
<filter id="filter1_d_1154_1712" x="236" y="119" width="180" height="94" filterUnits="userSpaceOnUse" color-interpolation-filters="sRGB">
<feFlood flood-opacity="0" result="BackgroundImageFix"/>
<feColorMatrix in="SourceAlpha" type="matrix" values="0 0 0 0 0 0 0 0 0 0 0 0 0 0 0 0 0 0 127 0" result="hardAlpha"/>
<feMorphology radius="5" operator="dilate" in="SourceAlpha" result="effect1_dropShadow_1154_1712"/>
<feOffset dy="10"/>
<feGaussianBlur stdDeviation="10"/>
<feComposite in2="hardAlpha" operator="out"/>
<feColorMatrix type="matrix" values="0 0 0 0 0.130188 0 0 0 0 0.12796 0 0 0 0 0.194824 0 0 0 0.05 0"/>
<feBlend mode="normal" in2="BackgroundImageFix" result="effect1_dropShadow_1154_1712"/>
<feBlend mode="normal" in="SourceGraphic" in2="effect1_dropShadow_1154_1712" result="shape"/>
</filter>
<filter id="filter2_d_1154_1712" x="387" y="119" width="180" height="94" filterUnits="userSpaceOnUse" color-interpolation-filters="sRGB">
<feFlood flood-opacity="0" result="BackgroundImageFix"/>
<feColorMatrix in="SourceAlpha" type="matrix" values="0 0 0 0 0 0 0 0 0 0 0 0 0 0 0 0 0 0 127 0" result="hardAlpha"/>
<feMorphology radius="5" operator="dilate" in="SourceAlpha" result="effect1_dropShadow_1154_1712"/>
<feOffset dy="10"/>
<feGaussianBlur stdDeviation="10"/>
<feComposite in2="hardAlpha" operator="out"/>
<feColorMatrix type="matrix" values="0 0 0 0 0.130188 0 0 0 0 0.12796 0 0 0 0 0.194824 0 0 0 0.05 0"/>
<feBlend mode="normal" in2="BackgroundImageFix" result="effect1_dropShadow_1154_1712"/>
<feBlend mode="normal" in="SourceGraphic" in2="effect1_dropShadow_1154_1712" result="shape"/>
</filter>
<filter id="filter3_d_1154_1712" x="535" y="119" width="180" height="94" filterUnits="userSpaceOnUse" color-interpolation-filters="sRGB">
<feFlood flood-opacity="0" result="BackgroundImageFix"/>
<feColorMatrix in="SourceAlpha" type="matrix" values="0 0 0 0 0 0 0 0 0 0 0 0 0 0 0 0 0 0 127 0" result="hardAlpha"/>
<feMorphology radius="5" operator="dilate" in="SourceAlpha" result="effect1_dropShadow_1154_1712"/>
<feOffset dy="10"/>
<feGaussianBlur stdDeviation="10"/>
<feComposite in2="hardAlpha" operator="out"/>
<feColorMatrix type="matrix" values="0 0 0 0 0.130188 0 0 0 0 0.12796 0 0 0 0 0.194824 0 0 0 0.05 0"/>
<feBlend mode="normal" in2="BackgroundImageFix" result="effect1_dropShadow_1154_1712"/>
<feBlend mode="normal" in="SourceGraphic" in2="effect1_dropShadow_1154_1712" result="shape"/>
</filter>
<filter id="filter4_d_1154_1712" x="387" y="7" width="180" height="94" filterUnits="userSpaceOnUse" color-interpolation-filters="sRGB">
<feFlood flood-opacity="0" result="BackgroundImageFix"/>
<feColorMatrix in="SourceAlpha" type="matrix" values="0 0 0 0 0 0 0 0 0 0 0 0 0 0 0 0 0 0 127 0" result="hardAlpha"/>
<feMorphology radius="5" operator="dilate" in="SourceAlpha" result="effect1_dropShadow_1154_1712"/>
<feOffset dy="10"/>
<feGaussianBlur stdDeviation="10"/>
<feComposite in2="hardAlpha" operator="out"/>
<feColorMatrix type="matrix" values="0 0 0 0 0.130188 0 0 0 0 0.12796 0 0 0 0 0.194824 0 0 0 0.05 0"/>
<feBlend mode="normal" in2="BackgroundImageFix" result="effect1_dropShadow_1154_1712"/>
<feBlend mode="normal" in="SourceGraphic" in2="effect1_dropShadow_1154_1712" result="shape"/>
</filter>
<filter id="filter5_d_1154_1712" x="87" y="7" width="180" height="94" filterUnits="userSpaceOnUse" color-interpolation-filters="sRGB">
<feFlood flood-opacity="0" result="BackgroundImageFix"/>
<feColorMatrix in="SourceAlpha" type="matrix" values="0 0 0 0 0 0 0 0 0 0 0 0 0 0 0 0 0 0 127 0" result="hardAlpha"/>
<feMorphology radius="5" operator="dilate" in="SourceAlpha" result="effect1_dropShadow_1154_1712"/>
<feOffset dy="10"/>
<feGaussianBlur stdDeviation="10"/>
<feComposite in2="hardAlpha" operator="out"/>
<feColorMatrix type="matrix" values="0 0 0 0 0.130188 0 0 0 0 0.12796 0 0 0 0 0.194824 0 0 0 0.05 0"/>
<feBlend mode="normal" in2="BackgroundImageFix" result="effect1_dropShadow_1154_1712"/>
<feBlend mode="normal" in="SourceGraphic" in2="effect1_dropShadow_1154_1712" result="shape"/>
</filter>
<filter id="filter6_d_1154_1712" x="87" y="119" width="180" height="94" filterUnits="userSpaceOnUse" color-interpolation-filters="sRGB">
<feFlood flood-opacity="0" result="BackgroundImageFix"/>
<feColorMatrix in="SourceAlpha" type="matrix" values="0 0 0 0 0 0 0 0 0 0 0 0 0 0 0 0 0 0 127 0" result="hardAlpha"/>
<feMorphology radius="5" operator="dilate" in="SourceAlpha" result="effect1_dropShadow_1154_1712"/>
<feOffset dy="10"/>
<feGaussianBlur stdDeviation="10"/>
<feComposite in2="hardAlpha" operator="out"/>
<feColorMatrix type="matrix" values="0 0 0 0 0.130188 0 0 0 0 0.12796 0 0 0 0 0.194824 0 0 0 0.05 0"/>
<feBlend mode="normal" in2="BackgroundImageFix" result="effect1_dropShadow_1154_1712"/>
<feBlend mode="normal" in="SourceGraphic" in2="effect1_dropShadow_1154_1712" result="shape"/>
</filter>
<filter id="filter7_d_1154_1712" x="536" y="7" width="180" height="94" filterUnits="userSpaceOnUse" color-interpolation-filters="sRGB">
<feFlood flood-opacity="0" result="BackgroundImageFix"/>
<feColorMatrix in="SourceAlpha" type="matrix" values="0 0 0 0 0 0 0 0 0 0 0 0 0 0 0 0 0 0 127 0" result="hardAlpha"/>
<feMorphology radius="5" operator="dilate" in="SourceAlpha" result="effect1_dropShadow_1154_1712"/>
<feOffset dy="10"/>
<feGaussianBlur stdDeviation="10"/>
<feComposite in2="hardAlpha" operator="out"/>
<feColorMatrix type="matrix" values="0 0 0 0 0.130188 0 0 0 0 0.12796 0 0 0 0 0.194824 0 0 0 0.05 0"/>
<feBlend mode="normal" in2="BackgroundImageFix" result="effect1_dropShadow_1154_1712"/>
<feBlend mode="normal" in="SourceGraphic" in2="effect1_dropShadow_1154_1712" result="shape"/>
</filter>
<clipPath id="clip0_1154_1712">
<rect width="700" height="243" fill="white"/>
</clipPath>
</defs>
</svg>
