<svg width="700" height="243" viewBox="0 0 700 243" fill="none" xmlns="http://www.w3.org/2000/svg">
<g filter="url(#filter0_d_1154_1801)">
<rect x="281" y="50" width="141" height="44" rx="22" fill="white"/>
</g>
<path d="M252 72H280" stroke="#171613" stroke-linecap="round" stroke-dasharray="1 3"/>
<path d="M422 72H450" stroke="#171613" stroke-linecap="round" stroke-dasharray="1 3"/>
<path d="M352 94C352 142 494 142 494 94" stroke="#171613" stroke-linecap="round" stroke-dasharray="1 3"/>
<g filter="url(#filter1_d_1154_1801)">
<path d="M480 152H236C224.402 152 215 161.402 215 173C215 184.598 224.402 194 236 194H480C491.598 194 501 184.598 501 173C501 161.402 491.598 152 480 152Z" fill="white"/>
</g>
<path d="M304 90C313.941 90 322 81.9411 322 72C322 62.0589 313.941 54 304 54C294.059 54 286 62.0589 286 72C286 81.9411 294.059 90 304 90Z" fill="#E8E6DC"/>
<path d="M237 191C246.941 191 255 182.941 255 173C255 163.059 246.941 155 237 155C227.059 155 219 163.059 219 173C219 182.941 227.059 191 237 191Z" fill="#DFFF37"/>
<path d="M301.384 76V75.3215C301.943 74.8922 302.472 74.459 302.971 74.022C303.469 73.585 303.91 73.1518 304.293 72.7225C304.684 72.2855 304.991 71.86 305.213 71.446C305.436 71.032 305.547 70.6333 305.547 70.25C305.547 69.9663 305.493 69.7057 305.386 69.468C305.286 69.2227 305.125 69.0233 304.903 68.87C304.688 68.7167 304.389 68.64 304.006 68.64C303.645 68.64 303.343 68.7205 303.097 68.8815C302.86 69.0348 302.679 69.2418 302.557 69.5025C302.434 69.7555 302.373 70.0353 302.373 70.342H301.441C301.449 69.813 301.564 69.3607 301.786 68.985C302.009 68.6017 302.311 68.3103 302.695 68.111C303.086 67.9117 303.527 67.812 304.017 67.812C304.508 67.812 304.937 67.904 305.305 68.088C305.681 68.2643 305.976 68.5327 306.191 68.893C306.405 69.2457 306.513 69.6865 306.513 70.2155C306.513 70.5912 306.432 70.9668 306.271 71.3425C306.118 71.7182 305.907 72.0862 305.639 72.4465C305.378 72.7992 305.087 73.1403 304.765 73.47C304.443 73.7997 304.113 74.1102 303.776 74.4015C303.438 74.6928 303.116 74.9573 302.81 75.195H306.789V76H301.384Z" fill="#171613"/>
<path d="M237.001 166.7C237.94 166.7 238.701 165.939 238.701 165C238.701 164.061 237.94 163.3 237.001 163.3C236.062 163.3 235.301 164.061 235.301 165C235.301 165.939 236.062 166.7 237.001 166.7Z" fill="#171613"/>
<path d="M237.001 174.7C237.94 174.7 238.701 173.939 238.701 173C238.701 172.061 237.94 171.3 237.001 171.3C236.062 171.3 235.301 172.061 235.301 173C235.301 173.939 236.062 174.7 237.001 174.7Z" fill="#171613"/>
<path d="M237.001 182.7C237.94 182.7 238.701 181.939 238.701 181C238.701 180.061 237.94 179.3 237.001 179.3C236.062 179.3 235.301 180.061 235.301 181C235.301 181.939 236.062 182.7 237.001 182.7Z" fill="#171613"/>
<path d="M229.001 174.7C229.94 174.7 230.701 173.939 230.701 173C230.701 172.061 229.94 171.3 229.001 171.3C228.062 171.3 227.301 172.061 227.301 173C227.301 173.939 228.062 174.7 229.001 174.7Z" fill="#171613"/>
<path d="M245.001 174.7C245.94 174.7 246.701 173.939 246.701 173C246.701 172.061 245.94 171.3 245.001 171.3C244.062 171.3 243.301 172.061 243.301 173C243.301 173.939 244.062 174.7 245.001 174.7Z" fill="#171613"/>
<path d="M231.4 168.8C232.173 168.8 232.8 168.173 232.8 167.4C232.8 166.627 232.173 166 231.4 166C230.627 166 230 166.627 230 167.4C230 168.173 230.627 168.8 231.4 168.8Z" fill="#171613"/>
<path d="M242.599 168.8C243.372 168.8 243.999 168.173 243.999 167.4C243.999 166.627 243.372 166 242.599 166C241.826 166 241.199 166.627 241.199 167.4C241.199 168.173 241.826 168.8 242.599 168.8Z" fill="#171613"/>
<path d="M231.4 180C232.173 180 232.8 179.373 232.8 178.6C232.8 177.827 232.173 177.2 231.4 177.2C230.627 177.2 230 177.827 230 178.6C230 179.373 230.627 180 231.4 180Z" fill="#171613"/>
<path d="M242.599 180C243.372 180 243.999 179.373 243.999 178.6C243.999 177.827 243.372 177.2 242.599 177.2C241.826 177.2 241.199 177.827 241.199 178.6C241.199 179.373 241.826 180 242.599 180Z" fill="#171613"/>
<g filter="url(#filter2_d_1154_1801)">
<rect x="141" y="50" width="108" height="44" rx="22" fill="white"/>
<path d="M164 90C173.941 90 182 81.9411 182 72C182 62.0589 173.941 54 164 54C154.059 54 146 62.0589 146 72C146 81.9411 154.059 90 164 90Z" fill="#E8E6DC"/>
<path d="M164.028 76V69.031L162.51 69.468V68.7435L164.35 67.95H165.005V76H164.028Z" fill="#171613"/>
<path d="M196.05 77V67.2H197.226L202.448 75.054V67.2H203.624V77H202.448L197.226 69.146V77H196.05ZM208.81 77.168C208.156 77.168 207.568 77.0187 207.046 76.72C206.523 76.412 206.112 75.9827 205.814 75.432C205.515 74.872 205.366 74.2233 205.366 73.486C205.366 72.73 205.515 72.0767 205.814 71.526C206.122 70.966 206.537 70.5367 207.06 70.238C207.592 69.93 208.184 69.776 208.838 69.776C209.51 69.776 210.102 69.93 210.616 70.238C211.138 70.5367 211.549 70.966 211.848 71.526C212.156 72.0767 212.31 72.7253 212.31 73.472C212.31 74.2187 212.156 74.872 211.848 75.432C211.54 75.9827 211.124 76.412 210.602 76.72C210.079 77.0187 209.482 77.168 208.81 77.168ZM208.824 76.16C209.225 76.16 209.598 76.062 209.944 75.866C210.289 75.6607 210.569 75.3573 210.784 74.956C210.998 74.5547 211.106 74.06 211.106 73.472C211.106 72.8747 210.998 72.38 210.784 71.988C210.578 71.5867 210.303 71.288 209.958 71.092C209.622 70.8867 209.248 70.784 208.838 70.784C208.446 70.784 208.072 70.8867 207.718 71.092C207.372 71.288 207.092 71.5867 206.878 71.988C206.672 72.38 206.57 72.8747 206.57 73.472C206.57 74.06 206.672 74.5547 206.878 74.956C207.092 75.3573 207.368 75.6607 207.704 75.866C208.049 76.062 208.422 76.16 208.824 76.16ZM215.127 77L213.055 69.944H214.231L215.841 75.894H215.631L217.381 69.944H218.711L220.489 75.88L220.265 75.894L221.861 69.944H223.051L220.993 77H219.789L217.941 70.784H218.179L216.331 77H215.127Z" fill="#171613"/>
</g>
<path d="M339.346 77V68.166H336.42V67.2H343.448V68.166H340.522V77H339.346ZM344.828 77V66.92H346.004V71.134C346.237 70.714 346.564 70.3827 346.984 70.14C347.413 69.8973 347.88 69.776 348.384 69.776C348.925 69.776 349.396 69.888 349.798 70.112C350.199 70.3267 350.507 70.658 350.722 71.106C350.936 71.554 351.044 72.1187 351.044 72.8V77H349.882V72.926C349.882 72.2167 349.732 71.6847 349.434 71.33C349.135 70.966 348.701 70.784 348.132 70.784C347.73 70.784 347.366 70.882 347.04 71.078C346.722 71.274 346.47 71.554 346.284 71.918C346.097 72.282 346.004 72.73 346.004 73.262V77H344.828ZM355.974 77.168C355.312 77.168 354.724 77.014 354.21 76.706C353.706 76.398 353.31 75.9687 353.02 75.418C352.731 74.858 352.586 74.2093 352.586 73.472C352.586 72.7253 352.726 72.0767 353.006 71.526C353.296 70.9753 353.697 70.546 354.21 70.238C354.733 69.93 355.33 69.776 356.002 69.776C356.693 69.776 357.276 69.93 357.752 70.238C358.238 70.546 358.606 70.952 358.858 71.456C359.12 71.9507 359.25 72.4967 359.25 73.094C359.25 73.1873 359.25 73.2853 359.25 73.388C359.25 73.4907 359.246 73.6073 359.236 73.738H353.468V72.828H358.102C358.074 72.184 357.86 71.68 357.458 71.316C357.066 70.952 356.572 70.77 355.974 70.77C355.573 70.77 355.2 70.8633 354.854 71.05C354.518 71.2273 354.248 71.4933 354.042 71.848C353.837 72.1933 353.734 72.6273 353.734 73.15V73.542C353.734 74.1207 353.837 74.606 354.042 74.998C354.257 75.39 354.532 75.684 354.868 75.88C355.214 76.076 355.582 76.174 355.974 76.174C356.469 76.174 356.875 76.0667 357.192 75.852C357.519 75.628 357.752 75.3293 357.892 74.956H359.054C358.942 75.376 358.746 75.754 358.466 76.09C358.186 76.426 357.836 76.692 357.416 76.888C357.006 77.0747 356.525 77.168 355.974 77.168ZM367.748 77.168C367.03 77.168 366.404 77.0373 365.872 76.776C365.34 76.5147 364.93 76.1507 364.64 75.684C364.351 75.2173 364.206 74.676 364.206 74.06H365.438C365.438 74.4427 365.527 74.7973 365.704 75.124C365.882 75.4413 366.138 75.698 366.474 75.894C366.82 76.0807 367.244 76.174 367.748 76.174C368.187 76.174 368.56 76.104 368.868 75.964C369.186 75.8147 369.424 75.614 369.582 75.362C369.75 75.11 369.834 74.8253 369.834 74.508C369.834 74.1253 369.75 73.8173 369.582 73.584C369.424 73.3413 369.204 73.1453 368.924 72.996C368.644 72.8467 368.318 72.716 367.944 72.604C367.58 72.4827 367.198 72.3567 366.796 72.226C366.022 71.9647 365.452 71.638 365.088 71.246C364.724 70.854 364.542 70.3453 364.542 69.72C364.542 69.188 364.664 68.7213 364.906 68.32C365.158 67.9187 365.513 67.606 365.97 67.382C366.437 67.1487 366.988 67.032 367.622 67.032C368.248 67.032 368.789 67.1487 369.246 67.382C369.713 67.6153 370.077 67.9373 370.338 68.348C370.6 68.7493 370.73 69.216 370.73 69.748H369.498C369.498 69.4773 369.428 69.2113 369.288 68.95C369.148 68.6887 368.934 68.474 368.644 68.306C368.364 68.1287 368.01 68.04 367.58 68.04C367.226 68.0307 366.908 68.0913 366.628 68.222C366.358 68.3433 366.143 68.5207 365.984 68.754C365.835 68.9873 365.76 69.272 365.76 69.608C365.76 69.9253 365.826 70.182 365.956 70.378C366.096 70.574 366.292 70.742 366.544 70.882C366.806 71.0127 367.109 71.134 367.454 71.246C367.8 71.358 368.182 71.484 368.602 71.624C369.078 71.7827 369.498 71.9787 369.862 72.212C370.236 72.436 370.525 72.7253 370.73 73.08C370.945 73.4347 371.052 73.8873 371.052 74.438C371.052 74.9047 370.926 75.348 370.674 75.768C370.432 76.1787 370.068 76.5147 369.582 76.776C369.097 77.0373 368.486 77.168 367.748 77.168ZM372.677 80.08V69.944H373.741L373.839 71.092C373.989 70.868 374.18 70.658 374.413 70.462C374.647 70.2567 374.927 70.0933 375.253 69.972C375.58 69.8413 375.953 69.776 376.373 69.776C377.064 69.776 377.661 69.9393 378.165 70.266C378.679 70.5927 379.075 71.036 379.355 71.596C379.645 72.1467 379.789 72.7767 379.789 73.486C379.789 74.1953 379.645 74.83 379.355 75.39C379.075 75.9407 378.679 76.3747 378.165 76.692C377.652 77.0093 377.05 77.168 376.359 77.168C375.79 77.168 375.286 77.0513 374.847 76.818C374.418 76.5847 374.087 76.258 373.853 75.838V80.08H372.677ZM376.233 76.146C376.691 76.146 377.097 76.034 377.451 75.81C377.806 75.586 378.081 75.278 378.277 74.886C378.483 74.4847 378.585 74.0133 378.585 73.472C378.585 72.94 378.483 72.4733 378.277 72.072C378.081 71.6707 377.806 71.358 377.451 71.134C377.097 70.91 376.691 70.798 376.233 70.798C375.767 70.798 375.356 70.91 375.001 71.134C374.647 71.358 374.371 71.6707 374.175 72.072C373.979 72.4733 373.881 72.94 373.881 73.472C373.881 74.0133 373.979 74.4847 374.175 74.886C374.371 75.278 374.647 75.586 375.001 75.81C375.356 76.034 375.767 76.146 376.233 76.146ZM383.737 77.168C383.168 77.168 382.692 77.07 382.309 76.874C381.926 76.6687 381.642 76.4027 381.455 76.076C381.268 75.74 381.175 75.376 381.175 74.984C381.175 74.508 381.296 74.1067 381.539 73.78C381.791 73.444 382.141 73.192 382.589 73.024C383.046 72.8467 383.583 72.758 384.199 72.758H386.061C386.061 72.3193 385.991 71.9553 385.851 71.666C385.72 71.3673 385.524 71.1433 385.263 70.994C385.011 70.8447 384.694 70.77 384.311 70.77C383.863 70.77 383.476 70.882 383.149 71.106C382.822 71.33 382.622 71.6613 382.547 72.1H381.343C381.399 71.596 381.567 71.176 381.847 70.84C382.136 70.4947 382.5 70.2333 382.939 70.056C383.378 69.8693 383.835 69.776 384.311 69.776C384.964 69.776 385.506 69.8973 385.935 70.14C386.374 70.3733 386.7 70.7047 386.915 71.134C387.13 71.554 387.237 72.0533 387.237 72.632V77H386.187L386.117 75.754C386.024 75.95 385.902 76.1367 385.753 76.314C385.613 76.482 385.445 76.6313 385.249 76.762C385.053 76.8833 384.829 76.9813 384.577 77.056C384.334 77.1307 384.054 77.168 383.737 77.168ZM383.919 76.174C384.246 76.174 384.54 76.1087 384.801 75.978C385.072 75.838 385.3 75.6513 385.487 75.418C385.674 75.1753 385.814 74.9093 385.907 74.62C386.01 74.3307 386.061 74.0273 386.061 73.71V73.668H384.297C383.84 73.668 383.471 73.724 383.191 73.836C382.911 73.9387 382.71 74.088 382.589 74.284C382.468 74.4707 382.407 74.6853 382.407 74.928C382.407 75.18 382.463 75.3993 382.575 75.586C382.696 75.7727 382.869 75.9173 383.093 76.02C383.326 76.1227 383.602 76.174 383.919 76.174ZM392.234 77.168C391.572 77.168 390.974 77.014 390.442 76.706C389.92 76.398 389.509 75.9687 389.21 75.418C388.912 74.858 388.762 74.214 388.762 73.486C388.762 72.7393 388.912 72.0907 389.21 71.54C389.509 70.9893 389.92 70.56 390.442 70.252C390.974 69.9347 391.572 69.776 392.234 69.776C393.074 69.776 393.774 69.9953 394.334 70.434C394.894 70.8633 395.249 71.442 395.398 72.17H394.194C394.101 71.7313 393.872 71.3907 393.508 71.148C393.144 70.9053 392.715 70.784 392.22 70.784C391.819 70.784 391.446 70.8867 391.1 71.092C390.755 71.288 390.48 71.5867 390.274 71.988C390.069 72.3893 389.966 72.884 389.966 73.472C389.966 73.9107 390.027 74.3027 390.148 74.648C390.27 74.984 390.433 75.264 390.638 75.488C390.844 75.712 391.082 75.8847 391.352 76.006C391.632 76.118 391.922 76.174 392.22 76.174C392.556 76.174 392.86 76.1227 393.13 76.02C393.401 75.908 393.63 75.7447 393.816 75.53C394.003 75.3153 394.129 75.0633 394.194 74.774H395.398C395.249 75.4833 394.89 76.062 394.32 76.51C393.76 76.9487 393.065 77.168 392.234 77.168ZM400.162 77.168C399.499 77.168 398.911 77.014 398.398 76.706C397.894 76.398 397.497 75.9687 397.208 75.418C396.919 74.858 396.774 74.2093 396.774 73.472C396.774 72.7253 396.914 72.0767 397.194 71.526C397.483 70.9753 397.885 70.546 398.398 70.238C398.921 69.93 399.518 69.776 400.19 69.776C400.881 69.776 401.464 69.93 401.94 70.238C402.425 70.546 402.794 70.952 403.046 71.456C403.307 71.9507 403.438 72.4967 403.438 73.094C403.438 73.1873 403.438 73.2853 403.438 73.388C403.438 73.4907 403.433 73.6073 403.424 73.738H397.656V72.828H402.29C402.262 72.184 402.047 71.68 401.646 71.316C401.254 70.952 400.759 70.77 400.162 70.77C399.761 70.77 399.387 70.8633 399.042 71.05C398.706 71.2273 398.435 71.4933 398.23 71.848C398.025 72.1933 397.922 72.6273 397.922 73.15V73.542C397.922 74.1207 398.025 74.606 398.23 74.998C398.445 75.39 398.72 75.684 399.056 75.88C399.401 76.076 399.77 76.174 400.162 76.174C400.657 76.174 401.063 76.0667 401.38 75.852C401.707 75.628 401.94 75.3293 402.08 74.956H403.242C403.13 75.376 402.934 75.754 402.654 76.09C402.374 76.426 402.024 76.692 401.604 76.888C401.193 77.0747 400.713 77.168 400.162 77.168Z" fill="#171613"/>
<g filter="url(#filter3_d_1154_1801)">
<rect x="450" y="50" width="108" height="44" rx="22" fill="white"/>
<path d="M473 90C482.941 90 491 81.9411 491 72C491 62.0589 482.941 54 473 54C463.059 54 455 62.0589 455 72C455 81.9411 463.059 90 473 90Z" fill="#E8E6DC"/>
<path d="M472.978 76.138C472.465 76.138 471.997 76.046 471.575 75.862C471.161 75.6703 470.832 75.3867 470.586 75.011C470.341 74.6353 470.211 74.1677 470.195 73.608H471.173C471.181 73.9147 471.253 74.1983 471.391 74.459C471.537 74.712 471.744 74.9152 472.012 75.0685C472.281 75.2218 472.603 75.2985 472.978 75.2985C473.354 75.2985 473.668 75.2257 473.921 75.08C474.174 74.9343 474.366 74.7427 474.496 74.505C474.627 74.2597 474.692 73.9875 474.692 73.6885C474.692 73.3205 474.6 73.0215 474.416 72.7915C474.24 72.5615 473.998 72.3928 473.691 72.2855C473.392 72.1705 473.063 72.113 472.702 72.113H472.104V71.2965H472.702C473.239 71.2965 473.661 71.1738 473.967 70.9285C474.274 70.6832 474.427 70.342 474.427 69.905C474.427 69.5447 474.305 69.2457 474.059 69.008C473.822 68.7703 473.461 68.6515 472.978 68.6515C472.511 68.6515 472.139 68.7818 471.863 69.0425C471.595 69.3032 471.441 69.6367 471.403 70.043H470.425C470.448 69.606 470.567 69.2188 470.782 68.8815C470.997 68.5442 471.292 68.2835 471.667 68.0995C472.043 67.9078 472.48 67.812 472.978 67.812C473.507 67.812 473.952 67.904 474.312 68.088C474.673 68.272 474.945 68.5173 475.129 68.824C475.313 69.1307 475.405 69.4718 475.405 69.8475C475.405 70.1158 475.351 70.3765 475.244 70.6295C475.144 70.8748 474.991 71.0895 474.784 71.2735C474.585 71.4575 474.328 71.5878 474.013 71.6645C474.328 71.7258 474.608 71.8447 474.853 72.021C475.106 72.1973 475.305 72.4273 475.451 72.711C475.597 72.987 475.669 73.3128 475.669 73.6885C475.669 74.1255 475.566 74.5318 475.359 74.9075C475.16 75.2755 474.861 75.5745 474.462 75.8045C474.063 76.0268 473.569 76.138 472.978 76.138Z" fill="#171613"/>
<path d="M506.306 78.168C505.354 78.168 504.528 77.958 503.828 77.538C503.137 77.1087 502.605 76.516 502.232 75.76C501.859 74.9947 501.672 74.108 501.672 73.1C501.672 72.092 501.859 71.21 502.232 70.454C502.605 69.6887 503.137 69.096 503.828 68.676C504.528 68.2467 505.354 68.032 506.306 68.032C507.426 68.032 508.336 68.298 509.036 68.83C509.736 69.362 510.184 70.1133 510.38 71.084H509.078C508.929 70.4773 508.625 69.992 508.168 69.628C507.711 69.2547 507.09 69.068 506.306 69.068C505.606 69.068 504.999 69.2313 504.486 69.558C503.973 69.8753 503.576 70.3373 503.296 70.944C503.016 71.5413 502.876 72.26 502.876 73.1C502.876 73.94 503.016 74.6633 503.296 75.27C503.576 75.8673 503.973 76.3293 504.486 76.656C504.999 76.9733 505.606 77.132 506.306 77.132C507.09 77.132 507.711 76.9547 508.168 76.6C508.625 76.236 508.929 75.7553 509.078 75.158H510.38C510.184 76.1007 509.736 76.838 509.036 77.37C508.336 77.902 507.426 78.168 506.306 78.168ZM512.015 78V67.92H513.191V72.134C513.424 71.714 513.751 71.3827 514.171 71.14C514.6 70.8973 515.067 70.776 515.571 70.776C516.112 70.776 516.584 70.888 516.985 71.112C517.386 71.3267 517.694 71.658 517.909 72.106C518.124 72.554 518.231 73.1187 518.231 73.8V78H517.069V73.926C517.069 73.2167 516.92 72.6847 516.621 72.33C516.322 71.966 515.888 71.784 515.319 71.784C514.918 71.784 514.554 71.882 514.227 72.078C513.91 72.274 513.658 72.554 513.471 72.918C513.284 73.282 513.191 73.73 513.191 74.262V78H512.015ZM522.364 78.168C521.795 78.168 521.319 78.07 520.936 77.874C520.553 77.6687 520.269 77.4027 520.082 77.076C519.895 76.74 519.802 76.376 519.802 75.984C519.802 75.508 519.923 75.1067 520.166 74.78C520.418 74.444 520.768 74.192 521.216 74.024C521.673 73.8467 522.21 73.758 522.826 73.758H524.688C524.688 73.3193 524.618 72.9553 524.478 72.666C524.347 72.3673 524.151 72.1433 523.89 71.994C523.638 71.8447 523.321 71.77 522.938 71.77C522.49 71.77 522.103 71.882 521.776 72.106C521.449 72.33 521.249 72.6613 521.174 73.1H519.97C520.026 72.596 520.194 72.176 520.474 71.84C520.763 71.4947 521.127 71.2333 521.566 71.056C522.005 70.8693 522.462 70.776 522.938 70.776C523.591 70.776 524.133 70.8973 524.562 71.14C525.001 71.3733 525.327 71.7047 525.542 72.134C525.757 72.554 525.864 73.0533 525.864 73.632V78H524.814L524.744 76.754C524.651 76.95 524.529 77.1367 524.38 77.314C524.24 77.482 524.072 77.6313 523.876 77.762C523.68 77.8833 523.456 77.9813 523.204 78.056C522.961 78.1307 522.681 78.168 522.364 78.168ZM522.546 77.174C522.873 77.174 523.167 77.1087 523.428 76.978C523.699 76.838 523.927 76.6513 524.114 76.418C524.301 76.1753 524.441 75.9093 524.534 75.62C524.637 75.3307 524.688 75.0273 524.688 74.71V74.668H522.924C522.467 74.668 522.098 74.724 521.818 74.836C521.538 74.9387 521.337 75.088 521.216 75.284C521.095 75.4707 521.034 75.6853 521.034 75.928C521.034 76.18 521.09 76.3993 521.202 76.586C521.323 76.7727 521.496 76.9173 521.72 77.02C521.953 77.1227 522.229 77.174 522.546 77.174ZM530.264 78C529.844 78 529.48 77.9347 529.172 77.804C528.864 77.6733 528.626 77.454 528.458 77.146C528.299 76.8287 528.22 76.404 528.22 75.872V71.938H526.988V70.944H528.22L528.374 69.236H529.396V70.944H531.44V71.938H529.396V75.872C529.396 76.3107 529.484 76.6093 529.662 76.768C529.839 76.9173 530.152 76.992 530.6 76.992H531.356V78H530.264Z" fill="#171613"/>
</g>
<path d="M272.969 177.662C272.366 177.662 271.817 177.554 271.322 177.338C270.836 177.113 270.449 176.78 270.161 176.339C269.873 175.898 269.72 175.349 269.702 174.692H270.85C270.859 175.052 270.944 175.385 271.106 175.691C271.277 175.988 271.52 176.226 271.835 176.406C272.15 176.586 272.528 176.676 272.969 176.676C273.41 176.676 273.779 176.591 274.076 176.42C274.373 176.249 274.598 176.024 274.751 175.745C274.904 175.457 274.981 175.137 274.981 174.786C274.981 174.354 274.873 174.003 274.657 173.733C274.45 173.454 274.166 173.247 273.806 173.112C273.455 172.977 273.068 172.91 272.645 172.91H271.943V171.951H272.645C273.266 171.951 273.752 171.807 274.103 171.519C274.454 171.231 274.63 170.835 274.63 170.331C274.63 169.917 274.49 169.571 274.211 169.292C273.932 169.013 273.518 168.873 272.969 168.873C272.429 168.873 272.002 169.026 271.687 169.332C271.372 169.638 271.192 170.03 271.147 170.507H269.999C270.026 169.994 270.166 169.539 270.418 169.143C270.67 168.747 271.012 168.441 271.444 168.225C271.876 168 272.384 167.888 272.969 167.888C273.581 167.888 274.094 167.996 274.508 168.212C274.931 168.428 275.246 168.716 275.453 169.076C275.669 169.436 275.777 169.832 275.777 170.264C275.777 170.588 275.719 170.894 275.602 171.182C275.485 171.47 275.309 171.722 275.075 171.938C274.841 172.145 274.544 172.293 274.184 172.383C274.553 172.455 274.882 172.599 275.17 172.815C275.467 173.022 275.701 173.292 275.872 173.625C276.042 173.958 276.128 174.345 276.128 174.786C276.128 175.299 276.007 175.776 275.764 176.217C275.53 176.649 275.179 177 274.711 177.27C274.243 177.531 273.662 177.662 272.969 177.662ZM281.507 177.5V170.669H282.533L282.601 171.641C282.817 171.29 283.105 171.015 283.465 170.817C283.834 170.61 284.234 170.507 284.666 170.507C285.017 170.507 285.332 170.556 285.611 170.655C285.899 170.745 286.151 170.889 286.367 171.087C286.583 171.276 286.754 171.519 286.88 171.816C287.114 171.402 287.434 171.083 287.839 170.858C288.253 170.624 288.689 170.507 289.148 170.507C289.679 170.507 290.138 170.615 290.525 170.831C290.921 171.038 291.223 171.357 291.43 171.789C291.646 172.212 291.754 172.748 291.754 173.396V177.5H290.633V173.517C290.633 172.842 290.494 172.334 290.215 171.992C289.936 171.65 289.54 171.479 289.027 171.479C288.676 171.479 288.361 171.573 288.082 171.762C287.812 171.942 287.596 172.208 287.434 172.559C287.272 172.901 287.191 173.328 287.191 173.841V177.5H286.057V173.517C286.057 172.842 285.917 172.334 285.638 171.992C285.359 171.65 284.968 171.479 284.464 171.479C284.122 171.479 283.811 171.573 283.532 171.762C283.262 171.942 283.046 172.208 282.884 172.559C282.722 172.901 282.641 173.328 282.641 173.841V177.5H281.507ZM296.555 177.662C295.925 177.662 295.358 177.518 294.854 177.23C294.35 176.933 293.954 176.514 293.666 175.974C293.378 175.434 293.234 174.804 293.234 174.084C293.234 173.355 293.378 172.725 293.666 172.194C293.963 171.663 294.363 171.249 294.867 170.952C295.38 170.655 295.952 170.507 296.582 170.507C297.23 170.507 297.806 170.655 298.31 170.952C298.814 171.249 299.21 171.663 299.498 172.194C299.786 172.725 299.93 173.355 299.93 174.084C299.93 174.804 299.781 175.434 299.484 175.974C299.196 176.514 298.796 176.933 298.283 177.23C297.779 177.518 297.203 177.662 296.555 177.662ZM296.568 176.69C296.964 176.69 297.329 176.595 297.662 176.406C297.995 176.208 298.26 175.916 298.458 175.529C298.665 175.142 298.769 174.66 298.769 174.084C298.769 173.499 298.67 173.018 298.472 172.64C298.274 172.253 298.008 171.965 297.675 171.776C297.342 171.578 296.978 171.479 296.582 171.479C296.204 171.479 295.844 171.578 295.502 171.776C295.169 171.965 294.899 172.253 294.692 172.64C294.494 173.027 294.395 173.508 294.395 174.084C294.395 174.66 294.494 175.142 294.692 175.529C294.899 175.916 295.164 176.208 295.488 176.406C295.821 176.595 296.181 176.69 296.568 176.69ZM304.53 177.662C303.873 177.662 303.297 177.509 302.802 177.203C302.307 176.888 301.924 176.46 301.654 175.92C301.384 175.371 301.249 174.755 301.249 174.071C301.249 173.378 301.384 172.766 301.654 172.235C301.924 171.704 302.307 171.285 302.802 170.979C303.306 170.664 303.886 170.507 304.543 170.507C305.092 170.507 305.574 170.619 305.988 170.844C306.411 171.069 306.739 171.384 306.973 171.789V167.78H308.107V177.5H307.081L306.973 176.379C306.829 176.604 306.645 176.816 306.42 177.014C306.204 177.203 305.938 177.36 305.623 177.486C305.308 177.604 304.944 177.662 304.53 177.662ZM304.665 176.676C305.115 176.676 305.511 176.568 305.853 176.352C306.195 176.136 306.46 175.835 306.649 175.448C306.838 175.061 306.933 174.606 306.933 174.084C306.933 173.562 306.838 173.108 306.649 172.721C306.46 172.334 306.195 172.032 305.853 171.816C305.511 171.6 305.115 171.492 304.665 171.492C304.224 171.492 303.832 171.6 303.49 171.816C303.148 172.032 302.883 172.334 302.694 172.721C302.505 173.108 302.41 173.562 302.41 174.084C302.41 174.606 302.505 175.061 302.694 175.448C302.883 175.835 303.148 176.136 303.49 176.352C303.832 176.568 304.224 176.676 304.665 176.676ZM312.967 177.662C312.328 177.662 311.761 177.513 311.266 177.216C310.78 176.919 310.398 176.505 310.119 175.974C309.84 175.434 309.7 174.804 309.7 174.084C309.7 173.364 309.835 172.739 310.105 172.208C310.384 171.668 310.771 171.249 311.266 170.952C311.77 170.655 312.346 170.507 312.994 170.507C313.66 170.507 314.223 170.655 314.682 170.952C315.15 171.249 315.505 171.641 315.748 172.127C316 172.613 316.126 173.144 316.126 173.72C316.126 173.81 316.126 173.904 316.126 174.003C316.126 174.102 316.122 174.215 316.113 174.341H310.551V173.463H315.006C314.988 172.833 314.785 172.343 314.398 171.992C314.02 171.641 313.543 171.465 312.967 171.465C312.58 171.465 312.22 171.555 311.887 171.735C311.563 171.906 311.302 172.163 311.104 172.505C310.906 172.838 310.807 173.261 310.807 173.774V174.152C310.807 174.719 310.906 175.191 311.104 175.569C311.311 175.947 311.577 176.231 311.901 176.42C312.234 176.609 312.589 176.703 312.967 176.703C313.444 176.703 313.836 176.6 314.142 176.393C314.448 176.186 314.673 175.898 314.817 175.529H315.937C315.82 175.934 315.627 176.298 315.357 176.622C315.096 176.946 314.763 177.203 314.358 177.392C313.962 177.572 313.498 177.662 312.967 177.662ZM323.807 177.662C323.24 177.662 322.745 177.567 322.322 177.378C321.899 177.189 321.566 176.928 321.323 176.595C321.08 176.253 320.932 175.853 320.878 175.394H322.039C322.084 175.628 322.178 175.844 322.322 176.042C322.466 176.24 322.66 176.402 322.903 176.528C323.155 176.645 323.461 176.703 323.821 176.703C324.136 176.703 324.397 176.658 324.604 176.568C324.811 176.469 324.964 176.339 325.063 176.177C325.171 176.015 325.225 175.835 325.225 175.637C325.225 175.358 325.157 175.146 325.022 175.002C324.896 174.849 324.707 174.732 324.455 174.651C324.203 174.57 323.902 174.498 323.551 174.435C323.236 174.381 322.934 174.309 322.646 174.219C322.358 174.12 322.102 173.999 321.877 173.855C321.652 173.711 321.476 173.531 321.35 173.315C321.224 173.09 321.161 172.82 321.161 172.505C321.161 172.118 321.26 171.776 321.458 171.479C321.656 171.173 321.94 170.934 322.309 170.763C322.687 170.592 323.128 170.507 323.632 170.507C324.361 170.507 324.95 170.682 325.4 171.033C325.85 171.384 326.111 171.893 326.183 172.559H325.063C325.027 172.217 324.883 171.951 324.631 171.762C324.379 171.564 324.041 171.465 323.618 171.465C323.186 171.465 322.858 171.551 322.633 171.722C322.417 171.893 322.309 172.118 322.309 172.397C322.309 172.586 322.367 172.752 322.484 172.896C322.601 173.031 322.781 173.148 323.024 173.247C323.267 173.346 323.569 173.427 323.929 173.49C324.388 173.571 324.802 173.679 325.171 173.814C325.54 173.949 325.832 174.152 326.048 174.422C326.273 174.683 326.386 175.056 326.386 175.542C326.395 175.974 326.291 176.348 326.075 176.663C325.859 176.978 325.558 177.225 325.171 177.405C324.784 177.576 324.329 177.662 323.807 177.662ZM329.172 177.5L327.16 170.669H328.294L329.847 176.406L329.658 176.393L331.359 170.669H332.641L334.342 176.393H334.14L335.692 170.669H336.84L334.828 177.5H333.667L331.899 171.519H332.101L330.333 177.5H329.172ZM338.212 177.5V170.669H339.346V177.5H338.212ZM338.779 169.224C338.554 169.224 338.365 169.152 338.212 169.008C338.068 168.855 337.996 168.666 337.996 168.441C337.996 168.216 338.068 168.036 338.212 167.901C338.365 167.757 338.554 167.685 338.779 167.685C338.995 167.685 339.18 167.757 339.333 167.901C339.486 168.036 339.562 168.216 339.562 168.441C339.562 168.666 339.486 168.855 339.333 169.008C339.18 169.152 338.995 169.224 338.779 169.224ZM344.02 177.5C343.615 177.5 343.264 177.437 342.967 177.311C342.67 177.185 342.441 176.973 342.279 176.676C342.126 176.37 342.049 175.961 342.049 175.448V171.627H340.861V170.669H342.049L342.198 169.008H343.183V170.669H345.168V171.627H343.183V175.448C343.183 175.871 343.269 176.159 343.44 176.312C343.611 176.456 343.912 176.528 344.344 176.528H345.087V177.5H344.02ZM349.527 177.662C348.888 177.662 348.312 177.513 347.799 177.216C347.295 176.919 346.899 176.501 346.611 175.961C346.323 175.421 346.179 174.795 346.179 174.084C346.179 173.364 346.323 172.739 346.611 172.208C346.899 171.677 347.295 171.263 347.799 170.966C348.312 170.66 348.888 170.507 349.527 170.507C350.337 170.507 351.012 170.718 351.552 171.141C352.092 171.564 352.434 172.127 352.578 172.829H351.417C351.327 172.406 351.107 172.077 350.756 171.843C350.405 171.6 349.991 171.479 349.514 171.479C349.127 171.479 348.767 171.578 348.434 171.776C348.101 171.974 347.835 172.266 347.637 172.653C347.439 173.031 347.34 173.508 347.34 174.084C347.34 174.507 347.399 174.885 347.516 175.218C347.633 175.542 347.79 175.817 347.988 176.042C348.186 176.258 348.416 176.424 348.677 176.541C348.947 176.649 349.226 176.703 349.514 176.703C349.838 176.703 350.13 176.649 350.391 176.541C350.652 176.433 350.873 176.28 351.053 176.082C351.233 175.875 351.354 175.628 351.417 175.34H352.578C352.434 176.033 352.088 176.595 351.539 177.027C350.999 177.451 350.328 177.662 349.527 177.662ZM354.188 177.5V167.78H355.322V171.816C355.547 171.411 355.862 171.092 356.267 170.858C356.681 170.624 357.131 170.507 357.617 170.507C358.139 170.507 358.594 170.615 358.981 170.831C359.368 171.038 359.665 171.357 359.872 171.789C360.079 172.212 360.182 172.752 360.182 173.409V177.5H359.062V173.531C359.062 172.856 358.913 172.347 358.616 172.005C358.328 171.654 357.914 171.479 357.374 171.479C356.987 171.479 356.636 171.573 356.321 171.762C356.015 171.942 355.772 172.208 355.592 172.559C355.412 172.91 355.322 173.342 355.322 173.855V177.5H354.188ZM364.937 177.662C364.298 177.662 363.731 177.513 363.236 177.216C362.75 176.919 362.367 176.505 362.088 175.974C361.809 175.434 361.67 174.804 361.67 174.084C361.67 173.364 361.805 172.739 362.075 172.208C362.354 171.668 362.741 171.249 363.236 170.952C363.74 170.655 364.316 170.507 364.964 170.507C365.63 170.507 366.192 170.655 366.651 170.952C367.119 171.249 367.475 171.641 367.718 172.127C367.97 172.613 368.096 173.144 368.096 173.72C368.096 173.81 368.096 173.904 368.096 174.003C368.096 174.102 368.091 174.215 368.082 174.341H362.52V173.463H366.975C366.957 172.833 366.755 172.343 366.368 171.992C365.99 171.641 365.513 171.465 364.937 171.465C364.55 171.465 364.19 171.555 363.857 171.735C363.533 171.906 363.272 172.163 363.074 172.505C362.876 172.838 362.777 173.261 362.777 173.774V174.152C362.777 174.719 362.876 175.191 363.074 175.569C363.281 175.947 363.546 176.231 363.87 176.42C364.203 176.609 364.559 176.703 364.937 176.703C365.414 176.703 365.805 176.6 366.111 176.393C366.417 176.186 366.642 175.898 366.786 175.529H367.907C367.79 175.934 367.596 176.298 367.326 176.622C367.065 176.946 366.732 177.203 366.327 177.392C365.931 177.572 365.468 177.662 364.937 177.662ZM372.191 177.662C371.624 177.662 371.129 177.567 370.706 177.378C370.283 177.189 369.95 176.928 369.707 176.595C369.464 176.253 369.316 175.853 369.262 175.394H370.423C370.468 175.628 370.562 175.844 370.706 176.042C370.85 176.24 371.044 176.402 371.287 176.528C371.539 176.645 371.845 176.703 372.205 176.703C372.52 176.703 372.781 176.658 372.988 176.568C373.195 176.469 373.348 176.339 373.447 176.177C373.555 176.015 373.609 175.835 373.609 175.637C373.609 175.358 373.541 175.146 373.406 175.002C373.28 174.849 373.091 174.732 372.839 174.651C372.587 174.57 372.286 174.498 371.935 174.435C371.62 174.381 371.318 174.309 371.03 174.219C370.742 174.12 370.486 173.999 370.261 173.855C370.036 173.711 369.86 173.531 369.734 173.315C369.608 173.09 369.545 172.82 369.545 172.505C369.545 172.118 369.644 171.776 369.842 171.479C370.04 171.173 370.324 170.934 370.693 170.763C371.071 170.592 371.512 170.507 372.016 170.507C372.745 170.507 373.334 170.682 373.784 171.033C374.234 171.384 374.495 171.893 374.567 172.559H373.447C373.411 172.217 373.267 171.951 373.015 171.762C372.763 171.564 372.425 171.465 372.002 171.465C371.57 171.465 371.242 171.551 371.017 171.722C370.801 171.893 370.693 172.118 370.693 172.397C370.693 172.586 370.751 172.752 370.868 172.896C370.985 173.031 371.165 173.148 371.408 173.247C371.651 173.346 371.953 173.427 372.313 173.49C372.772 173.571 373.186 173.679 373.555 173.814C373.924 173.949 374.216 174.152 374.432 174.422C374.657 174.683 374.77 175.056 374.77 175.542C374.779 175.974 374.675 176.348 374.459 176.663C374.243 176.978 373.942 177.225 373.555 177.405C373.168 177.576 372.713 177.662 372.191 177.662ZM383.566 177.662C383.17 177.662 382.814 177.608 382.499 177.5C382.193 177.383 381.923 177.23 381.689 177.041C381.464 176.843 381.275 176.622 381.122 176.379L381.028 177.5H380.002V167.78H381.136V171.789C381.352 171.429 381.662 171.128 382.067 170.885C382.472 170.633 382.972 170.507 383.566 170.507C384.223 170.507 384.794 170.664 385.28 170.979C385.775 171.285 386.158 171.708 386.428 172.248C386.707 172.788 386.846 173.4 386.846 174.084C386.846 174.768 386.707 175.38 386.428 175.92C386.158 176.46 385.775 176.888 385.28 177.203C384.794 177.509 384.223 177.662 383.566 177.662ZM383.431 176.676C383.872 176.676 384.263 176.568 384.605 176.352C384.947 176.136 385.213 175.835 385.402 175.448C385.6 175.061 385.699 174.606 385.699 174.084C385.699 173.562 385.6 173.108 385.402 172.721C385.213 172.334 384.947 172.032 384.605 171.816C384.263 171.6 383.872 171.492 383.431 171.492C382.981 171.492 382.585 171.6 382.243 171.816C381.901 172.032 381.635 172.334 381.446 172.721C381.257 173.108 381.163 173.562 381.163 174.084C381.163 174.606 381.257 175.061 381.446 175.448C381.635 175.835 381.901 176.136 382.243 176.352C382.585 176.568 382.981 176.676 383.431 176.676ZM391.436 177.662C390.797 177.662 390.23 177.513 389.735 177.216C389.249 176.919 388.866 176.505 388.587 175.974C388.308 175.434 388.169 174.804 388.169 174.084C388.169 173.364 388.304 172.739 388.574 172.208C388.853 171.668 389.24 171.249 389.735 170.952C390.239 170.655 390.815 170.507 391.463 170.507C392.129 170.507 392.691 170.655 393.15 170.952C393.618 171.249 393.974 171.641 394.217 172.127C394.469 172.613 394.595 173.144 394.595 173.72C394.595 173.81 394.595 173.904 394.595 174.003C394.595 174.102 394.59 174.215 394.581 174.341H389.019V173.463H393.474C393.456 172.833 393.254 172.343 392.867 171.992C392.489 171.641 392.012 171.465 391.436 171.465C391.049 171.465 390.689 171.555 390.356 171.735C390.032 171.906 389.771 172.163 389.573 172.505C389.375 172.838 389.276 173.261 389.276 173.774V174.152C389.276 174.719 389.375 175.191 389.573 175.569C389.78 175.947 390.045 176.231 390.369 176.42C390.702 176.609 391.058 176.703 391.436 176.703C391.913 176.703 392.304 176.6 392.61 176.393C392.916 176.186 393.141 175.898 393.285 175.529H394.406C394.289 175.934 394.095 176.298 393.825 176.622C393.564 176.946 393.231 177.203 392.826 177.392C392.43 177.572 391.967 177.662 391.436 177.662ZM396.517 177.5V169.643C396.517 169.211 396.589 168.86 396.733 168.59C396.877 168.311 397.088 168.108 397.367 167.982C397.655 167.847 398.006 167.78 398.42 167.78H399.203V168.752H398.596C398.254 168.752 398.011 168.819 397.867 168.954C397.723 169.089 397.651 169.328 397.651 169.67V177.5H396.517ZM395.464 171.627V170.669H399.365V171.627H395.464ZM403.513 177.662C402.883 177.662 402.316 177.518 401.812 177.23C401.308 176.933 400.912 176.514 400.624 175.974C400.336 175.434 400.192 174.804 400.192 174.084C400.192 173.355 400.336 172.725 400.624 172.194C400.921 171.663 401.322 171.249 401.826 170.952C402.339 170.655 402.91 170.507 403.54 170.507C404.188 170.507 404.764 170.655 405.268 170.952C405.772 171.249 406.168 171.663 406.456 172.194C406.744 172.725 406.888 173.355 406.888 174.084C406.888 174.804 406.74 175.434 406.443 175.974C406.155 176.514 405.754 176.933 405.241 177.23C404.737 177.518 404.161 177.662 403.513 177.662ZM403.527 176.69C403.923 176.69 404.287 176.595 404.62 176.406C404.953 176.208 405.219 175.916 405.417 175.529C405.624 175.142 405.727 174.66 405.727 174.084C405.727 173.499 405.628 173.018 405.43 172.64C405.232 172.253 404.967 171.965 404.634 171.776C404.301 171.578 403.936 171.479 403.54 171.479C403.162 171.479 402.802 171.578 402.46 171.776C402.127 171.965 401.857 172.253 401.65 172.64C401.452 173.027 401.353 173.508 401.353 174.084C401.353 174.66 401.452 175.142 401.65 175.529C401.857 175.916 402.123 176.208 402.447 176.406C402.78 176.595 403.14 176.69 403.527 176.69ZM408.491 177.5V170.669H409.517L409.598 171.965C409.751 171.659 409.949 171.398 410.192 171.182C410.435 170.966 410.728 170.799 411.07 170.683C411.412 170.565 411.794 170.507 412.217 170.507V171.695H411.785C411.497 171.695 411.223 171.735 410.962 171.816C410.701 171.888 410.467 172.01 410.26 172.181C410.062 172.343 409.904 172.572 409.787 172.869C409.679 173.157 409.625 173.517 409.625 173.949V177.5H408.491ZM416.247 177.662C415.608 177.662 415.041 177.513 414.546 177.216C414.06 176.919 413.678 176.505 413.399 175.974C413.12 175.434 412.98 174.804 412.98 174.084C412.98 173.364 413.115 172.739 413.385 172.208C413.664 171.668 414.051 171.249 414.546 170.952C415.05 170.655 415.626 170.507 416.274 170.507C416.94 170.507 417.503 170.655 417.962 170.952C418.43 171.249 418.785 171.641 419.028 172.127C419.28 172.613 419.406 173.144 419.406 173.72C419.406 173.81 419.406 173.904 419.406 174.003C419.406 174.102 419.402 174.215 419.393 174.341H413.831V173.463H418.286C418.268 172.833 418.065 172.343 417.678 171.992C417.3 171.641 416.823 171.465 416.247 171.465C415.86 171.465 415.5 171.555 415.167 171.735C414.843 171.906 414.582 172.163 414.384 172.505C414.186 172.838 414.087 173.261 414.087 173.774V174.152C414.087 174.719 414.186 175.191 414.384 175.569C414.591 175.947 414.857 176.231 415.181 176.42C415.514 176.609 415.869 176.703 416.247 176.703C416.724 176.703 417.116 176.6 417.422 176.393C417.728 176.186 417.953 175.898 418.097 175.529H419.217C419.1 175.934 418.907 176.298 418.637 176.622C418.376 176.946 418.043 177.203 417.638 177.392C417.242 177.572 416.778 177.662 416.247 177.662ZM427.587 177.662C426.948 177.662 426.372 177.513 425.859 177.216C425.355 176.919 424.959 176.501 424.671 175.961C424.383 175.421 424.239 174.795 424.239 174.084C424.239 173.364 424.383 172.739 424.671 172.208C424.959 171.677 425.355 171.263 425.859 170.966C426.372 170.66 426.948 170.507 427.587 170.507C428.397 170.507 429.072 170.718 429.612 171.141C430.152 171.564 430.494 172.127 430.638 172.829H429.477C429.387 172.406 429.167 172.077 428.816 171.843C428.465 171.6 428.051 171.479 427.574 171.479C427.187 171.479 426.827 171.578 426.494 171.776C426.161 171.974 425.895 172.266 425.697 172.653C425.499 173.031 425.4 173.508 425.4 174.084C425.4 174.507 425.459 174.885 425.576 175.218C425.693 175.542 425.85 175.817 426.048 176.042C426.246 176.258 426.476 176.424 426.737 176.541C427.007 176.649 427.286 176.703 427.574 176.703C427.898 176.703 428.19 176.649 428.451 176.541C428.712 176.433 428.933 176.28 429.113 176.082C429.293 175.875 429.414 175.628 429.477 175.34H430.638C430.494 176.033 430.148 176.595 429.599 177.027C429.059 177.451 428.388 177.662 427.587 177.662ZM434.462 177.662C433.913 177.662 433.454 177.567 433.085 177.378C432.725 177.18 432.455 176.919 432.275 176.595C432.095 176.271 432.005 175.925 432.005 175.556C432.005 175.088 432.122 174.696 432.356 174.381C432.599 174.057 432.937 173.814 433.369 173.652C433.801 173.481 434.314 173.396 434.908 173.396H436.703C436.703 172.964 436.64 172.608 436.514 172.329C436.388 172.041 436.199 171.825 435.947 171.681C435.695 171.537 435.385 171.465 435.016 171.465C434.593 171.465 434.224 171.573 433.909 171.789C433.594 172.005 433.4 172.32 433.328 172.734H432.167C432.221 172.257 432.383 171.857 432.653 171.533C432.932 171.2 433.279 170.948 433.693 170.777C434.116 170.597 434.557 170.507 435.016 170.507C435.646 170.507 436.168 170.624 436.582 170.858C437.005 171.083 437.32 171.402 437.527 171.816C437.734 172.221 437.837 172.703 437.837 173.261V177.5H436.825L436.757 176.298C436.667 176.487 436.55 176.667 436.406 176.838C436.271 177 436.109 177.144 435.92 177.27C435.731 177.387 435.515 177.482 435.272 177.554C435.038 177.626 434.768 177.662 434.462 177.662ZM434.638 176.703C434.953 176.703 435.236 176.64 435.488 176.514C435.749 176.379 435.97 176.199 436.15 175.974C436.33 175.74 436.465 175.484 436.555 175.205C436.654 174.926 436.703 174.633 436.703 174.327V174.273H435.002C434.561 174.273 434.206 174.327 433.936 174.435C433.675 174.534 433.486 174.678 433.369 174.867C433.252 175.047 433.193 175.259 433.193 175.502C433.193 175.745 433.247 175.956 433.355 176.136C433.463 176.316 433.625 176.456 433.841 176.555C434.066 176.654 434.332 176.703 434.638 176.703ZM439.605 180.47V170.669H440.631L440.725 171.776C440.869 171.56 441.054 171.357 441.279 171.168C441.504 170.97 441.774 170.813 442.089 170.696C442.404 170.57 442.764 170.507 443.169 170.507C443.826 170.507 444.397 170.664 444.883 170.979C445.378 171.294 445.761 171.722 446.031 172.262C446.31 172.793 446.449 173.405 446.449 174.098C446.449 174.782 446.31 175.394 446.031 175.934C445.761 176.474 445.378 176.897 444.883 177.203C444.388 177.509 443.812 177.662 443.155 177.662C442.606 177.662 442.12 177.549 441.697 177.324C441.283 177.099 440.964 176.784 440.739 176.379V180.47H439.605ZM443.034 176.676C443.475 176.676 443.866 176.568 444.208 176.352C444.55 176.136 444.816 175.835 445.005 175.448C445.203 175.061 445.302 174.606 445.302 174.084C445.302 173.562 445.203 173.108 445.005 172.721C444.816 172.334 444.55 172.032 444.208 171.816C443.866 171.6 443.475 171.492 443.034 171.492C442.584 171.492 442.188 171.6 441.846 171.816C441.504 172.032 441.238 172.334 441.049 172.721C440.86 173.108 440.766 173.562 440.766 174.084C440.766 174.606 440.86 175.061 441.049 175.448C441.238 175.835 441.504 176.136 441.846 176.352C442.188 176.568 442.584 176.676 443.034 176.676ZM450.465 177.5C450.06 177.5 449.709 177.437 449.412 177.311C449.115 177.185 448.885 176.973 448.723 176.676C448.57 176.37 448.494 175.961 448.494 175.448V171.627H447.306V170.669H448.494L448.642 169.008H449.628V170.669H451.612V171.627H449.628V175.448C449.628 175.871 449.713 176.159 449.884 176.312C450.055 176.456 450.357 176.528 450.789 176.528H451.531V177.5H450.465ZM455.562 177.662C455.04 177.662 454.585 177.558 454.198 177.351C453.811 177.144 453.51 176.829 453.294 176.406C453.078 175.974 452.97 175.434 452.97 174.786V170.669H454.104V174.665C454.104 175.34 454.252 175.848 454.549 176.19C454.855 176.523 455.278 176.69 455.818 176.69C456.196 176.69 456.534 176.6 456.831 176.42C457.137 176.24 457.375 175.979 457.546 175.637C457.726 175.286 457.816 174.858 457.816 174.354V170.669H458.95V177.5H457.924L457.857 176.325C457.65 176.739 457.344 177.068 456.939 177.311C456.534 177.545 456.075 177.662 455.562 177.662ZM460.843 177.5V170.669H461.869L461.95 171.965C462.103 171.659 462.301 171.398 462.544 171.182C462.787 170.966 463.08 170.799 463.422 170.683C463.764 170.565 464.146 170.507 464.569 170.507V171.695H464.137C463.849 171.695 463.575 171.735 463.314 171.816C463.053 171.888 462.819 172.01 462.612 172.181C462.414 172.343 462.256 172.572 462.139 172.869C462.031 173.157 461.977 173.517 461.977 173.949V177.5H460.843ZM468.599 177.662C467.96 177.662 467.393 177.513 466.898 177.216C466.412 176.919 466.03 176.505 465.751 175.974C465.472 175.434 465.332 174.804 465.332 174.084C465.332 173.364 465.467 172.739 465.737 172.208C466.016 171.668 466.403 171.249 466.898 170.952C467.402 170.655 467.978 170.507 468.626 170.507C469.292 170.507 469.855 170.655 470.314 170.952C470.782 171.249 471.137 171.641 471.38 172.127C471.632 172.613 471.758 173.144 471.758 173.72C471.758 173.81 471.758 173.904 471.758 174.003C471.758 174.102 471.754 174.215 471.745 174.341H466.183V173.463H470.638C470.62 172.833 470.417 172.343 470.03 171.992C469.652 171.641 469.175 171.465 468.599 171.465C468.212 171.465 467.852 171.555 467.519 171.735C467.195 171.906 466.934 172.163 466.736 172.505C466.538 172.838 466.439 173.261 466.439 173.774V174.152C466.439 174.719 466.538 175.191 466.736 175.569C466.943 175.947 467.209 176.231 467.533 176.42C467.866 176.609 468.221 176.703 468.599 176.703C469.076 176.703 469.468 176.6 469.774 176.393C470.08 176.186 470.305 175.898 470.449 175.529H471.569C471.452 175.934 471.259 176.298 470.989 176.622C470.728 176.946 470.395 177.203 469.99 177.392C469.594 177.572 469.13 177.662 468.599 177.662Z" fill="#171613"/>
<defs>
<filter id="filter0_d_1154_1801" x="256" y="35" width="191" height="94" filterUnits="userSpaceOnUse" color-interpolation-filters="sRGB">
<feFlood flood-opacity="0" result="BackgroundImageFix"/>
<feColorMatrix in="SourceAlpha" type="matrix" values="0 0 0 0 0 0 0 0 0 0 0 0 0 0 0 0 0 0 127 0" result="hardAlpha"/>
<feMorphology radius="5" operator="dilate" in="SourceAlpha" result="effect1_dropShadow_1154_1801"/>
<feOffset dy="10"/>
<feGaussianBlur stdDeviation="10"/>
<feComposite in2="hardAlpha" operator="out"/>
<feColorMatrix type="matrix" values="0 0 0 0 0.130188 0 0 0 0 0.12796 0 0 0 0 0.194824 0 0 0 0.05 0"/>
<feBlend mode="normal" in2="BackgroundImageFix" result="effect1_dropShadow_1154_1801"/>
<feBlend mode="normal" in="SourceGraphic" in2="effect1_dropShadow_1154_1801" result="shape"/>
</filter>
<filter id="filter1_d_1154_1801" x="195" y="136" width="326" height="82" filterUnits="userSpaceOnUse" color-interpolation-filters="sRGB">
<feFlood flood-opacity="0" result="BackgroundImageFix"/>
<feColorMatrix in="SourceAlpha" type="matrix" values="0 0 0 0 0 0 0 0 0 0 0 0 0 0 0 0 0 0 127 0" result="hardAlpha"/>
<feOffset dy="4"/>
<feGaussianBlur stdDeviation="10"/>
<feComposite in2="hardAlpha" operator="out"/>
<feColorMatrix type="matrix" values="0 0 0 0 0.130188 0 0 0 0 0.12796 0 0 0 0 0.194824 0 0 0 0.05 0"/>
<feBlend mode="normal" in2="BackgroundImageFix" result="effect1_dropShadow_1154_1801"/>
<feBlend mode="normal" in="SourceGraphic" in2="effect1_dropShadow_1154_1801" result="shape"/>
</filter>
<filter id="filter2_d_1154_1801" x="116" y="35" width="158" height="94" filterUnits="userSpaceOnUse" color-interpolation-filters="sRGB">
<feFlood flood-opacity="0" result="BackgroundImageFix"/>
<feColorMatrix in="SourceAlpha" type="matrix" values="0 0 0 0 0 0 0 0 0 0 0 0 0 0 0 0 0 0 127 0" result="hardAlpha"/>
<feMorphology radius="5" operator="dilate" in="SourceAlpha" result="effect1_dropShadow_1154_1801"/>
<feOffset dy="10"/>
<feGaussianBlur stdDeviation="10"/>
<feComposite in2="hardAlpha" operator="out"/>
<feColorMatrix type="matrix" values="0 0 0 0 0.130188 0 0 0 0 0.12796 0 0 0 0 0.194824 0 0 0 0.05 0"/>
<feBlend mode="normal" in2="BackgroundImageFix" result="effect1_dropShadow_1154_1801"/>
<feBlend mode="normal" in="SourceGraphic" in2="effect1_dropShadow_1154_1801" result="shape"/>
</filter>
<filter id="filter3_d_1154_1801" x="425" y="35" width="158" height="94" filterUnits="userSpaceOnUse" color-interpolation-filters="sRGB">
<feFlood flood-opacity="0" result="BackgroundImageFix"/>
<feColorMatrix in="SourceAlpha" type="matrix" values="0 0 0 0 0 0 0 0 0 0 0 0 0 0 0 0 0 0 127 0" result="hardAlpha"/>
<feMorphology radius="5" operator="dilate" in="SourceAlpha" result="effect1_dropShadow_1154_1801"/>
<feOffset dy="10"/>
<feGaussianBlur stdDeviation="10"/>
<feComposite in2="hardAlpha" operator="out"/>
<feColorMatrix type="matrix" values="0 0 0 0 0.130188 0 0 0 0 0.12796 0 0 0 0 0.194824 0 0 0 0.05 0"/>
<feBlend mode="normal" in2="BackgroundImageFix" result="effect1_dropShadow_1154_1801"/>
<feBlend mode="normal" in="SourceGraphic" in2="effect1_dropShadow_1154_1801" result="shape"/>
</filter>
</defs>
</svg>
